<?plantuml 1.2026.2?><svg xmlns="http://www.w3.org/2000/svg" xmlns:xlink="http://www.w3.org/1999/xlink" contentStyleType="text/css" data-diagram-type="CLASS" height="341px" preserveAspectRatio="none" style="width:558px;height:341px;background:#FFFFFF;" version="1.1" viewBox="0 0 558 341" width="558px" zoomAndPan="magnify"><defs/><g><!--class auto_pass.envfile.EnvFileError--><g class="entity" data-qualified-name="auto_pass.envfile.EnvFileError" data-source-line="2" id="ent0002"><rect fill="#F1F1F1" height="48" rx="2.5" ry="2.5" style="stroke:#181818;stroke-width:0.5;" width="111.5337" x="107.7" y="7"/><ellipse cx="122.7" cy="23" fill="#ADD1B2" rx="11" ry="11" style="stroke:#181818;stroke-width:1;"/><path d="M122.8094,18.5313 Q121.8875,18.5313 121.1531,18.8438 Q120.4344,19.1563 119.9344,19.75 Q119.4344,20.3281 119.1531,21.2031 Q118.8875,22.0781 118.8875,23.1719 Q118.8875,24.6094 119.325,25.6563 Q119.7781,26.7031 120.6219,27.25 Q121.4813,27.7969 122.7938,27.7969 Q123.575,27.7969 124.2625,27.6719 Q124.9656,27.5313 125.9656,27.2188 L125.9656,29.0938 Q125.1063,29.4219 124.3406,29.5469 Q123.5906,29.6719 122.575,29.6719 Q120.6531,29.6719 119.3406,28.875 Q118.0438,28.0625 117.3875,26.5938 Q116.7313,25.1094 116.7313,23.1406 Q116.7313,21.7188 117.1219,20.5469 Q117.5281,19.3594 118.3094,18.4844 Q119.0906,17.6094 120.2313,17.1406 Q121.3719,16.6563 122.8406,16.6563 Q123.7938,16.6563 124.6844,16.8594 Q125.5906,17.0469 126.5281,17.5156 L125.7,19.2969 Q124.9188,18.9219 124.2625,18.7344 Q123.6063,18.5313 122.8094,18.5313 Z " fill="#000000"/><text fill="#FF0000" font-family="sans-serif" font-size="14" lengthAdjust="spacing" textLength="79.5337" x="136.7" y="28.432">EnvFileError</text><line style="stroke:#181818;stroke-width:0.5;" x1="108.7" x2="218.2337" y1="39" y2="39"/><line style="stroke:#181818;stroke-width:0.5;" x1="108.7" x2="218.2337" y1="47" y2="47"/></g><!--class auto_pass.keepassxc.KeepassCommandError--><g class="entity" data-qualified-name="auto_pass.keepassxc.KeepassCommandError" data-source-line="4" id="ent0003"><rect fill="#F1F1F1" height="48" rx="2.5" ry="2.5" style="stroke:#181818;stroke-width:0.5;" width="188.5474" x="254.2" y="7"/><ellipse cx="269.2" cy="23" fill="#ADD1B2" rx="11" ry="11" style="stroke:#181818;stroke-width:1;"/><path d="M269.3094,18.5313 Q268.3875,18.5313 267.6531,18.8438 Q266.9344,19.1563 266.4344,19.75 Q265.9344,20.3281 265.6531,21.2031 Q265.3875,22.0781 265.3875,23.1719 Q265.3875,24.6094 265.825,25.6563 Q266.2781,26.7031 267.1219,27.25 Q267.9813,27.7969 269.2938,27.7969 Q270.075,27.7969 270.7625,27.6719 Q271.4656,27.5313 272.4656,27.2188 L272.4656,29.0938 Q271.6063,29.4219 270.8406,29.5469 Q270.0906,29.6719 269.075,29.6719 Q267.1531,29.6719 265.8406,28.875 Q264.5438,28.0625 263.8875,26.5938 Q263.2313,25.1094 263.2313,23.1406 Q263.2313,21.7188 263.6219,20.5469 Q264.0281,19.3594 264.8094,18.4844 Q265.5906,17.6094 266.7313,17.1406 Q267.8719,16.6563 269.3406,16.6563 Q270.2938,16.6563 271.1844,16.8594 Q272.0906,17.0469 273.0281,17.5156 L272.2,19.2969 Q271.4188,18.9219 270.7625,18.7344 Q270.1063,18.5313 269.3094,18.5313 Z " fill="#000000"/><text fill="#FF0000" font-family="sans-serif" font-size="14" lengthAdjust="spacing" textLength="156.5474" x="283.2" y="28.432">KeepassCommandError</text><line style="stroke:#181818;stroke-width:0.5;" x1="255.2" x2="441.7474" y1="39" y2="39"/><line style="stroke:#181818;stroke-width:0.5;" x1="255.2" x2="441.7474" y1="47" y2="47"/></g><!--class auto_pass.keepassxc.KeepassXCStoreConfig--><g class="entity" data-qualified-name="auto_pass.keepassxc.KeepassXCStoreConfig" data-source-line="6" id="ent0004"><rect fill="#F1F1F1" height="219.6113" rx="2.5" ry="2.5" style="stroke:#181818;stroke-width:0.5;" width="312.9429" x="7" y="115"/><ellipse cx="84.5807" cy="131" fill="#ADD1B2" rx="11" ry="11" style="stroke:#181818;stroke-width:1;"/><path d="M84.6901,126.5313 Q83.7682,126.5313 83.0339,126.8438 Q82.3151,127.1563 81.8151,127.75 Q81.3151,128.3281 81.0339,129.2031 Q80.7682,130.0781 80.7682,131.1719 Q80.7682,132.6094 81.2057,133.6563 Q81.6589,134.7031 82.5026,135.25 Q83.362,135.7969 84.6745,135.7969 Q85.4557,135.7969 86.1432,135.6719 Q86.8464,135.5313 87.8464,135.2188 L87.8464,137.0938 Q86.987,137.4219 86.2214,137.5469 Q85.4714,137.6719 84.4557,137.6719 Q82.5339,137.6719 81.2214,136.875 Q79.9245,136.0625 79.2682,134.5938 Q78.612,133.1094 78.612,131.1406 Q78.612,129.7188 79.0026,128.5469 Q79.4089,127.3594 80.1901,126.4844 Q80.9714,125.6094 82.112,125.1406 Q83.2526,124.6563 84.7214,124.6563 Q85.6745,124.6563 86.5651,124.8594 Q87.4714,125.0469 88.4089,125.5156 L87.5807,127.2969 Q86.7995,126.9219 86.1432,126.7344 Q85.487,126.5313 84.6901,126.5313 Z " fill="#000000"/><text fill="#000000" font-family="sans-serif" font-size="14" lengthAdjust="spacing" textLength="149.2814" x="105.0807" y="136.432">KeepassXCStoreConfig</text><line style="stroke:#181818;stroke-width:0.5;" x1="8" x2="318.9429" y1="147" y2="147"/><text fill="#000000" font-family="sans-serif" font-size="14" lengthAdjust="spacing" textLength="143.8914" x="13" y="165.9659">database_key_file : str</text><text fill="#000000" font-family="sans-serif" font-size="14" lengthAdjust="spacing" textLength="285.8649" x="13" y="185.0339">database_key_file_env_names : tuple[str, ...]</text><text fill="#000000" font-family="sans-serif" font-size="14" lengthAdjust="spacing" textLength="227.2472" x="13" y="204.1018">database_password_cache_dir : str</text><text fill="#000000" font-family="sans-serif" font-size="14" lengthAdjust="spacing" textLength="273.993" x="13" y="223.1697">database_password_cache_enabled : bool</text><text fill="#000000" font-family="sans-serif" font-size="14" lengthAdjust="spacing" textLength="229.1791" x="13" y="242.2376">database_password_cache_file : str</text><text fill="#000000" font-family="sans-serif" font-size="14" lengthAdjust="spacing" textLength="282.7149" x="13" y="261.3055">database_password_cache_ttl_seconds : int</text><text fill="#000000" font-family="sans-serif" font-size="14" lengthAdjust="spacing" textLength="300.9429" x="13" y="280.3734">database_password_env_names : tuple[str, ...]</text><text fill="#000000" font-family="sans-serif" font-size="14" lengthAdjust="spacing" textLength="125.3976" x="13" y="299.4414">database_path : str</text><text fill="#000000" font-family="sans-serif" font-size="14" lengthAdjust="spacing" textLength="267.371" x="13" y="318.5093">database_path_env_names : tuple[str, ...]</text><line style="stroke:#181818;stroke-width:0.5;" x1="8" x2="318.9429" y1="326.6113" y2="326.6113"/></g><!--class auto_pass.keepassxc.ResolvedKeepassContext--><g class="entity" data-qualified-name="auto_pass.keepassxc.ResolvedKeepassContext" data-source-line="17" id="ent0005"><rect fill="#F1F1F1" height="143.3396" rx="2.5" ry="2.5" style="stroke:#181818;stroke-width:0.5;" width="196.7234" x="355.11" y="153.13"/><ellipse cx="370.11" cy="169.13" fill="#ADD1B2" rx="11" ry="11" style="stroke:#181818;stroke-width:1;"/><path d="M370.2194,164.6613 Q369.2975,164.6613 368.5631,164.9738 Q367.8444,165.2863 367.3444,165.88 Q366.8444,166.4581 366.5631,167.3331 Q366.2975,168.2081 366.2975,169.3019 Q366.2975,170.7394 366.735,171.7863 Q367.1881,172.8331 368.0319,173.38 Q368.8913,173.9269 370.2038,173.9269 Q370.985,173.9269 371.6725,173.8019 Q372.3756,173.6613 373.3756,173.3488 L373.3756,175.2238 Q372.5163,175.5519 371.7506,175.6769 Q371.0006,175.8019 369.985,175.8019 Q368.0631,175.8019 366.7506,175.005 Q365.4538,174.1925 364.7975,172.7238 Q364.1413,171.2394 364.1413,169.2706 Q364.1413,167.8488 364.5319,166.6769 Q364.9381,165.4894 365.7194,164.6144 Q366.5006,163.7394 367.6413,163.2706 Q368.7819,162.7863 370.2506,162.7863 Q371.2038,162.7863 372.0944,162.9894 Q373.0006,163.1769 373.9381,163.6456 L373.11,165.4269 Q372.3288,165.0519 371.6725,164.8644 Q371.0163,164.6613 370.2194,164.6613 Z " fill="#000000"/><text fill="#000000" font-family="sans-serif" font-size="14" lengthAdjust="spacing" textLength="164.7234" x="384.11" y="174.562">ResolvedKeepassContext</text><line style="stroke:#181818;stroke-width:0.5;" x1="356.11" x2="550.8334" y1="185.13" y2="185.13"/><text fill="#000000" font-family="sans-serif" font-size="14" lengthAdjust="spacing" textLength="115.7516" x="361.11" y="204.0959">db_password : str</text><text fill="#000000" font-family="sans-serif" font-size="14" lengthAdjust="spacing" textLength="82.1797" x="361.11" y="223.1639">db_path : str</text><text fill="#000000" font-family="sans-serif" font-size="14" lengthAdjust="spacing" textLength="166.7113" x="361.11" y="242.2318">interactive_allowed : bool</text><text fill="#000000" font-family="sans-serif" font-size="14" lengthAdjust="spacing" textLength="77.2377" x="361.11" y="261.2997">key_file : str</text><text fill="#000000" font-family="sans-serif" font-size="14" lengthAdjust="spacing" textLength="165.8994" x="361.11" y="280.3676">password_env_name : str</text><line style="stroke:#181818;stroke-width:0.5;" x1="356.11" x2="550.8334" y1="288.4696" y2="288.4696"/></g><?plantuml-src ZP4nRy8m48LtVeN5NBaxGYmHNRgLfL9LMMVxQ28SNsGVWQhYlzS1b0RYfbrztps_ToyY2myrnWOCRh2104n1UF8uCmvY5FEb8KTX4T2krhvzgXokGw2mV3o_h-O2ee0zaseIBj6tsuJ88Ig-PgUCsZDYjr9GNOEtKwAx2taqChCpLB-ENujDIe45-MtryPVM3Pp4XB30e26Ysk6dwjA8XOWSSXELyghp0HF3-yRXMo8VX9JoVSXt7nqeM6N0bAXi5SQQTmnwq0vjuZIHcm3p3kyWPgSY6lAsSrfvphB_JiDbxaSk9nNwcbumaclHzcrwnYF_MbGUlrIbU_C_XlIjmHGM0nYkMbJW71s6HnrLFBh5TNBw1W00?></g></svg>