<?plantuml 1.2026.2?><svg xmlns="http://www.w3.org/2000/svg" xmlns:xlink="http://www.w3.org/1999/xlink" contentStyleType="text/css" data-diagram-type="DESCRIPTION" height="738px" preserveAspectRatio="none" style="width:1257px;height:738px;background:#FFFFFF;" version="1.1" viewBox="0 0 1257 738" width="1257px" zoomAndPan="magnify"><defs/><g><!--entity conftest--><g class="entity" data-qualified-name="conftest" data-source-line="4" id="ent0002"><rect fill="#F1F1F1" height="58.1358" rx="2.5" ry="2.5" style="stroke:#181818;stroke-width:0.5;" width="101.8017" x="229.07" y="26.07"/><text fill="#000000" font-family="sans-serif" font-size="14" lengthAdjust="spacing" textLength="53.3678" x="239.07" y="51.0359">conftest</text><text fill="#000000" font-family="sans-serif" font-size="14" lengthAdjust="spacing" textLength="81.8017" x="239.07" y="70.1039">1 python file</text></g><!--entity src.auto_pass--><g class="entity" data-qualified-name="src.auto_pass" data-source-line="5" id="ent0003"><rect fill="#F1F1F1" height="96.2717" rx="2.5" ry="2.5" style="stroke:#181818;stroke-width:0.5;" width="205.9333" x="675" y="281.41"/><text fill="#000000" font-family="sans-serif" font-size="14" lengthAdjust="spacing" textLength="89.0817" x="685" y="306.3759">src.auto_pass</text><text fill="#000000" font-family="sans-serif" font-size="14" lengthAdjust="spacing" textLength="147.2654" x="685" y="325.4439">1 child pkg, 9 modules</text><text fill="#000000" font-family="sans-serif" font-size="14" lengthAdjust="spacing" textLength="96.5156" x="685" y="344.5118">14 python files</text><text fill="#000000" font-family="sans-serif" font-size="14" lengthAdjust="spacing" textLength="66.8217" x="685" y="363.5797">examples:</text><text fill="#000000" font-family="sans-serif" font-size="14" lengthAdjust="spacing" text-decoration="underline" textLength="33.2079" x="755.4617" y="363.5797">main</text><text fill="#000000" font-family="sans-serif" font-size="14" lengthAdjust="spacing" textLength="82.2637" x="788.6696" y="363.5797">, allowlist, cli</text></g><!--entity src.auto_pass.__main__--><g class="entity" data-qualified-name="src.auto_pass.__main__" data-source-line="6" id="ent0004"><rect fill="#F1F1F1" height="58.1358" rx="2.5" ry="2.5" style="stroke:#181818;stroke-width:0.5;" width="146.0415" x="365.95" y="26.07"/><text fill="#000000" font-family="sans-serif" font-size="14" lengthAdjust="spacing" textLength="92.8337" x="375.95" y="51.0359">src.auto_pass.</text><text fill="#000000" font-family="sans-serif" font-size="14" lengthAdjust="spacing" text-decoration="underline" textLength="33.2079" x="468.7837" y="51.0359">main</text><text fill="#000000" font-family="sans-serif" font-size="14" lengthAdjust="spacing" textLength="81.8017" x="375.95" y="70.1039">1 python file</text></g><!--entity src.auto_pass.allowlist--><g class="entity" data-qualified-name="src.auto_pass.allowlist" data-source-line="7" id="ent0005"><rect fill="#F1F1F1" height="58.1358" rx="2.5" ry="2.5" style="stroke:#181818;stroke-width:0.5;" width="166.3695" x="86.78" y="437.68"/><text fill="#000000" font-family="sans-serif" font-size="14" lengthAdjust="spacing" textLength="146.3695" x="96.78" y="462.6459">src.auto_pass.allowlist</text><text fill="#000000" font-family="sans-serif" font-size="14" lengthAdjust="spacing" textLength="81.8017" x="96.78" y="481.7139">1 python file</text></g><!--entity src.auto_pass.cli--><g class="entity" data-qualified-name="src.auto_pass.cli" data-source-line="8" id="ent0006"><rect fill="#F1F1F1" height="58.1358" rx="2.5" ry="2.5" style="stroke:#181818;stroke-width:0.5;" width="126.7776" x="375.58" y="163.28"/><text fill="#000000" font-family="sans-serif" font-size="14" lengthAdjust="spacing" textLength="106.7776" x="385.58" y="188.2459">src.auto_pass.cli</text><text fill="#000000" font-family="sans-serif" font-size="14" lengthAdjust="spacing" textLength="81.8017" x="385.58" y="207.3139">1 python file</text></g><!--entity src.auto_pass.client--><g class="entity" data-qualified-name="src.auto_pass.client" data-source-line="9" id="ent0007"><rect fill="#F1F1F1" height="58.1358" rx="2.5" ry="2.5" style="stroke:#181818;stroke-width:0.5;" width="148.3795" x="491.78" y="300.48"/><text fill="#000000" font-family="sans-serif" font-size="14" lengthAdjust="spacing" textLength="128.3795" x="501.78" y="325.4459">src.auto_pass.client</text><text fill="#000000" font-family="sans-serif" font-size="14" lengthAdjust="spacing" textLength="81.8017" x="501.78" y="344.5139">1 python file</text></g><!--entity src.auto_pass.dbindex--><g class="entity" data-qualified-name="src.auto_pass.dbindex" data-source-line="10" id="ent0008"><rect fill="#F1F1F1" height="58.1358" rx="2.5" ry="2.5" style="stroke:#181818;stroke-width:0.5;" width="166.2295" x="287.85" y="437.68"/><text fill="#000000" font-family="sans-serif" font-size="14" lengthAdjust="spacing" textLength="146.2295" x="297.85" y="462.6459">src.auto_pass.dbindex</text><text fill="#000000" font-family="sans-serif" font-size="14" lengthAdjust="spacing" textLength="81.8017" x="297.85" y="481.7139">1 python file</text></g><!--entity src.auto_pass.envfile--><g class="entity" data-qualified-name="src.auto_pass.envfile" data-source-line="11" id="ent0009"><rect fill="#F1F1F1" height="58.1358" rx="2.5" ry="2.5" style="stroke:#181818;stroke-width:0.5;" width="156.4295" x="676.75" y="673.95"/><text fill="#000000" font-family="sans-serif" font-size="14" lengthAdjust="spacing" textLength="136.4295" x="686.75" y="698.9159">src.auto_pass.envfile</text><text fill="#000000" font-family="sans-serif" font-size="14" lengthAdjust="spacing" textLength="81.8017" x="686.75" y="717.9839">1 python file</text></g><!--entity src.auto_pass.keepassxc--><g class="entity" data-qualified-name="src.auto_pass.keepassxc" data-source-line="12" id="ent0010"><rect fill="#F1F1F1" height="58.1358" rx="2.5" ry="2.5" style="stroke:#181818;stroke-width:0.5;" width="180.1034" x="488.92" y="437.68"/><text fill="#000000" font-family="sans-serif" font-size="14" lengthAdjust="spacing" textLength="160.1034" x="498.92" y="462.6459">src.auto_pass.keepassxc</text><text fill="#000000" font-family="sans-serif" font-size="14" lengthAdjust="spacing" textLength="81.8017" x="498.92" y="481.7139">1 python file</text></g><!--entity src.auto_pass.notifications--><g class="entity" data-qualified-name="src.auto_pass.notifications" data-source-line="13" id="ent0011"><rect fill="#F1F1F1" height="58.1358" rx="2.5" ry="2.5" style="stroke:#181818;stroke-width:0.5;" width="194.1174" x="481.91" y="555.82"/><text fill="#000000" font-family="sans-serif" font-size="14" lengthAdjust="spacing" textLength="174.1174" x="491.91" y="580.7859">src.auto_pass.notifications</text><text fill="#000000" font-family="sans-serif" font-size="14" lengthAdjust="spacing" textLength="81.8017" x="491.91" y="599.8539">1 python file</text></g><!--entity src.auto_pass.server--><g class="entity" data-qualified-name="src.auto_pass.server" data-source-line="14" id="ent0012"><rect fill="#F1F1F1" height="58.1358" rx="2.5" ry="2.5" style="stroke:#181818;stroke-width:0.5;" width="154.0075" x="160.96" y="300.48"/><text fill="#000000" font-family="sans-serif" font-size="14" lengthAdjust="spacing" textLength="134.0075" x="170.96" y="325.4459">src.auto_pass.server</text><text fill="#000000" font-family="sans-serif" font-size="14" lengthAdjust="spacing" textLength="81.8017" x="170.96" y="344.5139">1 python file</text></g><!--entity src.auto_pass.web--><g class="entity" data-qualified-name="src.auto_pass.web" data-source-line="15" id="ent0013"><rect fill="#F1F1F1" height="96.2717" rx="2.5" ry="2.5" style="stroke:#181818;stroke-width:0.5;" width="194.3133" x="546.81" y="7"/><text fill="#000000" font-family="sans-serif" font-size="14" lengthAdjust="spacing" textLength="120.3436" x="556.81" y="31.9659">src.auto_pass.web</text><text fill="#000000" font-family="sans-serif" font-size="14" lengthAdjust="spacing" textLength="147.2654" x="556.81" y="51.0339">0 child pkg, 3 modules</text><text fill="#000000" font-family="sans-serif" font-size="14" lengthAdjust="spacing" textLength="88.5076" x="556.81" y="70.1018">4 python files</text><text fill="#000000" font-family="sans-serif" font-size="14" lengthAdjust="spacing" textLength="174.3133" x="556.81" y="89.1697">examples: app, audit, auth</text></g><!--entity src.auto_pass.web.app--><g class="entity" data-qualified-name="src.auto_pass.web.app" data-source-line="16" id="ent0014"><rect fill="#F1F1F1" height="58.1358" rx="2.5" ry="2.5" style="stroke:#181818;stroke-width:0.5;" width="169.1694" x="916.38" y="300.48"/><text fill="#000000" font-family="sans-serif" font-size="14" lengthAdjust="spacing" textLength="149.1694" x="926.38" y="325.4459">src.auto_pass.web.app</text><text fill="#000000" font-family="sans-serif" font-size="14" lengthAdjust="spacing" textLength="81.8017" x="926.38" y="344.5139">1 python file</text></g><!--entity src.auto_pass.web.audit--><g class="entity" data-qualified-name="src.auto_pass.web.audit" data-source-line="17" id="ent0015"><rect fill="#F1F1F1" height="58.1358" rx="2.5" ry="2.5" style="stroke:#181818;stroke-width:0.5;" width="177.8774" x="808.03" y="437.68"/><text fill="#000000" font-family="sans-serif" font-size="14" lengthAdjust="spacing" textLength="157.8774" x="818.03" y="462.6459">src.auto_pass.web.audit</text><text fill="#000000" font-family="sans-serif" font-size="14" lengthAdjust="spacing" textLength="81.8017" x="818.03" y="481.7139">1 python file</text></g><!--entity src.auto_pass.web.auth--><g class="entity" data-qualified-name="src.auto_pass.web.auth" data-source-line="18" id="ent0016"><rect fill="#F1F1F1" height="58.1358" rx="2.5" ry="2.5" style="stroke:#181818;stroke-width:0.5;" width="174.3074" x="1020.81" y="437.68"/><text fill="#000000" font-family="sans-serif" font-size="14" lengthAdjust="spacing" textLength="154.3074" x="1030.81" y="462.6459">src.auto_pass.web.auth</text><text fill="#000000" font-family="sans-serif" font-size="14" lengthAdjust="spacing" textLength="81.8017" x="1030.81" y="481.7139">1 python file</text></g><!--link src.auto_pass to src.auto_pass.dbindex--><g class="link" data-entity-1="ent0003" data-entity-2="ent0008" data-link-type="dependency" data-source-line="19" id="lnk17"><path d="M674.73,371.68 C669.08,373.75 663.46,375.76 657.97,377.68 C590.06,401.4 517.7287,423.4555 460.1587,440.2955" fill="none" id="src.auto_pass-to-src.auto_pass.dbindex" style="stroke:#181818;stroke-width:1;"/><polygon fill="#181818" points="454.4,441.98,464.161,443.2924,459.1989,440.5763,461.915,435.6141,454.4,441.98" style="stroke:#181818;stroke-width:1;"/></g><!--link src.auto_pass to src.auto_pass.envfile--><g class="link" data-entity-1="ent0003" data-entity-2="ent0009" data-link-type="dependency" data-source-line="20" id="lnk18"><path d="M775.03,377.97 C770.19,456.21 761.0414,604.0015 757.1014,667.5315" fill="none" id="src.auto_pass-to-src.auto_pass.envfile" style="stroke:#181818;stroke-width:1;"/><polygon fill="#181818" points="756.73,673.52,761.2794,664.7849,757.0395,668.5296,753.2948,664.2897,756.73,673.52" style="stroke:#181818;stroke-width:1;"/></g><!--link src.auto_pass to src.auto_pass.keepassxc--><g class="link" data-entity-1="ent0003" data-entity-2="ent0010" data-link-type="dependency" data-source-line="21" id="lnk19"><path d="M708.09,378.02 C678.97,397.81 651.0934,416.7489 625.8134,433.9189" fill="none" id="src.auto_pass-to-src.auto_pass.keepassxc" style="stroke:#181818;stroke-width:1;"/><polygon fill="#181818" points="620.85,437.29,630.5425,435.5423,624.9862,434.4807,626.0477,428.9244,620.85,437.29" style="stroke:#181818;stroke-width:1;"/></g><!--link src.auto_pass.__main__ to src.auto_pass.cli--><g class="link" data-entity-1="ent0004" data-entity-2="ent0006" data-link-type="dependency" data-source-line="22" id="lnk20"><path d="M438.97,84.48 C438.97,107.56 438.97,133.97 438.97,157.04" fill="none" id="src.auto_pass.__main__-to-src.auto_pass.cli" style="stroke:#181818;stroke-width:1;"/><polygon fill="#181818" points="438.97,163.04,442.97,154.04,438.97,158.04,434.97,154.04,438.97,163.04" style="stroke:#181818;stroke-width:1;"/></g><!--link src.auto_pass.cli to src.auto_pass.allowlist--><g class="link" data-entity-1="ent0006" data-entity-2="ent0005" data-link-type="dependency" data-source-line="23" id="lnk21"><path d="M375.22,203.27 C296.85,216.93 170.77,244.13 142.97,281.41 C108.64,327.43 132.241,392.8814 151.571,431.9814" fill="none" id="src.auto_pass.cli-to-src.auto_pass.allowlist" style="stroke:#181818;stroke-width:1;"/><polygon fill="#181818" points="154.23,437.36,153.8272,427.5194,152.0141,432.8778,146.6557,431.0648,154.23,437.36" style="stroke:#181818;stroke-width:1;"/></g><!--link src.auto_pass.cli to src.auto_pass.client--><g class="link" data-entity-1="ent0006" data-entity-2="ent0007" data-link-type="dependency" data-source-line="24" id="lnk22"><path d="M465.59,221.69 C487.27,244.76 513.6012,272.8076 535.2712,295.8676" fill="none" id="src.auto_pass.cli-to-src.auto_pass.client" style="stroke:#181818;stroke-width:1;"/><polygon fill="#181818" points="539.38,300.24,536.1317,290.9422,535.956,296.5964,530.3019,296.4207,539.38,300.24" style="stroke:#181818;stroke-width:1;"/></g><!--link src.auto_pass.cli to src.auto_pass.dbindex--><g class="link" data-entity-1="ent0006" data-entity-2="ent0008" data-link-type="dependency" data-source-line="25" id="lnk23"><path d="M430.08,221.77 C424.83,238.96 418.21,261.36 412.97,281.41 C398.65,336.19 385.7991,394.9793 378.1291,431.3193" fill="none" id="src.auto_pass.cli-to-src.auto_pass.dbindex" style="stroke:#181818;stroke-width:1;"/><polygon fill="#181818" points="376.89,437.19,382.6624,429.2101,377.9226,432.2978,374.8348,427.558,376.89,437.19" style="stroke:#181818;stroke-width:1;"/></g><!--link src.auto_pass.cli to src.auto_pass.envfile--><g class="link" data-entity-1="ent0006" data-entity-2="ent0009" data-link-type="dependency" data-source-line="26" id="lnk24"><path d="M502.82,193.58 C656.4,195.33 1041.17,207.22 1141.97,281.41 C1203.41,326.63 1196.82,363.12 1212.97,437.68 C1250.27,609.96 979.927,671.6431 839.457,692.1531" fill="none" id="src.auto_pass.cli-to-src.auto_pass.envfile" style="stroke:#181818;stroke-width:1;"/><polygon fill="#181818" points="833.52,693.02,843.0035,695.6777,838.4675,692.2976,841.8477,687.7617,833.52,693.02" style="stroke:#181818;stroke-width:1;"/></g><!--link src.auto_pass.cli to src.auto_pass.keepassxc--><g class="link" data-entity-1="ent0006" data-entity-2="ent0010" data-link-type="dependency" data-source-line="27" id="lnk25"><path d="M438.59,221.61 C439.3,259.64 444.97,328.22 473.97,377.68 C488.05,401.7 506.3235,418.6504 527.3035,433.7804" fill="none" id="src.auto_pass.cli-to-src.auto_pass.keepassxc" style="stroke:#181818;stroke-width:1;"/><polygon fill="#181818" points="532.17,437.29,527.2099,428.7813,528.1146,434.3654,522.5305,435.27,532.17,437.29" style="stroke:#181818;stroke-width:1;"/></g><!--link src.auto_pass.cli to src.auto_pass.notifications--><g class="link" data-entity-1="ent0006" data-entity-2="ent0011" data-link-type="dependency" data-source-line="28" id="lnk26"><path d="M375.38,193.55 C303.56,197.25 187.64,214.21 117.97,281.41 C47.61,349.27 6,421.05 68.97,495.82 C120.66,557.2 342.5154,575.5458 475.5354,581.1858" fill="none" id="src.auto_pass.cli-to-src.auto_pass.notifications" style="stroke:#181818;stroke-width:1;"/><polygon fill="#181818" points="481.53,581.44,472.7075,577.0623,476.5345,581.2282,472.3686,585.0552,481.53,581.44" style="stroke:#181818;stroke-width:1;"/></g><!--link src.auto_pass.cli to src.auto_pass.server--><g class="link" data-entity-1="ent0006" data-entity-2="ent0012" data-link-type="dependency" data-source-line="29" id="lnk27"><path d="M396.83,221.69 C362.64,244.68 319.6386,273.6114 285.3686,296.6614" fill="none" id="src.auto_pass.cli-to-src.auto_pass.server" style="stroke:#181818;stroke-width:1;"/><polygon fill="#181818" points="280.39,300.01,290.0904,298.3061,284.5389,297.2195,285.6255,291.668,280.39,300.01" style="stroke:#181818;stroke-width:1;"/></g><!--link src.auto_pass.cli to src.auto_pass.web.app--><g class="link" data-entity-1="ent0006" data-entity-2="ent0014" data-link-type="dependency" data-source-line="30" id="lnk28"><path d="M502.52,200.64 C592.22,212.04 760.39,237.44 897.97,281.41 C913.61,286.41 924.5394,290.6736 939.5394,297.5036" fill="none" id="src.auto_pass.cli-to-src.auto_pass.web.app" style="stroke:#181818;stroke-width:1;"/><polygon fill="#181818" points="945,299.99,938.4667,292.62,940.4495,297.918,935.1515,299.9008,945,299.99" style="stroke:#181818;stroke-width:1;"/></g><!--link src.auto_pass.cli to src.auto_pass.web.auth--><g class="link" data-entity-1="ent0006" data-entity-2="ent0016" data-link-type="dependency" data-source-line="31" id="lnk29"><path d="M502.78,197.16 C661.29,207.29 1063.09,237.12 1102.97,281.41 C1141.31,324 1130.0908,391.3803 1118.9008,431.5303" fill="none" id="src.auto_pass.cli-to-src.auto_pass.web.auth" style="stroke:#181818;stroke-width:1;"/><polygon fill="#181818" points="1117.29,437.31,1123.5594,429.7143,1118.6324,432.4936,1115.8531,427.5665,1117.29,437.31" style="stroke:#181818;stroke-width:1;"/></g><!--link src.auto_pass.keepassxc to src.auto_pass.notifications--><g class="link" data-entity-1="ent0010" data-entity-2="ent0011" data-link-type="dependency" data-source-line="32" id="lnk30"><path d="M567.5,496.16 C565.29,514.16 564.5629,531.3942 566.7629,549.4142" fill="none" id="src.auto_pass.keepassxc-to-src.auto_pass.notifications" style="stroke:#181818;stroke-width:1;"/><polygon fill="#181818" points="567.49,555.37,570.3698,545.9516,566.8841,550.4069,562.4288,546.9211,567.49,555.37" style="stroke:#181818;stroke-width:1;"/></g><!--link src.auto_pass.notifications to src.auto_pass.keepassxc--><g class="link" data-entity-1="ent0011" data-entity-2="ent0010" data-link-type="dependency" data-source-line="34" id="lnk32"><path d="M590.45,555.37 C592.64,537.35 593.3712,520.1153 591.1612,502.1153" fill="none" id="src.auto_pass.notifications-to-src.auto_pass.keepassxc" style="stroke:#181818;stroke-width:1;"/><polygon fill="#181818" points="590.43,496.16,587.5566,505.5804,591.0393,501.1227,595.497,504.6055,590.43,496.16" style="stroke:#181818;stroke-width:1;"/></g><!--link src.auto_pass.notifications to src.auto_pass.envfile--><g class="link" data-entity-1="ent0011" data-entity-2="ent0009" data-link-type="dependency" data-source-line="33" id="lnk31"><path d="M622.02,614.3 C649.29,632.29 679.4311,652.1868 706.7411,670.1968" fill="none" id="src.auto_pass.notifications-to-src.auto_pass.envfile" style="stroke:#181818;stroke-width:1;"/><polygon fill="#181818" points="711.75,673.5,706.4388,665.206,707.5759,670.7473,702.0345,671.8845,711.75,673.5" style="stroke:#181818;stroke-width:1;"/></g><!--link src.auto_pass.server to src.auto_pass.allowlist--><g class="link" data-entity-1="ent0012" data-entity-2="ent0005" data-link-type="dependency" data-source-line="35" id="lnk33"><path d="M223.71,358.89 C212.11,381.97 198.4963,409.02 186.8963,432.08" fill="none" id="src.auto_pass.server-to-src.auto_pass.allowlist" style="stroke:#181818;stroke-width:1;"/><polygon fill="#181818" points="184.2,437.44,191.8178,431.1975,186.4469,432.9733,184.6711,427.6024,184.2,437.44" style="stroke:#181818;stroke-width:1;"/></g><!--link src.auto_pass.server to src.auto_pass.dbindex--><g class="link" data-entity-1="ent0012" data-entity-2="ent0008" data-link-type="dependency" data-source-line="36" id="lnk34"><path d="M265.85,358.89 C288.55,381.97 316.2218,410.1032 338.9118,433.1632" fill="none" id="src.auto_pass.server-to-src.auto_pass.dbindex" style="stroke:#181818;stroke-width:1;"/><polygon fill="#181818" points="343.12,437.44,339.6589,428.2193,339.6132,433.876,333.9565,433.8302,343.12,437.44" style="stroke:#181818;stroke-width:1;"/></g><!--link src.auto_pass.server to src.auto_pass.keepassxc--><g class="link" data-entity-1="ent0012" data-entity-2="ent0010" data-link-type="dependency" data-source-line="37" id="lnk35"><path d="M309.87,359.05 C367.9,382.06 443.5825,412.0682 501.5825,435.0682" fill="none" id="src.auto_pass.server-to-src.auto_pass.keepassxc" style="stroke:#181818;stroke-width:1;"/><polygon fill="#181818" points="507.16,437.28,500.2683,430.2441,502.5121,435.4369,497.3193,437.6807,507.16,437.28" style="stroke:#181818;stroke-width:1;"/></g><!--link src.auto_pass.web.app to src.auto_pass.web.audit--><g class="link" data-entity-1="ent0014" data-entity-2="ent0015" data-link-type="dependency" data-source-line="38" id="lnk36"><path d="M979.16,358.89 C961.42,381.97 940.1385,409.6244 922.3985,432.6844" fill="none" id="src.auto_pass.web.app-to-src.auto_pass.web.audit" style="stroke:#181818;stroke-width:1;"/><polygon fill="#181818" points="918.74,437.44,927.3981,432.7456,921.7887,433.477,921.0573,427.8676,918.74,437.44" style="stroke:#181818;stroke-width:1;"/></g><!--link src.auto_pass.web.app to src.auto_pass.web.auth--><g class="link" data-entity-1="ent0014" data-entity-2="ent0016" data-link-type="dependency" data-source-line="39" id="lnk37"><path d="M1023.4,358.89 C1041.66,381.97 1063.5853,409.6761 1081.8453,432.7361" fill="none" id="src.auto_pass.web.app-to-src.auto_pass.web.auth" style="stroke:#181818;stroke-width:1;"/><polygon fill="#181818" points="1085.57,437.44,1083.1188,427.901,1082.466,433.5201,1076.847,432.8674,1085.57,437.44" style="stroke:#181818;stroke-width:1;"/></g><?plantuml-src bPJDRiCW383lUGfhvxRQj5ssmrwYrqeH9Mw3IW05z-_j1slQD2ekz1H4FdyuZer70YCwz4v8NA8JlI3RWx46Ax8EoCBQ4jaE6jMZ96LDvNVAHB03QJiNI4DBEck420YprLZTLl0chTaGUbgP3t1dQgs1ZTBu1iB3zTqzxtkv47kojHFUno3PAjs0ssrdy0sTRVOQu_xNlIriu4bqBgn-eAuxeKnTpq1eROzQUPg1rEh_o8cUFNTnTQIoJfEywvP5NdP3ULluaBmdG4yDuPSLIGB7UvgrCWsUyg81v4re3Z4qRnf0thH3ZC-JpBjkA6ypbjH6IH7RtkUD4votUkmFsETr5uxt776zCk_ty_4vpWS_7iAvC1dxHb5yK9iuEPYV7hi8Zdp-0vWnnKGANH7DsQWjbL5RJRPXFlzb6ZV7NTionuqjbxv34Y5naXzs4jnuSvJGmsYNeCaQC6oo3WpBrI9DJqUh96AOdXBqsgZ5x4FlZ5_pOkwJTyKLpKLnjRtKv8NkOGFINS7YN493vTawnu5_BOBQFm00?></g></svg>
