<?plantuml 1.2026.2?><svg xmlns="http://www.w3.org/2000/svg" xmlns:xlink="http://www.w3.org/1999/xlink" contentStyleType="text/css" data-diagram-type="CLASS" height="456px" preserveAspectRatio="none" style="width:816px;height:456px;background:#FFFFFF;" version="1.1" viewBox="0 0 816 456" width="816px" zoomAndPan="magnify"><defs/><g><!--class src.auto_pass.envfile.EnvFileError--><g class="entity" data-qualified-name="src.auto_pass.envfile.EnvFileError" data-source-line="2" id="ent0002"><rect fill="#F1F1F1" height="48" rx="2.5" ry="2.5" style="stroke:#181818;stroke-width:0.5;" width="111.5337" x="87.58" y="92.81"/><ellipse cx="102.58" cy="108.81" fill="#ADD1B2" rx="11" ry="11" style="stroke:#181818;stroke-width:1;"/><path d="M102.6894,104.3413 Q101.7675,104.3413 101.0331,104.6538 Q100.3144,104.9663 99.8144,105.56 Q99.3144,106.1381 99.0331,107.0131 Q98.7675,107.8881 98.7675,108.9819 Q98.7675,110.4194 99.205,111.4663 Q99.6581,112.5131 100.5019,113.06 Q101.3613,113.6069 102.6738,113.6069 Q103.455,113.6069 104.1425,113.4819 Q104.8456,113.3413 105.8456,113.0288 L105.8456,114.9038 Q104.9863,115.2319 104.2206,115.3569 Q103.4706,115.4819 102.455,115.4819 Q100.5331,115.4819 99.2206,114.685 Q97.9238,113.8725 97.2675,112.4038 Q96.6113,110.9194 96.6113,108.9506 Q96.6113,107.5288 97.0019,106.3569 Q97.4081,105.1694 98.1894,104.2944 Q98.9706,103.4194 100.1113,102.9506 Q101.2519,102.4663 102.7206,102.4663 Q103.6738,102.4663 104.5644,102.6694 Q105.4706,102.8569 106.4081,103.3256 L105.58,105.1069 Q104.7988,104.7319 104.1425,104.5444 Q103.4863,104.3413 102.6894,104.3413 Z " fill="#000000"/><text fill="#FF0000" font-family="sans-serif" font-size="14" lengthAdjust="spacing" textLength="79.5337" x="116.58" y="114.242">EnvFileError</text><line style="stroke:#181818;stroke-width:0.5;" x1="88.58" x2="198.1137" y1="124.81" y2="124.81"/><line style="stroke:#181818;stroke-width:0.5;" x1="88.58" x2="198.1137" y1="132.81" y2="132.81"/></g><!--class src.auto_pass.keepassxc.KeepassCommandError--><g class="entity" data-qualified-name="src.auto_pass.keepassxc.KeepassCommandError" data-source-line="4" id="ent0003"><rect fill="#F1F1F1" height="48" rx="2.5" ry="2.5" style="stroke:#181818;stroke-width:0.5;" width="188.5474" x="234.08" y="92.81"/><ellipse cx="249.08" cy="108.81" fill="#ADD1B2" rx="11" ry="11" style="stroke:#181818;stroke-width:1;"/><path d="M249.1894,104.3413 Q248.2675,104.3413 247.5331,104.6538 Q246.8144,104.9663 246.3144,105.56 Q245.8144,106.1381 245.5331,107.0131 Q245.2675,107.8881 245.2675,108.9819 Q245.2675,110.4194 245.705,111.4663 Q246.1581,112.5131 247.0019,113.06 Q247.8613,113.6069 249.1738,113.6069 Q249.955,113.6069 250.6425,113.4819 Q251.3456,113.3413 252.3456,113.0288 L252.3456,114.9038 Q251.4863,115.2319 250.7206,115.3569 Q249.9706,115.4819 248.955,115.4819 Q247.0331,115.4819 245.7206,114.685 Q244.4238,113.8725 243.7675,112.4038 Q243.1113,110.9194 243.1113,108.9506 Q243.1113,107.5288 243.5019,106.3569 Q243.9081,105.1694 244.6894,104.2944 Q245.4706,103.4194 246.6113,102.9506 Q247.7519,102.4663 249.2206,102.4663 Q250.1738,102.4663 251.0644,102.6694 Q251.9706,102.8569 252.9081,103.3256 L252.08,105.1069 Q251.2988,104.7319 250.6425,104.5444 Q249.9863,104.3413 249.1894,104.3413 Z " fill="#000000"/><text fill="#FF0000" font-family="sans-serif" font-size="14" lengthAdjust="spacing" textLength="156.5474" x="263.08" y="114.242">KeepassCommandError</text><line style="stroke:#181818;stroke-width:0.5;" x1="235.08" x2="421.6274" y1="124.81" y2="124.81"/><line style="stroke:#181818;stroke-width:0.5;" x1="235.08" x2="421.6274" y1="132.81" y2="132.81"/></g><!--class src.auto_pass.keepassxc.KeepassXCStoreConfig--><g class="entity" data-qualified-name="src.auto_pass.keepassxc.KeepassXCStoreConfig" data-source-line="6" id="ent0004"><rect fill="#F1F1F1" height="219.6113" rx="2.5" ry="2.5" style="stroke:#181818;stroke-width:0.5;" width="312.9429" x="457.88" y="7"/><ellipse cx="535.4607" cy="23" fill="#ADD1B2" rx="11" ry="11" style="stroke:#181818;stroke-width:1;"/><path d="M535.5701,18.5313 Q534.6482,18.5313 533.9139,18.8438 Q533.1951,19.1563 532.6951,19.75 Q532.1951,20.3281 531.9139,21.2031 Q531.6482,22.0781 531.6482,23.1719 Q531.6482,24.6094 532.0857,25.6563 Q532.5389,26.7031 533.3826,27.25 Q534.242,27.7969 535.5545,27.7969 Q536.3357,27.7969 537.0232,27.6719 Q537.7264,27.5313 538.7264,27.2188 L538.7264,29.0938 Q537.867,29.4219 537.1014,29.5469 Q536.3514,29.6719 535.3357,29.6719 Q533.4139,29.6719 532.1014,28.875 Q530.8045,28.0625 530.1482,26.5938 Q529.492,25.1094 529.492,23.1406 Q529.492,21.7188 529.8826,20.5469 Q530.2889,19.3594 531.0701,18.4844 Q531.8514,17.6094 532.992,17.1406 Q534.1326,16.6563 535.6014,16.6563 Q536.5545,16.6563 537.4451,16.8594 Q538.3514,17.0469 539.2889,17.5156 L538.4607,19.2969 Q537.6795,18.9219 537.0232,18.7344 Q536.367,18.5313 535.5701,18.5313 Z " fill="#000000"/><text fill="#000000" font-family="sans-serif" font-size="14" lengthAdjust="spacing" textLength="149.2814" x="555.9607" y="28.432">KeepassXCStoreConfig</text><line style="stroke:#181818;stroke-width:0.5;" x1="458.88" x2="769.8229" y1="39" y2="39"/><text fill="#000000" font-family="sans-serif" font-size="14" lengthAdjust="spacing" textLength="143.8914" x="463.88" y="57.9659">database_key_file : str</text><text fill="#000000" font-family="sans-serif" font-size="14" lengthAdjust="spacing" textLength="285.8649" x="463.88" y="77.0339">database_key_file_env_names : tuple[str, ...]</text><text fill="#000000" font-family="sans-serif" font-size="14" lengthAdjust="spacing" textLength="227.2472" x="463.88" y="96.1018">database_password_cache_dir : str</text><text fill="#000000" font-family="sans-serif" font-size="14" lengthAdjust="spacing" textLength="273.993" x="463.88" y="115.1697">database_password_cache_enabled : bool</text><text fill="#000000" font-family="sans-serif" font-size="14" lengthAdjust="spacing" textLength="229.1791" x="463.88" y="134.2376">database_password_cache_file : str</text><text fill="#000000" font-family="sans-serif" font-size="14" lengthAdjust="spacing" textLength="282.7149" x="463.88" y="153.3055">database_password_cache_ttl_seconds : int</text><text fill="#000000" font-family="sans-serif" font-size="14" lengthAdjust="spacing" textLength="300.9429" x="463.88" y="172.3734">database_password_env_names : tuple[str, ...]</text><text fill="#000000" font-family="sans-serif" font-size="14" lengthAdjust="spacing" textLength="125.3976" x="463.88" y="191.4414">database_path : str</text><text fill="#000000" font-family="sans-serif" font-size="14" lengthAdjust="spacing" textLength="267.371" x="463.88" y="210.5093">database_path_env_names : tuple[str, ...]</text><line style="stroke:#181818;stroke-width:0.5;" x1="458.88" x2="769.8229" y1="218.6113" y2="218.6113"/></g><!--class src.auto_pass.notifications.PasswordRetrievalNotificationConfig--><g class="entity" data-qualified-name="src.auto_pass.notifications.PasswordRetrievalNotificationConfig" data-source-line="17" id="ent0005"><rect fill="#F1F1F1" height="162.4075" rx="2.5" ry="2.5" style="stroke:#181818;stroke-width:0.5;" width="272.7011" x="7" y="286.61"/><ellipse cx="22" cy="302.61" fill="#ADD1B2" rx="11" ry="11" style="stroke:#181818;stroke-width:1;"/><path d="M22.1094,298.1413 Q21.1875,298.1413 20.4531,298.4538 Q19.7344,298.7663 19.2344,299.36 Q18.7344,299.9381 18.4531,300.8131 Q18.1875,301.6881 18.1875,302.7819 Q18.1875,304.2194 18.625,305.2663 Q19.0781,306.3131 19.9219,306.86 Q20.7813,307.4069 22.0938,307.4069 Q22.875,307.4069 23.5625,307.2819 Q24.2656,307.1413 25.2656,306.8288 L25.2656,308.7038 Q24.4063,309.0319 23.6406,309.1569 Q22.8906,309.2819 21.875,309.2819 Q19.9531,309.2819 18.6406,308.485 Q17.3438,307.6725 16.6875,306.2038 Q16.0313,304.7194 16.0313,302.7506 Q16.0313,301.3288 16.4219,300.1569 Q16.8281,298.9694 17.6094,298.0944 Q18.3906,297.2194 19.5313,296.7506 Q20.6719,296.2663 22.1406,296.2663 Q23.0938,296.2663 23.9844,296.4694 Q24.8906,296.6569 25.8281,297.1256 L25,298.9069 Q24.2188,298.5319 23.5625,298.3444 Q22.9063,298.1413 22.1094,298.1413 Z " fill="#000000"/><text fill="#000000" font-family="sans-serif" font-size="14" lengthAdjust="spacing" textLength="240.7011" x="36" y="308.042">PasswordRetrievalNotificationConfig</text><line style="stroke:#181818;stroke-width:0.5;" x1="8" x2="278.7011" y1="318.61" y2="318.61"/><text fill="#000000" font-family="sans-serif" font-size="14" lengthAdjust="spacing" textLength="160.6074" x="13" y="337.5759">email_config_path : Path</text><text fill="#000000" font-family="sans-serif" font-size="14" lengthAdjust="spacing" textLength="84.3777" x="13" y="356.6439">email_to : str</text><text fill="#000000" font-family="sans-serif" font-size="14" lengthAdjust="spacing" textLength="151.5774" x="13" y="375.7118">shock_relay_root : Path</text><text fill="#000000" font-family="sans-serif" font-size="14" lengthAdjust="spacing" textLength="163.5894" x="13" y="394.7797">signal_config_path : Path</text><text fill="#000000" font-family="sans-serif" font-size="14" lengthAdjust="spacing" textLength="87.3597" x="13" y="413.8476">signal_to : str</text><text fill="#000000" font-family="sans-serif" font-size="14" lengthAdjust="spacing" textLength="120.1615" x="13" y="432.9155">subject_prefix : str</text><line style="stroke:#181818;stroke-width:0.5;" x1="8" x2="278.7011" y1="441.0175" y2="441.0175"/></g><!--class src.auto_pass.notifications.PasswordRetrievalNotificationError--><g class="entity" data-qualified-name="src.auto_pass.notifications.PasswordRetrievalNotificationError" data-source-line="25" id="ent0006"><rect fill="#F1F1F1" height="48" rx="2.5" ry="2.5" style="stroke:#181818;stroke-width:0.5;" width="263.2931" x="314.7" y="343.82"/><ellipse cx="329.7" cy="359.82" fill="#ADD1B2" rx="11" ry="11" style="stroke:#181818;stroke-width:1;"/><path d="M329.8094,355.3513 Q328.8875,355.3513 328.1531,355.6638 Q327.4344,355.9763 326.9344,356.57 Q326.4344,357.1481 326.1531,358.0231 Q325.8875,358.8981 325.8875,359.9919 Q325.8875,361.4294 326.325,362.4763 Q326.7781,363.5231 327.6219,364.07 Q328.4813,364.6169 329.7938,364.6169 Q330.575,364.6169 331.2625,364.4919 Q331.9656,364.3513 332.9656,364.0388 L332.9656,365.9138 Q332.1063,366.2419 331.3406,366.3669 Q330.5906,366.4919 329.575,366.4919 Q327.6531,366.4919 326.3406,365.695 Q325.0438,364.8825 324.3875,363.4138 Q323.7313,361.9294 323.7313,359.9606 Q323.7313,358.5388 324.1219,357.3669 Q324.5281,356.1794 325.3094,355.3044 Q326.0906,354.4294 327.2313,353.9606 Q328.3719,353.4763 329.8406,353.4763 Q330.7938,353.4763 331.6844,353.6794 Q332.5906,353.8669 333.5281,354.3356 L332.7,356.1169 Q331.9188,355.7419 331.2625,355.5544 Q330.6063,355.3513 329.8094,355.3513 Z " fill="#000000"/><text fill="#FF0000" font-family="sans-serif" font-size="14" lengthAdjust="spacing" textLength="231.2931" x="343.7" y="365.252">PasswordRetrievalNotificationError</text><line style="stroke:#181818;stroke-width:0.5;" x1="315.7" x2="576.9931" y1="375.82" y2="375.82"/><line style="stroke:#181818;stroke-width:0.5;" x1="315.7" x2="576.9931" y1="383.82" y2="383.82"/></g><!--class src.auto_pass.keepassxc.ResolvedKeepassContext--><g class="entity" data-qualified-name="src.auto_pass.keepassxc.ResolvedKeepassContext" data-source-line="27" id="ent0007"><rect fill="#F1F1F1" height="143.3396" rx="2.5" ry="2.5" style="stroke:#181818;stroke-width:0.5;" width="196.7234" x="612.99" y="296.15"/><ellipse cx="627.99" cy="312.15" fill="#ADD1B2" rx="11" ry="11" style="stroke:#181818;stroke-width:1;"/><path d="M628.0994,307.6813 Q627.1775,307.6813 626.4431,307.9938 Q625.7244,308.3063 625.2244,308.9 Q624.7244,309.4781 624.4431,310.3531 Q624.1775,311.2281 624.1775,312.3219 Q624.1775,313.7594 624.615,314.8063 Q625.0681,315.8531 625.9119,316.4 Q626.7713,316.9469 628.0838,316.9469 Q628.865,316.9469 629.5525,316.8219 Q630.2556,316.6813 631.2556,316.3688 L631.2556,318.2438 Q630.3963,318.5719 629.6306,318.6969 Q628.8806,318.8219 627.865,318.8219 Q625.9431,318.8219 624.6306,318.025 Q623.3338,317.2125 622.6775,315.7438 Q622.0213,314.2594 622.0213,312.2906 Q622.0213,310.8688 622.4119,309.6969 Q622.8181,308.5094 623.5994,307.6344 Q624.3806,306.7594 625.5213,306.2906 Q626.6619,305.8063 628.1306,305.8063 Q629.0838,305.8063 629.9744,306.0094 Q630.8806,306.1969 631.8181,306.6656 L630.99,308.4469 Q630.2088,308.0719 629.5525,307.8844 Q628.8963,307.6813 628.0994,307.6813 Z " fill="#000000"/><text fill="#000000" font-family="sans-serif" font-size="14" lengthAdjust="spacing" textLength="164.7234" x="641.99" y="317.582">ResolvedKeepassContext</text><line style="stroke:#181818;stroke-width:0.5;" x1="613.99" x2="808.7134" y1="328.15" y2="328.15"/><text fill="#000000" font-family="sans-serif" font-size="14" lengthAdjust="spacing" textLength="115.7516" x="618.99" y="347.1159">db_password : str</text><text fill="#000000" font-family="sans-serif" font-size="14" lengthAdjust="spacing" textLength="82.1797" x="618.99" y="366.1839">db_path : str</text><text fill="#000000" font-family="sans-serif" font-size="14" lengthAdjust="spacing" textLength="166.7113" x="618.99" y="385.2518">interactive_allowed : bool</text><text fill="#000000" font-family="sans-serif" font-size="14" lengthAdjust="spacing" textLength="77.2377" x="618.99" y="404.3197">key_file : str</text><text fill="#000000" font-family="sans-serif" font-size="14" lengthAdjust="spacing" textLength="165.8994" x="618.99" y="423.3876">password_env_name : str</text><line style="stroke:#181818;stroke-width:0.5;" x1="613.99" x2="808.7134" y1="431.4896" y2="431.4896"/></g><?plantuml-src bPDDRy8m38Rl-nKHvwcx8yG5iSka2S5bqZH5RkhIZ11NYIcWQVzzQIcbqFAnKwJuyMixyUkHXOKr-XmKBZ071qnEMBBuf0nuBmOZHORSq64odjhYLHkSEaTkz5BTZmS2lF1EHR1Xadb8YT0MQS2YDYv-ddvx5DyGovG9hTTWatl2gmEzKr5FNhj27VwOBC8qE26RwkKZUcS9GL2811XYy2XNk9VbL68eFBk-Y0npo-en0yERtE1d89z554LVRRuij2MNI0KgGvberzMyOD12R309N4naRe3z7Lv0p4PwL6IJibDjkPTzU1hE-YfoTbEX-QfPNM-Ex3GMODw9TQeLi2PxzUTi2_BH0nhLP-8Qj96gkZWsFWj74s9gHl4PgPLqQ60l7H6VKA-N5gx8rB6spYR-HiKoTvZgNNtTPuMRGznpnZ_UesEMENeo1IQDfopZZc_QfJ_bO9YuMQ7JMiJdQn9M3XqerWLAC8QsxTNk6AspaST7_0C0?></g></svg>
