<?xml version="1.0" encoding="UTF-8" standalone="no"?>
<!DOCTYPE svg PUBLIC "-//W3C//DTD SVG 1.1//EN"
 "http://www.w3.org/Graphics/SVG/1.1/DTD/svg11.dtd">
<!-- Generated by graphviz version 13.1.2 (20250808.2320)
 -->
<!-- Title: G Pages: 1 -->
<svg width="663pt" height="531pt"
 viewBox="0.00 0.00 663.00 531.00" xmlns="http://www.w3.org/2000/svg" xmlns:xlink="http://www.w3.org/1999/xlink">
<g id="graph0" class="graph" transform="scale(1 1) rotate(0) translate(4 526.76)">
<title>G</title><style>.edge>path:hover{stroke-width:8}</style>
<polygon fill="white" stroke="none" points="-4,4 -4,-526.76 658.92,-526.76 658.92,4 -4,4"/>
<!-- auto_pass -->
<g id="node1" class="node">
<title>auto_pass</title><style>.edge>path:hover{stroke-width:8}</style>
<ellipse fill="#a44646" stroke="black" cx="68.25" cy="-425.24" rx="35.55" ry="18"/>
<text xml:space="preserve" text-anchor="middle" x="68.25" y="-420.99" font-family="Helvetica,sans-Serif" font-size="10.00" fill="#ffffff">auto_pass</text>
</g>
<!-- auto_pass___main__ -->
<g id="node2" class="node">
<title>auto_pass___main__</title><style>.edge>path:hover{stroke-width:8}</style>
<ellipse fill="#b34c4c" stroke="black" cx="501.25" cy="-20.51" rx="45.25" ry="20.51"/>
<text xml:space="preserve" text-anchor="middle" x="501.25" y="-21.51" font-family="Helvetica,sans-Serif" font-size="10.00" fill="#ffffff">auto_pass.</text>
<text xml:space="preserve" text-anchor="middle" x="501.25" y="-11.01" font-family="Helvetica,sans-Serif" font-size="10.00" fill="#ffffff">__main__</text>
</g>
<!-- auto_pass_allowlist -->
<g id="node3" class="node">
<title>auto_pass_allowlist</title><style>.edge>path:hover{stroke-width:8}</style>
<ellipse fill="#db2f2f" stroke="black" cx="504.25" cy="-502.25" rx="45.25" ry="20.51"/>
<text xml:space="preserve" text-anchor="middle" x="504.25" y="-503.25" font-family="Helvetica,sans-Serif" font-size="10.00" fill="#ffffff">auto_pass.</text>
<text xml:space="preserve" text-anchor="middle" x="504.25" y="-492.75" font-family="Helvetica,sans-Serif" font-size="10.00" fill="#ffffff">allowlist</text>
</g>
<!-- auto_pass_cli -->
<g id="node4" class="node">
<title>auto_pass_cli</title><style>.edge>path:hover{stroke-width:8}</style>
<ellipse fill="#7a2828" stroke="black" cx="501.25" cy="-95.01" rx="42.99" ry="18"/>
<text xml:space="preserve" text-anchor="middle" x="501.25" y="-90.76" font-family="Helvetica,sans-Serif" font-size="10.00" fill="#ffffff">auto_pass.cli</text>
</g>
<!-- auto_pass_allowlist&#45;&gt;auto_pass_cli -->
<g id="edge1" class="edge">
<title>auto_pass_allowlist&#45;&gt;auto_pass_cli</title><style>.edge>path:hover{stroke-width:8}</style>
<path fill="none" stroke="black" d="M549.25,-424.24C568.12,-383.66 609,-406.34 633.25,-368.74 662.23,-323.8 652.61,-303.41 652.25,-249.94"/>
</g>
<!-- auto_pass_server -->
<g id="node10" class="node">
<title>auto_pass_server</title><style>.edge>path:hover{stroke-width:8}</style>
<ellipse fill="#bc2f2f" stroke="black" cx="438.25" cy="-425.24" rx="45.25" ry="20.51"/>
<text xml:space="preserve" text-anchor="middle" x="438.25" y="-426.24" font-family="Helvetica,sans-Serif" font-size="10.00" fill="#ffffff">auto_pass.</text>
<text xml:space="preserve" text-anchor="middle" x="438.25" y="-415.74" font-family="Helvetica,sans-Serif" font-size="10.00" fill="#ffffff">server</text>
</g>
<!-- auto_pass_allowlist&#45;&gt;auto_pass_server -->
<g id="edge2" class="edge">
<title>auto_pass_allowlist&#45;&gt;auto_pass_server</title><style>.edge>path:hover{stroke-width:8}</style>
<path fill="none" stroke="black" d="M487.94,-482.71C480.17,-473.88 470.72,-463.13 462.15,-453.4"/>
<polygon fill="#db2f2f" stroke="black" points="464.84,-451.16 455.61,-445.97 459.59,-455.79 464.84,-451.16"/>
</g>
<!-- auto_pass_web_app -->
<g id="node12" class="node">
<title>auto_pass_web_app</title><style>.edge>path:hover{stroke-width:8}</style>
<ellipse fill="#993333" stroke="black" cx="424.25" cy="-248.94" rx="45.25" ry="27.93"/>
<text xml:space="preserve" text-anchor="middle" x="424.25" y="-255.19" font-family="Helvetica,sans-Serif" font-size="10.00" fill="#ffffff">auto_pass.</text>
<text xml:space="preserve" text-anchor="middle" x="424.25" y="-244.69" font-family="Helvetica,sans-Serif" font-size="10.00" fill="#ffffff">web.</text>
<text xml:space="preserve" text-anchor="middle" x="424.25" y="-234.19" font-family="Helvetica,sans-Serif" font-size="10.00" fill="#ffffff">app</text>
</g>
<!-- auto_pass_allowlist&#45;&gt;auto_pass_web_app -->
<g id="edge3" class="edge">
<title>auto_pass_allowlist&#45;&gt;auto_pass_web_app</title><style>.edge>path:hover{stroke-width:8}</style>
<path fill="none" stroke="black" d="M517.27,-482.13C526.95,-467.33 540.04,-446.07 549.25,-426.24"/>
<path fill="none" stroke="black" d="M549.25,-424.24C557.96,-405.5 515.85,-360.1 506.25,-341.8"/>
</g>
<!-- auto_pass_cli&#45;&gt;auto_pass___main__ -->
<g id="edge4" class="edge">
<title>auto_pass_cli&#45;&gt;auto_pass___main__</title><style>.edge>path:hover{stroke-width:8}</style>
<path fill="none" stroke="black" d="M501.25,-76.83C501.25,-69.6 501.25,-60.96 501.25,-52.67"/>
<polygon fill="#7a2828" stroke="black" points="504.75,-52.9 501.25,-42.9 497.75,-52.9 504.75,-52.9"/>
</g>
<!-- auto_pass_client -->
<g id="node5" class="node">
<title>auto_pass_client</title><style>.edge>path:hover{stroke-width:8}</style>
<ellipse fill="#ce3b3b" stroke="black" cx="292.25" cy="-425.24" rx="45.25" ry="20.51"/>
<text xml:space="preserve" text-anchor="middle" x="292.25" y="-426.24" font-family="Helvetica,sans-Serif" font-size="10.00" fill="#ffffff">auto_pass.</text>
<text xml:space="preserve" text-anchor="middle" x="292.25" y="-415.74" font-family="Helvetica,sans-Serif" font-size="10.00" fill="#ffffff">client</text>
</g>
<!-- auto_pass_client&#45;&gt;auto_pass_cli -->
<g id="edge5" class="edge">
<title>auto_pass_client&#45;&gt;auto_pass_cli</title><style>.edge>path:hover{stroke-width:8}</style>
<path fill="none" stroke="black" d="M265.63,-408.59C241.04,-392.13 210.76,-365.37 228.25,-341.8"/>
</g>
<!-- auto_pass_client&#45;&gt;auto_pass_web_app -->
<g id="edge6" class="edge">
<title>auto_pass_client&#45;&gt;auto_pass_web_app</title><style>.edge>path:hover{stroke-width:8}</style>
<path fill="none" stroke="black" d="M296.68,-404.43C302.73,-380.74 315.4,-340.79 337.25,-312.87 349.15,-297.68 365.65,-284.48 381.09,-274.16"/>
<polygon fill="#ce3b3b" stroke="black" points="382.72,-277.27 389.24,-268.92 378.93,-271.38 382.72,-277.27"/>
</g>
<!-- auto_pass_dbindex -->
<g id="node6" class="node">
<title>auto_pass_dbindex</title><style>.edge>path:hover{stroke-width:8}</style>
<ellipse fill="#db2f2f" stroke="black" cx="154.25" cy="-502.25" rx="45.25" ry="20.51"/>
<text xml:space="preserve" text-anchor="middle" x="154.25" y="-503.25" font-family="Helvetica,sans-Serif" font-size="10.00" fill="#ffffff">auto_pass.</text>
<text xml:space="preserve" text-anchor="middle" x="154.25" y="-492.75" font-family="Helvetica,sans-Serif" font-size="10.00" fill="#ffffff">dbindex</text>
</g>
<!-- auto_pass_dbindex&#45;&gt;auto_pass -->
<g id="edge7" class="edge">
<title>auto_pass_dbindex&#45;&gt;auto_pass</title><style>.edge>path:hover{stroke-width:8}</style>
<path fill="none" stroke="black" d="M133.87,-483.48C121.93,-473.06 106.73,-459.8 93.96,-448.67"/>
<polygon fill="#db2f2f" stroke="black" points="96.56,-446.29 86.73,-442.35 91.96,-451.56 96.56,-446.29"/>
</g>
<!-- auto_pass_dbindex&#45;&gt;auto_pass_cli -->
<g id="edge8" class="edge">
<title>auto_pass_dbindex&#45;&gt;auto_pass_cli</title><style>.edge>path:hover{stroke-width:8}</style>
<path fill="none" stroke="black" d="M148.63,-481.7C143.91,-461.41 139.62,-429.27 151.25,-404.74 170.19,-364.8 201.51,-376.99 228.25,-341.8"/>
</g>
<!-- auto_pass_dbindex&#45;&gt;auto_pass_server -->
<g id="edge9" class="edge">
<title>auto_pass_dbindex&#45;&gt;auto_pass_server</title><style>.edge>path:hover{stroke-width:8}</style>
<path fill="none" stroke="black" d="M192.85,-491.06C243.65,-477.64 333,-454.04 388.73,-439.32"/>
<polygon fill="#db2f2f" stroke="black" points="389.5,-442.74 398.28,-436.8 387.72,-435.97 389.5,-442.74"/>
</g>
<!-- auto_pass_envfile -->
<g id="node7" class="node">
<title>auto_pass_envfile</title><style>.edge>path:hover{stroke-width:8}</style>
<ellipse fill="#db2f2f" stroke="black" cx="45.25" cy="-502.25" rx="45.25" ry="20.51"/>
<text xml:space="preserve" text-anchor="middle" x="45.25" y="-503.25" font-family="Helvetica,sans-Serif" font-size="10.00" fill="#ffffff">auto_pass.</text>
<text xml:space="preserve" text-anchor="middle" x="45.25" y="-492.75" font-family="Helvetica,sans-Serif" font-size="10.00" fill="#ffffff">envfile</text>
</g>
<!-- auto_pass_envfile&#45;&gt;auto_pass -->
<g id="edge10" class="edge">
<title>auto_pass_envfile&#45;&gt;auto_pass</title><style>.edge>path:hover{stroke-width:8}</style>
<path fill="none" stroke="black" d="M51.3,-481.54C53.84,-473.24 56.85,-463.43 59.63,-454.39"/>
<polygon fill="#db2f2f" stroke="black" points="62.93,-455.55 62.51,-444.97 56.24,-453.5 62.93,-455.55"/>
</g>
<!-- auto_pass_envfile&#45;&gt;auto_pass_cli -->
<g id="edge11" class="edge">
<title>auto_pass_envfile&#45;&gt;auto_pass_cli</title><style>.edge>path:hover{stroke-width:8}</style>
<path fill="none" stroke="black" d="M32.72,-482.36C20.58,-461.45 6.3,-427.68 23.25,-404.74 79.9,-328.09 171.8,-418.59 228.25,-341.8"/>
<path fill="none" stroke="black" d="M228.25,-339.8C267.47,-284.62 331.57,-314.72 351.25,-249.94"/>
<path fill="none" stroke="black" d="M351.25,-247.94C361.58,-213.95 339,-201.36 351.25,-168.01"/>
<path fill="none" stroke="black" d="M351.25,-166.01C365.54,-127.14 411.26,-109.85 448.51,-102.16"/>
<polygon fill="#db2f2f" stroke="black" points="449.08,-105.62 458.27,-100.35 447.8,-98.74 449.08,-105.62"/>
</g>
<!-- auto_pass_notifications -->
<g id="node9" class="node">
<title>auto_pass_notifications</title><style>.edge>path:hover{stroke-width:8}</style>
<polygon fill="blue" stroke="black" points="228.5,-443.24 160,-443.24 160,-407.24 228.5,-407.24 228.5,-443.24"/>
<text xml:space="preserve" text-anchor="middle" x="194.25" y="-426.24" font-family="Helvetica,sans-Serif" font-size="10.00" fill="white">auto_pass.</text>
<text xml:space="preserve" text-anchor="middle" x="194.25" y="-415.74" font-family="Helvetica,sans-Serif" font-size="10.00" fill="white">notifications</text>
</g>
<!-- auto_pass_envfile&#45;&gt;auto_pass_notifications -->
<g id="edge12" class="edge">
<title>auto_pass_envfile&#45;&gt;auto_pass_notifications</title><style>.edge>path:hover{stroke-width:8}</style>
<path fill="none" stroke="black" d="M74.69,-486.43C96.06,-475.67 125.36,-460.92 149.61,-448.72"/>
<polygon fill="#db2f2f" stroke="black" points="150.94,-451.97 158.3,-444.34 147.79,-445.71 150.94,-451.97"/>
</g>
<!-- auto_pass_keepassxc -->
<g id="node8" class="node">
<title>auto_pass_keepassxc</title><style>.edge>path:hover{stroke-width:8}</style>
<polygon fill="blue" stroke="black" points="397.25,-520.25 333.25,-520.25 333.25,-484.25 397.25,-484.25 397.25,-520.25"/>
<text xml:space="preserve" text-anchor="middle" x="365.25" y="-503.25" font-family="Helvetica,sans-Serif" font-size="10.00" fill="white">auto_pass.</text>
<text xml:space="preserve" text-anchor="middle" x="365.25" y="-492.75" font-family="Helvetica,sans-Serif" font-size="10.00" fill="white">keepassxc</text>
</g>
<!-- auto_pass_keepassxc&#45;&gt;auto_pass -->
<g id="edge13" class="edge">
<title>auto_pass_keepassxc&#45;&gt;auto_pass</title><style>.edge>path:hover{stroke-width:8}</style>
<path fill="none" stroke="black" d="M332.91,-493.08C278.95,-479.46 170.61,-452.09 110.63,-436.94"/>
<polygon fill="blue" stroke="black" points="111.69,-433.6 101.14,-434.55 109.97,-440.39 111.69,-433.6"/>
</g>
<!-- auto_pass_keepassxc&#45;&gt;auto_pass_cli -->
<g id="edge14" class="edge">
<title>auto_pass_keepassxc&#45;&gt;auto_pass_cli</title><style>.edge>path:hover{stroke-width:8}</style>
<path fill="none" stroke="black" d="M366.11,-483.79C366.25,-462.97 363.54,-428.06 346.25,-404.74 310.87,-356.98 192.83,-389.53 228.25,-341.8"/>
</g>
<!-- auto_pass_keepassxc&#45;&gt;auto_pass_notifications -->
<g id="edge15" class="edge">
<title>auto_pass_keepassxc&#45;&gt;auto_pass_notifications</title><style>.edge>path:hover{stroke-width:8}</style>
<path fill="none" stroke="black" d="M322.42,-482.6C300.1,-472.86 272.11,-460.63 239.2,-446.16"/>
<polygon fill="blue" stroke="black" points="320.92,-485.76 331.48,-486.55 323.72,-479.35 320.92,-485.76"/>
<polygon fill="blue" stroke="black" points="240.78,-443.03 230.22,-442.2 237.96,-449.43 240.78,-443.03"/>
</g>
<!-- auto_pass_keepassxc&#45;&gt;auto_pass_server -->
<g id="edge16" class="edge">
<title>auto_pass_keepassxc&#45;&gt;auto_pass_server</title><style>.edge>path:hover{stroke-width:8}</style>
<path fill="none" stroke="black" d="M382.19,-483.86C391.29,-474.5 402.71,-462.77 412.85,-452.34"/>
<polygon fill="blue" stroke="black" points="415.13,-455.02 419.6,-445.41 410.12,-450.14 415.13,-455.02"/>
</g>
<!-- auto_pass_keepassxc&#45;&gt;auto_pass_web_app -->
<g id="edge17" class="edge">
<title>auto_pass_keepassxc&#45;&gt;auto_pass_web_app</title><style>.edge>path:hover{stroke-width:8}</style>
<path fill="none" stroke="black" d="M397.62,-496.24C427.16,-489.86 469.58,-475.81 492.25,-445.75 520.33,-408.54 528.72,-382.65 506.25,-341.8"/>
<path fill="none" stroke="black" d="M506.25,-339.8C494.37,-317.14 475.37,-295.8 458.65,-279.6"/>
<polygon fill="blue" stroke="black" points="461.44,-277.43 451.76,-273.12 456.64,-282.53 461.44,-277.43"/>
</g>
<!-- auto_pass_notifications&#45;&gt;auto_pass_cli -->
<g id="edge18" class="edge">
<title>auto_pass_notifications&#45;&gt;auto_pass_cli</title><style>.edge>path:hover{stroke-width:8}</style>
<path fill="none" stroke="black" d="M198.69,-406.88C203.78,-389.26 213.4,-361.82 228.25,-341.8"/>
</g>
<!-- auto_pass_server&#45;&gt;auto_pass_cli -->
<g id="edge20" class="edge">
<title>auto_pass_server&#45;&gt;auto_pass_cli</title><style>.edge>path:hover{stroke-width:8}</style>
<path fill="none" stroke="black" d="M409.22,-409.24C386.54,-395.38 357.79,-372.32 351.25,-341.8"/>
<path fill="none" stroke="black" d="M351.25,-339.8C342.89,-300.75 339.64,-288.16 351.25,-249.94"/>
</g>
<!-- auto_pass_server&#45;&gt;auto_pass_web_app -->
<g id="edge21" class="edge">
<title>auto_pass_server&#45;&gt;auto_pass_web_app</title><style>.edge>path:hover{stroke-width:8}</style>
<path fill="none" stroke="black" d="M351.25,-339.8C345.89,-314.75 363.97,-292.37 383.47,-276.2"/>
<polygon fill="#bc2f2f" stroke="black" points="385.51,-279.06 391.26,-270.16 381.21,-273.53 385.51,-279.06"/>
</g>
<!-- auto_pass_web -->
<g id="node11" class="node">
<title>auto_pass_web</title><style>.edge>path:hover{stroke-width:8}</style>
<ellipse fill="#c24747" stroke="black" cx="501.25" cy="-167.01" rx="47.36" ry="18"/>
<text xml:space="preserve" text-anchor="middle" x="501.25" y="-162.76" font-family="Helvetica,sans-Serif" font-size="10.00" fill="#ffffff">auto_pass.web</text>
</g>
<!-- auto_pass_web&#45;&gt;auto_pass_cli -->
<g id="edge22" class="edge">
<title>auto_pass_web&#45;&gt;auto_pass_cli</title><style>.edge>path:hover{stroke-width:8}</style>
<path fill="none" stroke="black" d="M501.25,-148.71C501.25,-141.42 501.25,-132.74 501.25,-124.55"/>
<polygon fill="#c24747" stroke="black" points="504.75,-124.63 501.25,-114.63 497.75,-124.63 504.75,-124.63"/>
</g>
<!-- auto_pass_web_app&#45;&gt;auto_pass_cli -->
<g id="edge23" class="edge">
<title>auto_pass_web_app&#45;&gt;auto_pass_cli</title><style>.edge>path:hover{stroke-width:8}</style>
<path fill="none" stroke="black" d="M390.16,-230.62C366.87,-216.14 341.79,-193.77 351.25,-168.01"/>
</g>
<!-- auto_pass_web_audit -->
<g id="node13" class="node">
<title>auto_pass_web_audit</title><style>.edge>path:hover{stroke-width:8}</style>
<ellipse fill="#c24747" stroke="black" cx="424.25" cy="-340.8" rx="45.25" ry="27.93"/>
<text xml:space="preserve" text-anchor="middle" x="424.25" y="-347.05" font-family="Helvetica,sans-Serif" font-size="10.00" fill="#ffffff">auto_pass.</text>
<text xml:space="preserve" text-anchor="middle" x="424.25" y="-336.55" font-family="Helvetica,sans-Serif" font-size="10.00" fill="#ffffff">web.</text>
<text xml:space="preserve" text-anchor="middle" x="424.25" y="-326.05" font-family="Helvetica,sans-Serif" font-size="10.00" fill="#ffffff">audit</text>
</g>
<!-- auto_pass_web_audit&#45;&gt;auto_pass_web_app -->
<g id="edge24" class="edge">
<title>auto_pass_web_audit&#45;&gt;auto_pass_web_app</title><style>.edge>path:hover{stroke-width:8}</style>
<path fill="none" stroke="black" d="M424.25,-312.84C424.25,-305.18 424.25,-296.69 424.25,-288.48"/>
<polygon fill="#c24747" stroke="black" points="427.75,-288.71 424.25,-278.71 420.75,-288.71 427.75,-288.71"/>
</g>
<!-- auto_pass_web_auth -->
<g id="node14" class="node">
<title>auto_pass_web_auth</title><style>.edge>path:hover{stroke-width:8}</style>
<ellipse fill="#ce3b3b" stroke="black" cx="579.25" cy="-340.8" rx="45.25" ry="27.93"/>
<text xml:space="preserve" text-anchor="middle" x="579.25" y="-347.05" font-family="Helvetica,sans-Serif" font-size="10.00" fill="#ffffff">auto_pass.</text>
<text xml:space="preserve" text-anchor="middle" x="579.25" y="-336.55" font-family="Helvetica,sans-Serif" font-size="10.00" fill="#ffffff">web.</text>
<text xml:space="preserve" text-anchor="middle" x="579.25" y="-326.05" font-family="Helvetica,sans-Serif" font-size="10.00" fill="#ffffff">auth</text>
</g>
<!-- auto_pass_web_auth&#45;&gt;auto_pass_cli -->
<g id="edge25" class="edge">
<title>auto_pass_web_auth&#45;&gt;auto_pass_cli</title><style>.edge>path:hover{stroke-width:8}</style>
<path fill="none" stroke="black" d="M606.99,-318.55C625.32,-302.21 646.93,-277.78 652.25,-249.94"/>
<path fill="none" stroke="black" d="M652.25,-247.94C664.43,-184.31 590.1,-136.92 541.37,-113.14"/>
<polygon fill="#ce3b3b" stroke="black" points="543.01,-110.04 532.47,-108.93 540.02,-116.37 543.01,-110.04"/>
</g>
<!-- auto_pass_web_auth&#45;&gt;auto_pass_web_app -->
<g id="edge26" class="edge">
<title>auto_pass_web_auth&#45;&gt;auto_pass_web_app</title><style>.edge>path:hover{stroke-width:8}</style>
<path fill="none" stroke="black" d="M546.76,-320.97C523.41,-307.43 491.71,-289.05 466.41,-274.38"/>
<polygon fill="#ce3b3b" stroke="black" points="468.42,-271.5 458.01,-269.52 464.91,-277.56 468.42,-271.5"/>
</g>
</g>
</svg>
