<?xml version="1.0" encoding="UTF-8" standalone="no"?>
<!DOCTYPE svg PUBLIC "-//W3C//DTD SVG 1.1//EN"
 "http://www.w3.org/Graphics/SVG/1.1/DTD/svg11.dtd">
<!-- Generated by graphviz version 13.1.2 (20250808.2320)
 -->
<!-- Title: G Pages: 1 -->
<svg width="208pt" height="198pt"
 viewBox="0.00 0.00 208.00 198.00" xmlns="http://www.w3.org/2000/svg" xmlns:xlink="http://www.w3.org/1999/xlink">
<g id="graph0" class="graph" transform="scale(1 1) rotate(0) translate(4 194.02)">
<title>G</title><style>.edge>path:hover{stroke-width:8}</style>
<polygon fill="white" stroke="none" points="-4,4 -4,-194.02 203.51,-194.02 203.51,4 -4,4"/>
<!-- auto_pass -->
<g id="node1" class="node">
<title>auto_pass</title><style>.edge>path:hover{stroke-width:8}</style>
<ellipse fill="#ac4949" stroke="black" cx="51.25" cy="-95.01" rx="35.55" ry="18"/>
<text xml:space="preserve" text-anchor="middle" x="51.25" y="-90.76" font-family="Helvetica,sans-Serif" font-size="10.00" fill="#ffffff">auto_pass</text>
</g>
<!-- auto_pass___main__ -->
<g id="node2" class="node">
<title>auto_pass___main__</title><style>.edge>path:hover{stroke-width:8}</style>
<ellipse fill="#b34c4c" stroke="black" cx="151.25" cy="-20.51" rx="45.25" ry="20.51"/>
<text xml:space="preserve" text-anchor="middle" x="151.25" y="-21.51" font-family="Helvetica,sans-Serif" font-size="10.00" fill="#ffffff">auto_pass.</text>
<text xml:space="preserve" text-anchor="middle" x="151.25" y="-11.01" font-family="Helvetica,sans-Serif" font-size="10.00" fill="#ffffff">__main__</text>
</g>
<!-- auto_pass_cli -->
<g id="node3" class="node">
<title>auto_pass_cli</title><style>.edge>path:hover{stroke-width:8}</style>
<ellipse fill="#b83d3d" stroke="black" cx="151.25" cy="-95.01" rx="42.99" ry="18"/>
<text xml:space="preserve" text-anchor="middle" x="151.25" y="-90.76" font-family="Helvetica,sans-Serif" font-size="10.00" fill="#ffffff">auto_pass.cli</text>
</g>
<!-- auto_pass_cli&#45;&gt;auto_pass___main__ -->
<g id="edge1" class="edge">
<title>auto_pass_cli&#45;&gt;auto_pass___main__</title><style>.edge>path:hover{stroke-width:8}</style>
<path fill="none" stroke="black" d="M151.25,-76.83C151.25,-69.6 151.25,-60.96 151.25,-52.67"/>
<polygon fill="#b83d3d" stroke="black" points="154.75,-52.9 151.25,-42.9 147.75,-52.9 154.75,-52.9"/>
</g>
<!-- auto_pass_envfile -->
<g id="node4" class="node">
<title>auto_pass_envfile</title><style>.edge>path:hover{stroke-width:8}</style>
<ellipse fill="#ce3b3b" stroke="black" cx="45.25" cy="-169.52" rx="45.25" ry="20.51"/>
<text xml:space="preserve" text-anchor="middle" x="45.25" y="-170.52" font-family="Helvetica,sans-Serif" font-size="10.00" fill="#ffffff">auto_pass.</text>
<text xml:space="preserve" text-anchor="middle" x="45.25" y="-160.02" font-family="Helvetica,sans-Serif" font-size="10.00" fill="#ffffff">envfile</text>
</g>
<!-- auto_pass_envfile&#45;&gt;auto_pass -->
<g id="edge2" class="edge">
<title>auto_pass_envfile&#45;&gt;auto_pass</title><style>.edge>path:hover{stroke-width:8}</style>
<path fill="none" stroke="black" d="M46.89,-148.71C47.51,-141.27 48.22,-132.66 48.89,-124.58"/>
<polygon fill="#ce3b3b" stroke="black" points="52.36,-125.1 49.7,-114.84 45.38,-124.52 52.36,-125.1"/>
</g>
<!-- auto_pass_envfile&#45;&gt;auto_pass_cli -->
<g id="edge3" class="edge">
<title>auto_pass_envfile&#45;&gt;auto_pass_cli</title><style>.edge>path:hover{stroke-width:8}</style>
<path fill="none" stroke="black" d="M69.57,-151.88C84.7,-141.54 104.28,-128.14 120.48,-117.06"/>
<polygon fill="#ce3b3b" stroke="black" points="122.04,-120.24 128.32,-111.7 118.09,-114.46 122.04,-120.24"/>
</g>
<!-- auto_pass_keepassxc -->
<g id="node5" class="node">
<title>auto_pass_keepassxc</title><style>.edge>path:hover{stroke-width:8}</style>
<ellipse fill="#ce3b3b" stroke="black" cx="154.25" cy="-169.52" rx="45.25" ry="20.51"/>
<text xml:space="preserve" text-anchor="middle" x="154.25" y="-170.52" font-family="Helvetica,sans-Serif" font-size="10.00" fill="#ffffff">auto_pass.</text>
<text xml:space="preserve" text-anchor="middle" x="154.25" y="-160.02" font-family="Helvetica,sans-Serif" font-size="10.00" fill="#ffffff">keepassxc</text>
</g>
<!-- auto_pass_keepassxc&#45;&gt;auto_pass -->
<g id="edge4" class="edge">
<title>auto_pass_keepassxc&#45;&gt;auto_pass</title><style>.edge>path:hover{stroke-width:8}</style>
<path fill="none" stroke="black" d="M130.37,-151.7C115.6,-141.31 96.54,-127.89 80.83,-116.83"/>
<polygon fill="#ce3b3b" stroke="black" points="82.97,-114.06 72.78,-111.17 78.94,-119.78 82.97,-114.06"/>
</g>
<!-- auto_pass_keepassxc&#45;&gt;auto_pass_cli -->
<g id="edge5" class="edge">
<title>auto_pass_keepassxc&#45;&gt;auto_pass_cli</title><style>.edge>path:hover{stroke-width:8}</style>
<path fill="none" stroke="black" d="M153.44,-148.71C153.13,-141.27 152.77,-132.66 152.44,-124.58"/>
<polygon fill="#ce3b3b" stroke="black" points="155.94,-124.69 152.03,-114.85 148.95,-124.98 155.94,-124.69"/>
</g>
</g>
</svg>
