<?xml version="1.0" encoding="UTF-8" standalone="no"?>
<!DOCTYPE svg PUBLIC "-//W3C//DTD SVG 1.1//EN"
 "http://www.w3.org/Graphics/SVG/1.1/DTD/svg11.dtd">
<!-- Generated by graphviz version 13.1.2 (20250808.2320)
 -->
<!-- Title: G Pages: 1 -->
<svg width="715pt" height="531pt"
 viewBox="0.00 0.00 715.00 531.00" xmlns="http://www.w3.org/2000/svg" xmlns:xlink="http://www.w3.org/1999/xlink">
<g id="graph0" class="graph" transform="scale(1 1) rotate(0) translate(4 526.76)">
<title>G</title><style>.edge>path:hover{stroke-width:8}</style>
<polygon fill="white" stroke="none" points="-4,4 -4,-526.76 711.34,-526.76 711.34,4 -4,4"/>
<!-- auto_pass -->
<g id="node1" class="node">
<title>auto_pass</title><style>.edge>path:hover{stroke-width:8}</style>
<ellipse fill="#a44646" stroke="black" cx="510.25" cy="-425.24" rx="35.55" ry="18"/>
<text xml:space="preserve" text-anchor="middle" x="510.25" y="-420.99" font-family="Helvetica,sans-Serif" font-size="10.00" fill="#ffffff">auto_pass</text>
</g>
<!-- auto_pass___main__ -->
<g id="node2" class="node">
<title>auto_pass___main__</title><style>.edge>path:hover{stroke-width:8}</style>
<ellipse fill="#b34c4c" stroke="black" cx="431.25" cy="-20.51" rx="45.25" ry="20.51"/>
<text xml:space="preserve" text-anchor="middle" x="431.25" y="-21.51" font-family="Helvetica,sans-Serif" font-size="10.00" fill="#ffffff">auto_pass.</text>
<text xml:space="preserve" text-anchor="middle" x="431.25" y="-11.01" font-family="Helvetica,sans-Serif" font-size="10.00" fill="#ffffff">__main__</text>
</g>
<!-- auto_pass_allowlist -->
<g id="node3" class="node">
<title>auto_pass_allowlist</title><style>.edge>path:hover{stroke-width:8}</style>
<ellipse fill="#db2f2f" stroke="black" cx="45.25" cy="-502.25" rx="45.25" ry="20.51"/>
<text xml:space="preserve" text-anchor="middle" x="45.25" y="-503.25" font-family="Helvetica,sans-Serif" font-size="10.00" fill="#ffffff">auto_pass.</text>
<text xml:space="preserve" text-anchor="middle" x="45.25" y="-492.75" font-family="Helvetica,sans-Serif" font-size="10.00" fill="#ffffff">allowlist</text>
</g>
<!-- auto_pass_cli -->
<g id="node4" class="node">
<title>auto_pass_cli</title><style>.edge>path:hover{stroke-width:8}</style>
<ellipse fill="#822b2b" stroke="black" cx="431.25" cy="-95.01" rx="42.99" ry="18"/>
<text xml:space="preserve" text-anchor="middle" x="431.25" y="-90.76" font-family="Helvetica,sans-Serif" font-size="10.00" fill="#ffffff">auto_pass.cli</text>
</g>
<!-- auto_pass_allowlist&#45;&gt;auto_pass_cli -->
<g id="edge1" class="edge">
<title>auto_pass_allowlist&#45;&gt;auto_pass_cli</title><style>.edge>path:hover{stroke-width:8}</style>
<path fill="none" stroke="black" d="M80.34,-488.86C106.77,-477.31 140.7,-457.17 154.25,-426.24"/>
<path fill="none" stroke="black" d="M154.25,-424.24C192.93,-335.97 221.22,-323.7 283.25,-249.94"/>
<path fill="none" stroke="black" d="M283.25,-247.94C320.11,-199.59 400.05,-228.53 394.25,-168.01"/>
<path fill="none" stroke="black" d="M394.25,-166.01C392.71,-149.87 400.44,-133.75 409.23,-121.05"/>
<polygon fill="#db2f2f" stroke="black" points="411.87,-123.36 415.11,-113.27 406.29,-119.14 411.87,-123.36"/>
</g>
<!-- auto_pass_server -->
<g id="node10" class="node">
<title>auto_pass_server</title><style>.edge>path:hover{stroke-width:8}</style>
<ellipse fill="#bc2f2f" stroke="black" cx="373.25" cy="-425.24" rx="45.25" ry="20.51"/>
<text xml:space="preserve" text-anchor="middle" x="373.25" y="-426.24" font-family="Helvetica,sans-Serif" font-size="10.00" fill="#ffffff">auto_pass.</text>
<text xml:space="preserve" text-anchor="middle" x="373.25" y="-415.74" font-family="Helvetica,sans-Serif" font-size="10.00" fill="#ffffff">server</text>
</g>
<!-- auto_pass_allowlist&#45;&gt;auto_pass_server -->
<g id="edge2" class="edge">
<title>auto_pass_allowlist&#45;&gt;auto_pass_server</title><style>.edge>path:hover{stroke-width:8}</style>
<path fill="none" stroke="black" d="M79,-488.25C85.96,-485.86 93.29,-483.55 100.25,-481.75 193.61,-457.54 220.64,-468.95 314.25,-445.75 318.61,-444.67 323.1,-443.43 327.58,-442.1"/>
<polygon fill="#db2f2f" stroke="black" points="328.61,-445.44 337.13,-439.13 326.54,-438.76 328.61,-445.44"/>
</g>
<!-- auto_pass_web_app -->
<g id="node12" class="node">
<title>auto_pass_web_app</title><style>.edge>path:hover{stroke-width:8}</style>
<ellipse fill="#993333" stroke="black" cx="394.25" cy="-248.94" rx="45.25" ry="27.93"/>
<text xml:space="preserve" text-anchor="middle" x="394.25" y="-255.19" font-family="Helvetica,sans-Serif" font-size="10.00" fill="#ffffff">auto_pass.</text>
<text xml:space="preserve" text-anchor="middle" x="394.25" y="-244.69" font-family="Helvetica,sans-Serif" font-size="10.00" fill="#ffffff">web.</text>
<text xml:space="preserve" text-anchor="middle" x="394.25" y="-234.19" font-family="Helvetica,sans-Serif" font-size="10.00" fill="#ffffff">app</text>
</g>
<!-- auto_pass_allowlist&#45;&gt;auto_pass_web_app -->
<g id="edge3" class="edge">
<title>auto_pass_allowlist&#45;&gt;auto_pass_web_app</title><style>.edge>path:hover{stroke-width:8}</style>
<path fill="none" stroke="black" d="M79.34,-488.31C86.21,-485.94 93.42,-483.63 100.25,-481.75 179.33,-459.98 217.2,-496.98 281.25,-445.75 331.72,-405.39 305.74,-367.5 340.25,-312.87 347.03,-302.16 355.53,-291.37 363.77,-281.83"/>
<polygon fill="#db2f2f" stroke="black" points="366.18,-284.38 370.2,-274.58 360.94,-279.73 366.18,-284.38"/>
</g>
<!-- auto_pass_cli&#45;&gt;auto_pass___main__ -->
<g id="edge4" class="edge">
<title>auto_pass_cli&#45;&gt;auto_pass___main__</title><style>.edge>path:hover{stroke-width:8}</style>
<path fill="none" stroke="black" d="M431.25,-76.83C431.25,-69.6 431.25,-60.96 431.25,-52.67"/>
<polygon fill="#822b2b" stroke="black" points="434.75,-52.9 431.25,-42.9 427.75,-52.9 434.75,-52.9"/>
</g>
<!-- auto_pass_client -->
<g id="node5" class="node">
<title>auto_pass_client</title><style>.edge>path:hover{stroke-width:8}</style>
<ellipse fill="#ce3b3b" stroke="black" cx="227.25" cy="-425.24" rx="45.25" ry="20.51"/>
<text xml:space="preserve" text-anchor="middle" x="227.25" y="-426.24" font-family="Helvetica,sans-Serif" font-size="10.00" fill="#ffffff">auto_pass.</text>
<text xml:space="preserve" text-anchor="middle" x="227.25" y="-415.74" font-family="Helvetica,sans-Serif" font-size="10.00" fill="#ffffff">client</text>
</g>
<!-- auto_pass_client&#45;&gt;auto_pass_cli -->
<g id="edge5" class="edge">
<title>auto_pass_client&#45;&gt;auto_pass_cli</title><style>.edge>path:hover{stroke-width:8}</style>
<path fill="none" stroke="black" d="M228.41,-404.49C230.14,-387.06 234.47,-361.45 245.25,-341.8"/>
<path fill="none" stroke="black" d="M245.25,-339.8C266.13,-301.79 255.34,-283.13 283.25,-249.94"/>
</g>
<!-- auto_pass_client&#45;&gt;auto_pass_web_app -->
<g id="edge6" class="edge">
<title>auto_pass_client&#45;&gt;auto_pass_web_app</title><style>.edge>path:hover{stroke-width:8}</style>
<path fill="none" stroke="black" d="M245.25,-339.8C265.68,-302.61 308.55,-279.18 343.08,-265.6"/>
<polygon fill="#ce3b3b" stroke="black" points="343.95,-269.02 352.08,-262.23 341.49,-262.46 343.95,-269.02"/>
</g>
<!-- auto_pass_dbindex -->
<g id="node6" class="node">
<title>auto_pass_dbindex</title><style>.edge>path:hover{stroke-width:8}</style>
<ellipse fill="#db2f2f" stroke="black" cx="154.25" cy="-502.25" rx="45.25" ry="20.51"/>
<text xml:space="preserve" text-anchor="middle" x="154.25" y="-503.25" font-family="Helvetica,sans-Serif" font-size="10.00" fill="#ffffff">auto_pass.</text>
<text xml:space="preserve" text-anchor="middle" x="154.25" y="-492.75" font-family="Helvetica,sans-Serif" font-size="10.00" fill="#ffffff">dbindex</text>
</g>
<!-- auto_pass_dbindex&#45;&gt;auto_pass -->
<g id="edge7" class="edge">
<title>auto_pass_dbindex&#45;&gt;auto_pass</title><style>.edge>path:hover{stroke-width:8}</style>
<path fill="none" stroke="black" d="M195.5,-493.27C249.03,-482.82 345.29,-463.71 427.25,-445.75 440.45,-442.86 454.79,-439.55 467.77,-436.49"/>
<polygon fill="#db2f2f" stroke="black" points="468.38,-439.94 477.3,-434.23 466.76,-433.13 468.38,-439.94"/>
</g>
<!-- auto_pass_dbindex&#45;&gt;auto_pass_cli -->
<g id="edge8" class="edge">
<title>auto_pass_dbindex&#45;&gt;auto_pass_cli</title><style>.edge>path:hover{stroke-width:8}</style>
<path fill="none" stroke="black" d="M150.08,-481.57C147.71,-465.91 146.57,-443.78 154.25,-426.24"/>
</g>
<!-- auto_pass_dbindex&#45;&gt;auto_pass_server -->
<g id="edge9" class="edge">
<title>auto_pass_dbindex&#45;&gt;auto_pass_server</title><style>.edge>path:hover{stroke-width:8}</style>
<path fill="none" stroke="black" d="M189.44,-489.2C226.77,-476.42 285.9,-456.16 326.98,-442.09"/>
<polygon fill="#db2f2f" stroke="black" points="328.03,-445.43 336.36,-438.88 325.77,-438.81 328.03,-445.43"/>
</g>
<!-- auto_pass_envfile -->
<g id="node7" class="node">
<title>auto_pass_envfile</title><style>.edge>path:hover{stroke-width:8}</style>
<ellipse fill="#db2f2f" stroke="black" cx="636.25" cy="-502.25" rx="45.25" ry="20.51"/>
<text xml:space="preserve" text-anchor="middle" x="636.25" y="-503.25" font-family="Helvetica,sans-Serif" font-size="10.00" fill="#ffffff">auto_pass.</text>
<text xml:space="preserve" text-anchor="middle" x="636.25" y="-492.75" font-family="Helvetica,sans-Serif" font-size="10.00" fill="#ffffff">envfile</text>
</g>
<!-- auto_pass_envfile&#45;&gt;auto_pass -->
<g id="edge10" class="edge">
<title>auto_pass_envfile&#45;&gt;auto_pass</title><style>.edge>path:hover{stroke-width:8}</style>
<path fill="none" stroke="black" d="M609.53,-485.35C589.92,-473.67 563.18,-457.75 542.39,-445.38"/>
<polygon fill="#db2f2f" stroke="black" points="544.41,-442.5 534.03,-440.39 540.83,-448.52 544.41,-442.5"/>
</g>
<!-- auto_pass_envfile&#45;&gt;auto_pass_cli -->
<g id="edge11" class="edge">
<title>auto_pass_envfile&#45;&gt;auto_pass_cli</title><style>.edge>path:hover{stroke-width:8}</style>
<path fill="none" stroke="black" d="M653.85,-483.21C662.81,-473 673.09,-459.55 679.25,-445.75 698.4,-402.87 683.7,-386.45 698.25,-341.8"/>
</g>
<!-- auto_pass_notifications -->
<g id="node9" class="node">
<title>auto_pass_notifications</title><style>.edge>path:hover{stroke-width:8}</style>
<polygon fill="blue" stroke="black" points="670.5,-443.24 602,-443.24 602,-407.24 670.5,-407.24 670.5,-443.24"/>
<text xml:space="preserve" text-anchor="middle" x="636.25" y="-426.24" font-family="Helvetica,sans-Serif" font-size="10.00" fill="white">auto_pass.</text>
<text xml:space="preserve" text-anchor="middle" x="636.25" y="-415.74" font-family="Helvetica,sans-Serif" font-size="10.00" fill="white">notifications</text>
</g>
<!-- auto_pass_envfile&#45;&gt;auto_pass_notifications -->
<g id="edge12" class="edge">
<title>auto_pass_envfile&#45;&gt;auto_pass_notifications</title><style>.edge>path:hover{stroke-width:8}</style>
<path fill="none" stroke="black" d="M636.25,-481.54C636.25,-473.43 636.25,-463.86 636.25,-454.99"/>
<polygon fill="#db2f2f" stroke="black" points="639.75,-455.03 636.25,-445.03 632.75,-455.03 639.75,-455.03"/>
</g>
<!-- auto_pass_keepassxc -->
<g id="node8" class="node">
<title>auto_pass_keepassxc</title><style>.edge>path:hover{stroke-width:8}</style>
<polygon fill="blue" stroke="black" points="542.25,-520.25 478.25,-520.25 478.25,-484.25 542.25,-484.25 542.25,-520.25"/>
<text xml:space="preserve" text-anchor="middle" x="510.25" y="-503.25" font-family="Helvetica,sans-Serif" font-size="10.00" fill="white">auto_pass.</text>
<text xml:space="preserve" text-anchor="middle" x="510.25" y="-492.75" font-family="Helvetica,sans-Serif" font-size="10.00" fill="white">keepassxc</text>
</g>
<!-- auto_pass_keepassxc&#45;&gt;auto_pass -->
<g id="edge13" class="edge">
<title>auto_pass_keepassxc&#45;&gt;auto_pass</title><style>.edge>path:hover{stroke-width:8}</style>
<path fill="none" stroke="black" d="M510.25,-483.86C510.25,-475.24 510.25,-464.61 510.25,-454.84"/>
<polygon fill="blue" stroke="black" points="513.75,-455.06 510.25,-445.06 506.75,-455.06 513.75,-455.06"/>
</g>
<!-- auto_pass_keepassxc&#45;&gt;auto_pass_cli -->
<g id="edge14" class="edge">
<title>auto_pass_keepassxc&#45;&gt;auto_pass_cli</title><style>.edge>path:hover{stroke-width:8}</style>
<path fill="none" stroke="black" d="M524.16,-483.77C543.58,-459.59 578.13,-417.48 593.25,-404.74 634.86,-369.68 681.31,-393.51 698.25,-341.8"/>
<path fill="none" stroke="black" d="M698.25,-339.8C710.63,-301.83 710.01,-288.11 698.25,-249.94"/>
</g>
<!-- auto_pass_keepassxc&#45;&gt;auto_pass_notifications -->
<g id="edge15" class="edge">
<title>auto_pass_keepassxc&#45;&gt;auto_pass_notifications</title><style>.edge>path:hover{stroke-width:8}</style>
<path fill="none" stroke="black" d="M549.2,-478.07C564.55,-468.93 582.15,-458.45 597.48,-449.32"/>
<polygon fill="blue" stroke="black" points="547.58,-474.96 540.78,-483.08 551.16,-480.97 547.58,-474.96"/>
<polygon fill="blue" stroke="black" points="599.09,-452.44 605.89,-444.32 595.51,-446.43 599.09,-452.44"/>
</g>
<!-- auto_pass_keepassxc&#45;&gt;auto_pass_server -->
<g id="edge16" class="edge">
<title>auto_pass_keepassxc&#45;&gt;auto_pass_server</title><style>.edge>path:hover{stroke-width:8}</style>
<path fill="none" stroke="black" d="M478.48,-483.86C458.37,-472.85 432.27,-458.55 411.1,-446.96"/>
<polygon fill="blue" stroke="black" points="412.92,-443.97 402.47,-442.24 409.56,-450.11 412.92,-443.97"/>
</g>
<!-- auto_pass_keepassxc&#45;&gt;auto_pass_web_app -->
<g id="edge17" class="edge">
<title>auto_pass_keepassxc&#45;&gt;auto_pass_web_app</title><style>.edge>path:hover{stroke-width:8}</style>
<path fill="none" stroke="black" d="M490.8,-483.76C481.11,-473.72 470.39,-460.25 465.25,-445.75 459.17,-428.57 464.97,-422.96 465.25,-404.74 465.7,-376.76 468.28,-369.77 467.25,-341.8"/>
</g>
<!-- auto_pass_server&#45;&gt;auto_pass_cli -->
<g id="edge19" class="edge">
<title>auto_pass_server&#45;&gt;auto_pass_cli</title><style>.edge>path:hover{stroke-width:8}</style>
<path fill="none" stroke="black" d="M351.98,-406.96C314.23,-374.21 243.12,-301.78 283.25,-249.94"/>
</g>
<!-- auto_pass_server&#45;&gt;auto_pass_web_app -->
<g id="edge20" class="edge">
<title>auto_pass_server&#45;&gt;auto_pass_web_app</title><style>.edge>path:hover{stroke-width:8}</style>
<path fill="none" stroke="black" d="M406.99,-411.19C434.44,-398.11 468.48,-375.1 467.25,-341.8"/>
<path fill="none" stroke="black" d="M467.25,-339.8C466.35,-315.12 449.49,-293.43 432.2,-277.54"/>
<polygon fill="#bc2f2f" stroke="black" points="434.74,-275.11 424.89,-271.21 430.16,-280.41 434.74,-275.11"/>
</g>
<!-- auto_pass_web -->
<g id="node11" class="node">
<title>auto_pass_web</title><style>.edge>path:hover{stroke-width:8}</style>
<ellipse fill="#c24747" stroke="black" cx="469.25" cy="-167.01" rx="47.36" ry="18"/>
<text xml:space="preserve" text-anchor="middle" x="469.25" y="-162.76" font-family="Helvetica,sans-Serif" font-size="10.00" fill="#ffffff">auto_pass.web</text>
</g>
<!-- auto_pass_web&#45;&gt;auto_pass_cli -->
<g id="edge21" class="edge">
<title>auto_pass_web&#45;&gt;auto_pass_cli</title><style>.edge>path:hover{stroke-width:8}</style>
<path fill="none" stroke="black" d="M460.06,-149.07C455.76,-141.16 450.55,-131.55 445.74,-122.7"/>
<polygon fill="#c24747" stroke="black" points="448.94,-121.25 441.09,-114.13 442.79,-124.59 448.94,-121.25"/>
</g>
<!-- auto_pass_web_app&#45;&gt;auto_pass_cli -->
<g id="edge22" class="edge">
<title>auto_pass_web_app&#45;&gt;auto_pass_cli</title><style>.edge>path:hover{stroke-width:8}</style>
<path fill="none" stroke="black" d="M395.53,-220.87C395.95,-205.36 395.94,-185.56 394.25,-168.01"/>
</g>
<!-- auto_pass_web_audit -->
<g id="node13" class="node">
<title>auto_pass_web_audit</title><style>.edge>path:hover{stroke-width:8}</style>
<ellipse fill="#c24747" stroke="black" cx="394.25" cy="-340.8" rx="45.25" ry="27.93"/>
<text xml:space="preserve" text-anchor="middle" x="394.25" y="-347.05" font-family="Helvetica,sans-Serif" font-size="10.00" fill="#ffffff">auto_pass.</text>
<text xml:space="preserve" text-anchor="middle" x="394.25" y="-336.55" font-family="Helvetica,sans-Serif" font-size="10.00" fill="#ffffff">web.</text>
<text xml:space="preserve" text-anchor="middle" x="394.25" y="-326.05" font-family="Helvetica,sans-Serif" font-size="10.00" fill="#ffffff">audit</text>
</g>
<!-- auto_pass_web_audit&#45;&gt;auto_pass_web_app -->
<g id="edge23" class="edge">
<title>auto_pass_web_audit&#45;&gt;auto_pass_web_app</title><style>.edge>path:hover{stroke-width:8}</style>
<path fill="none" stroke="black" d="M394.25,-312.84C394.25,-305.18 394.25,-296.69 394.25,-288.48"/>
<polygon fill="#c24747" stroke="black" points="397.75,-288.71 394.25,-278.71 390.75,-288.71 397.75,-288.71"/>
</g>
<!-- auto_pass_web_auth -->
<g id="node14" class="node">
<title>auto_pass_web_auth</title><style>.edge>path:hover{stroke-width:8}</style>
<ellipse fill="#ce3b3b" stroke="black" cx="540.25" cy="-340.8" rx="45.25" ry="27.93"/>
<text xml:space="preserve" text-anchor="middle" x="540.25" y="-347.05" font-family="Helvetica,sans-Serif" font-size="10.00" fill="#ffffff">auto_pass.</text>
<text xml:space="preserve" text-anchor="middle" x="540.25" y="-336.55" font-family="Helvetica,sans-Serif" font-size="10.00" fill="#ffffff">web.</text>
<text xml:space="preserve" text-anchor="middle" x="540.25" y="-326.05" font-family="Helvetica,sans-Serif" font-size="10.00" fill="#ffffff">auth</text>
</g>
<!-- auto_pass_web_auth&#45;&gt;auto_pass_cli -->
<g id="edge24" class="edge">
<title>auto_pass_web_auth&#45;&gt;auto_pass_cli</title><style>.edge>path:hover{stroke-width:8}</style>
<path fill="none" stroke="black" d="M584.38,-334.05C636.51,-324.81 714.32,-302.12 698.25,-249.94"/>
<path fill="none" stroke="black" d="M698.25,-247.94C677.7,-181.18 400.91,-237.55 394.25,-168.01"/>
</g>
<!-- auto_pass_web_auth&#45;&gt;auto_pass_web_app -->
<g id="edge25" class="edge">
<title>auto_pass_web_auth&#45;&gt;auto_pass_web_app</title><style>.edge>path:hover{stroke-width:8}</style>
<path fill="none" stroke="black" d="M508.58,-320.31C487.15,-307.12 458.64,-289.57 435.45,-275.3"/>
<polygon fill="#ce3b3b" stroke="black" points="437.51,-272.46 427.16,-270.2 433.84,-278.42 437.51,-272.46"/>
</g>
</g>
</svg>
