<?xml version="1.0" encoding="UTF-8" standalone="no"?>
<!DOCTYPE svg PUBLIC "-//W3C//DTD SVG 1.1//EN"
 "http://www.w3.org/Graphics/SVG/1.1/DTD/svg11.dtd">
<!-- Generated by graphviz version 13.1.2 (20250808.2320)
 -->
<!-- Title: G Pages: 1 -->
<svg width="282pt" height="347pt"
 viewBox="0.00 0.00 282.00 347.00" xmlns="http://www.w3.org/2000/svg" xmlns:xlink="http://www.w3.org/1999/xlink">
<g id="graph0" class="graph" transform="scale(1 1) rotate(0) translate(4 343.04)">
<title>G</title><style>.edge>path:hover{stroke-width:8}</style>
<polygon fill="white" stroke="none" points="-4,4 -4,-343.04 277.51,-343.04 277.51,4 -4,4"/>
<!-- auto_pass -->
<g id="node1" class="node">
<title>auto_pass</title><style>.edge>path:hover{stroke-width:8}</style>
<ellipse fill="#a44646" stroke="black" cx="118.25" cy="-95.01" rx="35.55" ry="18"/>
<text xml:space="preserve" text-anchor="middle" x="118.25" y="-90.76" font-family="Helvetica,sans-Serif" font-size="10.00" fill="#ffffff">auto_pass</text>
</g>
<!-- auto_pass___main__ -->
<g id="node2" class="node">
<title>auto_pass___main__</title><style>.edge>path:hover{stroke-width:8}</style>
<ellipse fill="#b34c4c" stroke="black" cx="228.25" cy="-20.51" rx="45.25" ry="20.51"/>
<text xml:space="preserve" text-anchor="middle" x="228.25" y="-21.51" font-family="Helvetica,sans-Serif" font-size="10.00" fill="#ffffff">auto_pass.</text>
<text xml:space="preserve" text-anchor="middle" x="228.25" y="-11.01" font-family="Helvetica,sans-Serif" font-size="10.00" fill="#ffffff">__main__</text>
</g>
<!-- auto_pass_cli -->
<g id="node3" class="node">
<title>auto_pass_cli</title><style>.edge>path:hover{stroke-width:8}</style>
<ellipse fill="#b83d3d" stroke="black" cx="228.25" cy="-95.01" rx="42.99" ry="18"/>
<text xml:space="preserve" text-anchor="middle" x="228.25" y="-90.76" font-family="Helvetica,sans-Serif" font-size="10.00" fill="#ffffff">auto_pass.cli</text>
</g>
<!-- auto_pass_cli&#45;&gt;auto_pass___main__ -->
<g id="edge1" class="edge">
<title>auto_pass_cli&#45;&gt;auto_pass___main__</title><style>.edge>path:hover{stroke-width:8}</style>
<path fill="none" stroke="black" d="M228.25,-76.83C228.25,-69.6 228.25,-60.96 228.25,-52.67"/>
<polygon fill="#b83d3d" stroke="black" points="231.75,-52.9 228.25,-42.9 224.75,-52.9 231.75,-52.9"/>
</g>
<!-- auto_pass_dbindex -->
<g id="node4" class="node">
<title>auto_pass_dbindex</title><style>.edge>path:hover{stroke-width:8}</style>
<ellipse fill="#c24747" stroke="black" cx="45.25" cy="-169.52" rx="45.25" ry="20.51"/>
<text xml:space="preserve" text-anchor="middle" x="45.25" y="-170.52" font-family="Helvetica,sans-Serif" font-size="10.00" fill="#ffffff">auto_pass.</text>
<text xml:space="preserve" text-anchor="middle" x="45.25" y="-160.02" font-family="Helvetica,sans-Serif" font-size="10.00" fill="#ffffff">dbindex</text>
</g>
<!-- auto_pass_dbindex&#45;&gt;auto_pass -->
<g id="edge2" class="edge">
<title>auto_pass_dbindex&#45;&gt;auto_pass</title><style>.edge>path:hover{stroke-width:8}</style>
<path fill="none" stroke="black" d="M63.3,-150.6C72.8,-141.16 84.56,-129.48 94.77,-119.34"/>
<polygon fill="#c24747" stroke="black" points="97.18,-121.88 101.81,-112.34 92.25,-116.91 97.18,-121.88"/>
</g>
<!-- auto_pass_envfile -->
<g id="node5" class="node">
<title>auto_pass_envfile</title><style>.edge>path:hover{stroke-width:8}</style>
<ellipse fill="#db2f2f" stroke="black" cx="180.25" cy="-318.53" rx="45.25" ry="20.51"/>
<text xml:space="preserve" text-anchor="middle" x="180.25" y="-319.53" font-family="Helvetica,sans-Serif" font-size="10.00" fill="#ffffff">auto_pass.</text>
<text xml:space="preserve" text-anchor="middle" x="180.25" y="-309.03" font-family="Helvetica,sans-Serif" font-size="10.00" fill="#ffffff">envfile</text>
</g>
<!-- auto_pass_envfile&#45;&gt;auto_pass -->
<g id="edge3" class="edge">
<title>auto_pass_envfile&#45;&gt;auto_pass</title><style>.edge>path:hover{stroke-width:8}</style>
<path fill="none" stroke="black" d="M162.29,-299.64C153.22,-289.48 142.95,-276.02 137.25,-262.02 118.75,-216.56 116.41,-158.66 116.94,-124.63"/>
<polygon fill="#db2f2f" stroke="black" points="120.44,-124.85 117.21,-114.76 113.44,-124.66 120.44,-124.85"/>
</g>
<!-- auto_pass_envfile&#45;&gt;auto_pass_cli -->
<g id="edge4" class="edge">
<title>auto_pass_envfile&#45;&gt;auto_pass_cli</title><style>.edge>path:hover{stroke-width:8}</style>
<path fill="none" stroke="black" d="M198.69,-299.82C207.9,-289.72 218.15,-276.25 223.25,-262.02 239.74,-216.1 236.62,-158.35 232.6,-124.48"/>
<polygon fill="#db2f2f" stroke="black" points="236.08,-124.11 231.32,-114.64 229.14,-125.01 236.08,-124.11"/>
</g>
<!-- auto_pass_notifications -->
<g id="node7" class="node">
<title>auto_pass_notifications</title><style>.edge>path:hover{stroke-width:8}</style>
<polygon fill="blue" stroke="black" points="214.5,-262.02 146,-262.02 146,-226.02 214.5,-226.02 214.5,-262.02"/>
<text xml:space="preserve" text-anchor="middle" x="180.25" y="-245.02" font-family="Helvetica,sans-Serif" font-size="10.00" fill="white">auto_pass.</text>
<text xml:space="preserve" text-anchor="middle" x="180.25" y="-234.52" font-family="Helvetica,sans-Serif" font-size="10.00" fill="white">notifications</text>
</g>
<!-- auto_pass_envfile&#45;&gt;auto_pass_notifications -->
<g id="edge5" class="edge">
<title>auto_pass_envfile&#45;&gt;auto_pass_notifications</title><style>.edge>path:hover{stroke-width:8}</style>
<path fill="none" stroke="black" d="M180.25,-297.72C180.25,-290.28 180.25,-281.67 180.25,-273.6"/>
<polygon fill="#db2f2f" stroke="black" points="183.75,-273.86 180.25,-263.86 176.75,-273.86 183.75,-273.86"/>
</g>
<!-- auto_pass_keepassxc -->
<g id="node6" class="node">
<title>auto_pass_keepassxc</title><style>.edge>path:hover{stroke-width:8}</style>
<polygon fill="blue" stroke="black" points="212.25,-187.52 148.25,-187.52 148.25,-151.52 212.25,-151.52 212.25,-187.52"/>
<text xml:space="preserve" text-anchor="middle" x="180.25" y="-170.52" font-family="Helvetica,sans-Serif" font-size="10.00" fill="white">auto_pass.</text>
<text xml:space="preserve" text-anchor="middle" x="180.25" y="-160.02" font-family="Helvetica,sans-Serif" font-size="10.00" fill="white">keepassxc</text>
</g>
<!-- auto_pass_keepassxc&#45;&gt;auto_pass -->
<g id="edge6" class="edge">
<title>auto_pass_keepassxc&#45;&gt;auto_pass</title><style>.edge>path:hover{stroke-width:8}</style>
<path fill="none" stroke="black" d="M165.56,-151.34C157.7,-142.14 147.87,-130.65 139.22,-120.53"/>
<polygon fill="blue" stroke="black" points="142.14,-118.55 132.98,-113.23 136.82,-123.1 142.14,-118.55"/>
</g>
<!-- auto_pass_keepassxc&#45;&gt;auto_pass_cli -->
<g id="edge7" class="edge">
<title>auto_pass_keepassxc&#45;&gt;auto_pass_cli</title><style>.edge>path:hover{stroke-width:8}</style>
<path fill="none" stroke="black" d="M191.63,-151.34C197.45,-142.54 204.66,-131.65 211.14,-121.87"/>
<polygon fill="blue" stroke="black" points="213.85,-124.11 216.46,-113.83 208.02,-120.24 213.85,-124.11"/>
</g>
<!-- auto_pass_notifications&#45;&gt;auto_pass_keepassxc -->
<g id="edge9" class="edge">
<title>auto_pass_notifications&#45;&gt;auto_pass_keepassxc</title><style>.edge>path:hover{stroke-width:8}</style>
<path fill="none" stroke="black" d="M180.25,-214.48C180.25,-209.36 180.25,-204.02 180.25,-198.91"/>
<polygon fill="blue" stroke="black" points="176.75,-214.33 180.25,-224.33 183.75,-214.33 176.75,-214.33"/>
<polygon fill="blue" stroke="black" points="183.75,-199.09 180.25,-189.09 176.75,-199.09 183.75,-199.09"/>
</g>
</g>
</svg>
