<?xml version="1.0" encoding="UTF-8" standalone="no"?>
<!DOCTYPE svg PUBLIC "-//W3C//DTD SVG 1.1//EN"
 "http://www.w3.org/Graphics/SVG/1.1/DTD/svg11.dtd">
<!-- Generated by graphviz version 13.1.2 (20250808.2320)
 -->
<!-- Title: G Pages: 1 -->
<svg width="193pt" height="342pt"
 viewBox="0.00 0.00 193.00 342.00" xmlns="http://www.w3.org/2000/svg" xmlns:xlink="http://www.w3.org/1999/xlink">
<g id="graph0" class="graph" transform="scale(1 1) rotate(0) translate(4 338.02)">
<title>G</title><style>.edge>path:hover{stroke-width:8}</style>
<polygon fill="white" stroke="none" points="-4,4 -4,-338.02 188.81,-338.02 188.81,4 -4,4"/>
<!-- auto_pass -->
<g id="node1" class="node">
<title>auto_pass</title><style>.edge>path:hover{stroke-width:8}</style>
<ellipse fill="#ac4949" stroke="black" cx="35.55" cy="-95.01" rx="35.55" ry="18"/>
<text xml:space="preserve" text-anchor="middle" x="35.55" y="-90.76" font-family="Helvetica,sans-Serif" font-size="10.00" fill="#ffffff">auto_pass</text>
</g>
<!-- auto_pass___main__ -->
<g id="node2" class="node">
<title>auto_pass___main__</title><style>.edge>path:hover{stroke-width:8}</style>
<ellipse fill="#b34c4c" stroke="black" cx="139.55" cy="-20.51" rx="45.25" ry="20.51"/>
<text xml:space="preserve" text-anchor="middle" x="139.55" y="-21.51" font-family="Helvetica,sans-Serif" font-size="10.00" fill="#ffffff">auto_pass.</text>
<text xml:space="preserve" text-anchor="middle" x="139.55" y="-11.01" font-family="Helvetica,sans-Serif" font-size="10.00" fill="#ffffff">__main__</text>
</g>
<!-- auto_pass_cli -->
<g id="node3" class="node">
<title>auto_pass_cli</title><style>.edge>path:hover{stroke-width:8}</style>
<ellipse fill="#b83d3d" stroke="black" cx="139.55" cy="-95.01" rx="42.99" ry="18"/>
<text xml:space="preserve" text-anchor="middle" x="139.55" y="-90.76" font-family="Helvetica,sans-Serif" font-size="10.00" fill="#ffffff">auto_pass.cli</text>
</g>
<!-- auto_pass_cli&#45;&gt;auto_pass___main__ -->
<g id="edge1" class="edge">
<title>auto_pass_cli&#45;&gt;auto_pass___main__</title><style>.edge>path:hover{stroke-width:8}</style>
<path fill="none" stroke="black" d="M139.55,-76.83C139.55,-69.6 139.55,-60.96 139.55,-52.67"/>
<polygon fill="#b83d3d" stroke="black" points="143.05,-52.9 139.55,-42.9 136.05,-52.9 143.05,-52.9"/>
</g>
<!-- auto_pass_envfile -->
<g id="node4" class="node">
<title>auto_pass_envfile</title><style>.edge>path:hover{stroke-width:8}</style>
<ellipse fill="#db2f2f" stroke="black" cx="84.55" cy="-313.52" rx="45.25" ry="20.51"/>
<text xml:space="preserve" text-anchor="middle" x="84.55" y="-314.52" font-family="Helvetica,sans-Serif" font-size="10.00" fill="#ffffff">auto_pass.</text>
<text xml:space="preserve" text-anchor="middle" x="84.55" y="-304.02" font-family="Helvetica,sans-Serif" font-size="10.00" fill="#ffffff">envfile</text>
</g>
<!-- auto_pass_envfile&#45;&gt;auto_pass -->
<g id="edge2" class="edge">
<title>auto_pass_envfile&#45;&gt;auto_pass</title><style>.edge>path:hover{stroke-width:8}</style>
<path fill="none" stroke="black" d="M66.16,-294.8C56.96,-284.69 46.71,-271.22 41.55,-257.01 25.49,-212.75 27.96,-157.09 31.53,-124.15"/>
<polygon fill="#db2f2f" stroke="black" points="34.96,-124.96 32.68,-114.61 28.01,-124.12 34.96,-124.96"/>
</g>
<!-- auto_pass_envfile&#45;&gt;auto_pass_cli -->
<g id="edge3" class="edge">
<title>auto_pass_envfile&#45;&gt;auto_pass_cli</title><style>.edge>path:hover{stroke-width:8}</style>
<path fill="none" stroke="black" d="M102.74,-294.72C111.88,-284.59 122.13,-271.12 127.55,-257.01 144.47,-212.97 144.33,-157.24 142.25,-124.23"/>
<polygon fill="#db2f2f" stroke="black" points="145.77,-124.38 141.53,-114.67 138.79,-124.9 145.77,-124.38"/>
</g>
<!-- auto_pass_notifications -->
<g id="node6" class="node">
<title>auto_pass_notifications</title><style>.edge>path:hover{stroke-width:8}</style>
<polygon fill="blue" stroke="black" points="118.8,-257.01 50.3,-257.01 50.3,-221.01 118.8,-221.01 118.8,-257.01"/>
<text xml:space="preserve" text-anchor="middle" x="84.55" y="-240.01" font-family="Helvetica,sans-Serif" font-size="10.00" fill="white">auto_pass.</text>
<text xml:space="preserve" text-anchor="middle" x="84.55" y="-229.51" font-family="Helvetica,sans-Serif" font-size="10.00" fill="white">notifications</text>
</g>
<!-- auto_pass_envfile&#45;&gt;auto_pass_notifications -->
<g id="edge4" class="edge">
<title>auto_pass_envfile&#45;&gt;auto_pass_notifications</title><style>.edge>path:hover{stroke-width:8}</style>
<path fill="none" stroke="black" d="M84.55,-292.71C84.55,-285.27 84.55,-276.66 84.55,-268.58"/>
<polygon fill="#db2f2f" stroke="black" points="88.05,-268.85 84.55,-258.85 81.05,-268.85 88.05,-268.85"/>
</g>
<!-- auto_pass_keepassxc -->
<g id="node5" class="node">
<title>auto_pass_keepassxc</title><style>.edge>path:hover{stroke-width:8}</style>
<polygon fill="blue" stroke="black" points="116.55,-185.01 52.55,-185.01 52.55,-149.01 116.55,-149.01 116.55,-185.01"/>
<text xml:space="preserve" text-anchor="middle" x="84.55" y="-168.01" font-family="Helvetica,sans-Serif" font-size="10.00" fill="white">auto_pass.</text>
<text xml:space="preserve" text-anchor="middle" x="84.55" y="-157.51" font-family="Helvetica,sans-Serif" font-size="10.00" fill="white">keepassxc</text>
</g>
<!-- auto_pass_keepassxc&#45;&gt;auto_pass -->
<g id="edge5" class="edge">
<title>auto_pass_keepassxc&#45;&gt;auto_pass</title><style>.edge>path:hover{stroke-width:8}</style>
<path fill="none" stroke="black" d="M72.44,-148.71C66.7,-140.5 59.72,-130.54 53.39,-121.49"/>
<polygon fill="blue" stroke="black" points="56.32,-119.58 47.72,-113.4 50.59,-123.6 56.32,-119.58"/>
</g>
<!-- auto_pass_keepassxc&#45;&gt;auto_pass_cli -->
<g id="edge6" class="edge">
<title>auto_pass_keepassxc&#45;&gt;auto_pass_cli</title><style>.edge>path:hover{stroke-width:8}</style>
<path fill="none" stroke="black" d="M98.15,-148.71C104.57,-140.54 112.37,-130.62 119.45,-121.6"/>
<polygon fill="blue" stroke="black" points="122.13,-123.85 125.56,-113.82 116.63,-119.53 122.13,-123.85"/>
</g>
<!-- auto_pass_notifications&#45;&gt;auto_pass_keepassxc -->
<g id="edge8" class="edge">
<title>auto_pass_notifications&#45;&gt;auto_pass_keepassxc</title><style>.edge>path:hover{stroke-width:8}</style>
<path fill="none" stroke="black" d="M84.55,-209.25C84.55,-205.02 84.55,-200.67 84.55,-196.45"/>
<polygon fill="blue" stroke="black" points="81.05,-209.2 84.55,-219.2 88.05,-209.2 81.05,-209.2"/>
<polygon fill="blue" stroke="black" points="88.05,-196.63 84.55,-186.63 81.05,-196.63 88.05,-196.63"/>
</g>
</g>
</svg>
