<?plantuml 1.2026.2?><svg xmlns="http://www.w3.org/2000/svg" xmlns:xlink="http://www.w3.org/1999/xlink" contentStyleType="text/css" data-diagram-type="CLASS" height="544px" preserveAspectRatio="none" style="width:933px;height:544px;background:#FFFFFF;" version="1.1" viewBox="0 0 933 544" width="933px" zoomAndPan="magnify"><defs/><g><!--class src.auto_pass.dbindex.DatabaseIndexError--><g class="entity" data-qualified-name="src.auto_pass.dbindex.DatabaseIndexError" data-source-line="2" id="ent0002"><rect fill="#F1F1F1" height="48" rx="2.5" ry="2.5" style="stroke:#181818;stroke-width:0.5;" width="164.9575" x="80.99" y="7"/><ellipse cx="95.99" cy="23" fill="#ADD1B2" rx="11" ry="11" style="stroke:#181818;stroke-width:1;"/><path d="M96.0994,18.5313 Q95.1775,18.5313 94.4431,18.8438 Q93.7244,19.1563 93.2244,19.75 Q92.7244,20.3281 92.4431,21.2031 Q92.1775,22.0781 92.1775,23.1719 Q92.1775,24.6094 92.615,25.6563 Q93.0681,26.7031 93.9119,27.25 Q94.7713,27.7969 96.0838,27.7969 Q96.865,27.7969 97.5525,27.6719 Q98.2556,27.5313 99.2556,27.2188 L99.2556,29.0938 Q98.3963,29.4219 97.6306,29.5469 Q96.8806,29.6719 95.865,29.6719 Q93.9431,29.6719 92.6306,28.875 Q91.3338,28.0625 90.6775,26.5938 Q90.0213,25.1094 90.0213,23.1406 Q90.0213,21.7188 90.4119,20.5469 Q90.8181,19.3594 91.5994,18.4844 Q92.3806,17.6094 93.5213,17.1406 Q94.6619,16.6563 96.1306,16.6563 Q97.0838,16.6563 97.9744,16.8594 Q98.8806,17.0469 99.8181,17.5156 L98.99,19.2969 Q98.2088,18.9219 97.5525,18.7344 Q96.8963,18.5313 96.0994,18.5313 Z " fill="#000000"/><text fill="#FF0000" font-family="sans-serif" font-size="14" lengthAdjust="spacing" textLength="132.9575" x="109.99" y="28.432">DatabaseIndexError</text><line style="stroke:#181818;stroke-width:0.5;" x1="81.99" x2="244.9475" y1="39" y2="39"/><line style="stroke:#181818;stroke-width:0.5;" x1="81.99" x2="244.9475" y1="47" y2="47"/></g><!--class src.auto_pass.envfile.EnvFileError--><g class="entity" data-qualified-name="src.auto_pass.envfile.EnvFileError" data-source-line="4" id="ent0003"><rect fill="#F1F1F1" height="48" rx="2.5" ry="2.5" style="stroke:#181818;stroke-width:0.5;" width="111.5337" x="280.7" y="7"/><ellipse cx="295.7" cy="23" fill="#ADD1B2" rx="11" ry="11" style="stroke:#181818;stroke-width:1;"/><path d="M295.8094,18.5313 Q294.8875,18.5313 294.1531,18.8438 Q293.4344,19.1563 292.9344,19.75 Q292.4344,20.3281 292.1531,21.2031 Q291.8875,22.0781 291.8875,23.1719 Q291.8875,24.6094 292.325,25.6563 Q292.7781,26.7031 293.6219,27.25 Q294.4813,27.7969 295.7938,27.7969 Q296.575,27.7969 297.2625,27.6719 Q297.9656,27.5313 298.9656,27.2188 L298.9656,29.0938 Q298.1063,29.4219 297.3406,29.5469 Q296.5906,29.6719 295.575,29.6719 Q293.6531,29.6719 292.3406,28.875 Q291.0438,28.0625 290.3875,26.5938 Q289.7313,25.1094 289.7313,23.1406 Q289.7313,21.7188 290.1219,20.5469 Q290.5281,19.3594 291.3094,18.4844 Q292.0906,17.6094 293.2313,17.1406 Q294.3719,16.6563 295.8406,16.6563 Q296.7938,16.6563 297.6844,16.8594 Q298.5906,17.0469 299.5281,17.5156 L298.7,19.2969 Q297.9188,18.9219 297.2625,18.7344 Q296.6063,18.5313 295.8094,18.5313 Z " fill="#000000"/><text fill="#FF0000" font-family="sans-serif" font-size="14" lengthAdjust="spacing" textLength="79.5337" x="309.7" y="28.432">EnvFileError</text><line style="stroke:#181818;stroke-width:0.5;" x1="281.7" x2="391.2337" y1="39" y2="39"/><line style="stroke:#181818;stroke-width:0.5;" x1="281.7" x2="391.2337" y1="47" y2="47"/></g><!--class src.auto_pass.keepassxc.KeepassCommandError--><g class="entity" data-qualified-name="src.auto_pass.keepassxc.KeepassCommandError" data-source-line="6" id="ent0004"><rect fill="#F1F1F1" height="48" rx="2.5" ry="2.5" style="stroke:#181818;stroke-width:0.5;" width="188.5474" x="427.2" y="7"/><ellipse cx="442.2" cy="23" fill="#ADD1B2" rx="11" ry="11" style="stroke:#181818;stroke-width:1;"/><path d="M442.3094,18.5313 Q441.3875,18.5313 440.6531,18.8438 Q439.9344,19.1563 439.4344,19.75 Q438.9344,20.3281 438.6531,21.2031 Q438.3875,22.0781 438.3875,23.1719 Q438.3875,24.6094 438.825,25.6563 Q439.2781,26.7031 440.1219,27.25 Q440.9813,27.7969 442.2938,27.7969 Q443.075,27.7969 443.7625,27.6719 Q444.4656,27.5313 445.4656,27.2188 L445.4656,29.0938 Q444.6063,29.4219 443.8406,29.5469 Q443.0906,29.6719 442.075,29.6719 Q440.1531,29.6719 438.8406,28.875 Q437.5438,28.0625 436.8875,26.5938 Q436.2313,25.1094 436.2313,23.1406 Q436.2313,21.7188 436.6219,20.5469 Q437.0281,19.3594 437.8094,18.4844 Q438.5906,17.6094 439.7313,17.1406 Q440.8719,16.6563 442.3406,16.6563 Q443.2938,16.6563 444.1844,16.8594 Q445.0906,17.0469 446.0281,17.5156 L445.2,19.2969 Q444.4188,18.9219 443.7625,18.7344 Q443.1063,18.5313 442.3094,18.5313 Z " fill="#000000"/><text fill="#FF0000" font-family="sans-serif" font-size="14" lengthAdjust="spacing" textLength="156.5474" x="456.2" y="28.432">KeepassCommandError</text><line style="stroke:#181818;stroke-width:0.5;" x1="428.2" x2="614.7474" y1="39" y2="39"/><line style="stroke:#181818;stroke-width:0.5;" x1="428.2" x2="614.7474" y1="47" y2="47"/></g><!--class src.auto_pass.keepassxc.KeepassXCStoreConfig--><g class="entity" data-qualified-name="src.auto_pass.keepassxc.KeepassXCStoreConfig" data-source-line="8" id="ent0005"><rect fill="#F1F1F1" height="219.6113" rx="2.5" ry="2.5" style="stroke:#181818;stroke-width:0.5;" width="312.9429" x="7" y="115"/><ellipse cx="84.5807" cy="131" fill="#ADD1B2" rx="11" ry="11" style="stroke:#181818;stroke-width:1;"/><path d="M84.6901,126.5313 Q83.7682,126.5313 83.0339,126.8438 Q82.3151,127.1563 81.8151,127.75 Q81.3151,128.3281 81.0339,129.2031 Q80.7682,130.0781 80.7682,131.1719 Q80.7682,132.6094 81.2057,133.6563 Q81.6589,134.7031 82.5026,135.25 Q83.362,135.7969 84.6745,135.7969 Q85.4557,135.7969 86.1432,135.6719 Q86.8464,135.5313 87.8464,135.2188 L87.8464,137.0938 Q86.987,137.4219 86.2214,137.5469 Q85.4714,137.6719 84.4557,137.6719 Q82.5339,137.6719 81.2214,136.875 Q79.9245,136.0625 79.2682,134.5938 Q78.612,133.1094 78.612,131.1406 Q78.612,129.7188 79.0026,128.5469 Q79.4089,127.3594 80.1901,126.4844 Q80.9714,125.6094 82.112,125.1406 Q83.2526,124.6563 84.7214,124.6563 Q85.6745,124.6563 86.5651,124.8594 Q87.4714,125.0469 88.4089,125.5156 L87.5807,127.2969 Q86.7995,126.9219 86.1432,126.7344 Q85.487,126.5313 84.6901,126.5313 Z " fill="#000000"/><text fill="#000000" font-family="sans-serif" font-size="14" lengthAdjust="spacing" textLength="149.2814" x="105.0807" y="136.432">KeepassXCStoreConfig</text><line style="stroke:#181818;stroke-width:0.5;" x1="8" x2="318.9429" y1="147" y2="147"/><text fill="#000000" font-family="sans-serif" font-size="14" lengthAdjust="spacing" textLength="143.8914" x="13" y="165.9659">database_key_file : str</text><text fill="#000000" font-family="sans-serif" font-size="14" lengthAdjust="spacing" textLength="285.8649" x="13" y="185.0339">database_key_file_env_names : tuple[str, ...]</text><text fill="#000000" font-family="sans-serif" font-size="14" lengthAdjust="spacing" textLength="227.2472" x="13" y="204.1018">database_password_cache_dir : str</text><text fill="#000000" font-family="sans-serif" font-size="14" lengthAdjust="spacing" textLength="273.993" x="13" y="223.1697">database_password_cache_enabled : bool</text><text fill="#000000" font-family="sans-serif" font-size="14" lengthAdjust="spacing" textLength="229.1791" x="13" y="242.2376">database_password_cache_file : str</text><text fill="#000000" font-family="sans-serif" font-size="14" lengthAdjust="spacing" textLength="282.7149" x="13" y="261.3055">database_password_cache_ttl_seconds : int</text><text fill="#000000" font-family="sans-serif" font-size="14" lengthAdjust="spacing" textLength="300.9429" x="13" y="280.3734">database_password_env_names : tuple[str, ...]</text><text fill="#000000" font-family="sans-serif" font-size="14" lengthAdjust="spacing" textLength="125.3976" x="13" y="299.4414">database_path : str</text><text fill="#000000" font-family="sans-serif" font-size="14" lengthAdjust="spacing" textLength="267.371" x="13" y="318.5093">database_path_env_names : tuple[str, ...]</text><line style="stroke:#181818;stroke-width:0.5;" x1="8" x2="318.9429" y1="326.6113" y2="326.6113"/></g><!--class src.auto_pass.notifications.PasswordRetrievalNotificationConfig--><g class="entity" data-qualified-name="src.auto_pass.notifications.PasswordRetrievalNotificationConfig" data-source-line="19" id="ent0006"><rect fill="#F1F1F1" height="162.4075" rx="2.5" ry="2.5" style="stroke:#181818;stroke-width:0.5;" width="272.7011" x="355.12" y="143.6"/><ellipse cx="370.12" cy="159.6" fill="#ADD1B2" rx="11" ry="11" style="stroke:#181818;stroke-width:1;"/><path d="M370.2294,155.1313 Q369.3075,155.1313 368.5731,155.4438 Q367.8544,155.7563 367.3544,156.35 Q366.8544,156.9281 366.5731,157.8031 Q366.3075,158.6781 366.3075,159.7719 Q366.3075,161.2094 366.745,162.2563 Q367.1981,163.3031 368.0419,163.85 Q368.9013,164.3969 370.2138,164.3969 Q370.995,164.3969 371.6825,164.2719 Q372.3856,164.1313 373.3856,163.8188 L373.3856,165.6938 Q372.5263,166.0219 371.7606,166.1469 Q371.0106,166.2719 369.995,166.2719 Q368.0731,166.2719 366.7606,165.475 Q365.4638,164.6625 364.8075,163.1938 Q364.1513,161.7094 364.1513,159.7406 Q364.1513,158.3188 364.5419,157.1469 Q364.9481,155.9594 365.7294,155.0844 Q366.5106,154.2094 367.6513,153.7406 Q368.7919,153.2563 370.2606,153.2563 Q371.2138,153.2563 372.1044,153.4594 Q373.0106,153.6469 373.9481,154.1156 L373.12,155.8969 Q372.3388,155.5219 371.6825,155.3344 Q371.0263,155.1313 370.2294,155.1313 Z " fill="#000000"/><text fill="#000000" font-family="sans-serif" font-size="14" lengthAdjust="spacing" textLength="240.7011" x="384.12" y="165.032">PasswordRetrievalNotificationConfig</text><line style="stroke:#181818;stroke-width:0.5;" x1="356.12" x2="626.8211" y1="175.6" y2="175.6"/><text fill="#000000" font-family="sans-serif" font-size="14" lengthAdjust="spacing" textLength="160.6074" x="361.12" y="194.5659">email_config_path : Path</text><text fill="#000000" font-family="sans-serif" font-size="14" lengthAdjust="spacing" textLength="84.3777" x="361.12" y="213.6339">email_to : str</text><text fill="#000000" font-family="sans-serif" font-size="14" lengthAdjust="spacing" textLength="151.5774" x="361.12" y="232.7018">shock_relay_root : Path</text><text fill="#000000" font-family="sans-serif" font-size="14" lengthAdjust="spacing" textLength="163.5894" x="361.12" y="251.7697">signal_config_path : Path</text><text fill="#000000" font-family="sans-serif" font-size="14" lengthAdjust="spacing" textLength="87.3597" x="361.12" y="270.8376">signal_to : str</text><text fill="#000000" font-family="sans-serif" font-size="14" lengthAdjust="spacing" textLength="120.1615" x="361.12" y="289.9055">subject_prefix : str</text><line style="stroke:#181818;stroke-width:0.5;" x1="356.12" x2="626.8211" y1="298.0075" y2="298.0075"/></g><!--class src.auto_pass.notifications.PasswordRetrievalNotificationError--><g class="entity" data-qualified-name="src.auto_pass.notifications.PasswordRetrievalNotificationError" data-source-line="27" id="ent0007"><rect fill="#F1F1F1" height="48" rx="2.5" ry="2.5" style="stroke:#181818;stroke-width:0.5;" width="263.2931" x="662.82" y="200.8"/><ellipse cx="677.82" cy="216.8" fill="#ADD1B2" rx="11" ry="11" style="stroke:#181818;stroke-width:1;"/><path d="M677.9294,212.3313 Q677.0075,212.3313 676.2731,212.6438 Q675.5544,212.9563 675.0544,213.55 Q674.5544,214.1281 674.2731,215.0031 Q674.0075,215.8781 674.0075,216.9719 Q674.0075,218.4094 674.445,219.4563 Q674.8981,220.5031 675.7419,221.05 Q676.6013,221.5969 677.9138,221.5969 Q678.695,221.5969 679.3825,221.4719 Q680.0856,221.3313 681.0856,221.0188 L681.0856,222.8938 Q680.2263,223.2219 679.4606,223.3469 Q678.7106,223.4719 677.695,223.4719 Q675.7731,223.4719 674.4606,222.675 Q673.1638,221.8625 672.5075,220.3938 Q671.8513,218.9094 671.8513,216.9406 Q671.8513,215.5188 672.2419,214.3469 Q672.6481,213.1594 673.4294,212.2844 Q674.2106,211.4094 675.3513,210.9406 Q676.4919,210.4563 677.9606,210.4563 Q678.9138,210.4563 679.8044,210.6594 Q680.7106,210.8469 681.6481,211.3156 L680.82,213.0969 Q680.0388,212.7219 679.3825,212.5344 Q678.7263,212.3313 677.9294,212.3313 Z " fill="#000000"/><text fill="#FF0000" font-family="sans-serif" font-size="14" lengthAdjust="spacing" textLength="231.2931" x="691.82" y="222.232">PasswordRetrievalNotificationError</text><line style="stroke:#181818;stroke-width:0.5;" x1="663.82" x2="925.1131" y1="232.8" y2="232.8"/><line style="stroke:#181818;stroke-width:0.5;" x1="663.82" x2="925.1131" y1="240.8" y2="240.8"/></g><!--class src.auto_pass.keepassxc.ResolvedKeepassContext--><g class="entity" data-qualified-name="src.auto_pass.keepassxc.ResolvedKeepassContext" data-source-line="29" id="ent0008"><rect fill="#F1F1F1" height="143.3396" rx="2.5" ry="2.5" style="stroke:#181818;stroke-width:0.5;" width="196.7234" x="65.11" y="394.61"/><ellipse cx="80.11" cy="410.61" fill="#ADD1B2" rx="11" ry="11" style="stroke:#181818;stroke-width:1;"/><path d="M80.2194,406.1413 Q79.2975,406.1413 78.5631,406.4538 Q77.8444,406.7663 77.3444,407.36 Q76.8444,407.9381 76.5631,408.8131 Q76.2975,409.6881 76.2975,410.7819 Q76.2975,412.2194 76.735,413.2663 Q77.1881,414.3131 78.0319,414.86 Q78.8913,415.4069 80.2038,415.4069 Q80.985,415.4069 81.6725,415.2819 Q82.3756,415.1413 83.3756,414.8288 L83.3756,416.7038 Q82.5163,417.0319 81.7506,417.1569 Q81.0006,417.2819 79.985,417.2819 Q78.0631,417.2819 76.7506,416.485 Q75.4538,415.6725 74.7975,414.2038 Q74.1413,412.7194 74.1413,410.7506 Q74.1413,409.3288 74.5319,408.1569 Q74.9381,406.9694 75.7194,406.0944 Q76.5006,405.2194 77.6413,404.7506 Q78.7819,404.2663 80.2506,404.2663 Q81.2038,404.2663 82.0944,404.4694 Q83.0006,404.6569 83.9381,405.1256 L83.11,406.9069 Q82.3288,406.5319 81.6725,406.3444 Q81.0163,406.1413 80.2194,406.1413 Z " fill="#000000"/><text fill="#000000" font-family="sans-serif" font-size="14" lengthAdjust="spacing" textLength="164.7234" x="94.11" y="416.042">ResolvedKeepassContext</text><line style="stroke:#181818;stroke-width:0.5;" x1="66.11" x2="260.8334" y1="426.61" y2="426.61"/><text fill="#000000" font-family="sans-serif" font-size="14" lengthAdjust="spacing" textLength="115.7516" x="71.11" y="445.5759">db_password : str</text><text fill="#000000" font-family="sans-serif" font-size="14" lengthAdjust="spacing" textLength="82.1797" x="71.11" y="464.6439">db_path : str</text><text fill="#000000" font-family="sans-serif" font-size="14" lengthAdjust="spacing" textLength="166.7113" x="71.11" y="483.7118">interactive_allowed : bool</text><text fill="#000000" font-family="sans-serif" font-size="14" lengthAdjust="spacing" textLength="77.2377" x="71.11" y="502.7797">key_file : str</text><text fill="#000000" font-family="sans-serif" font-size="14" lengthAdjust="spacing" textLength="165.8994" x="71.11" y="521.8476">password_env_name : str</text><line style="stroke:#181818;stroke-width:0.5;" x1="66.11" x2="260.8334" y1="529.9496" y2="529.9496"/></g><?plantuml-src bPDDQm8n48Rl_HN1Sqdl8hrO2wLGfBqKIWcpoQYfCRCaurOf_U_DwhgkxlhHqyBEC-zaFjw8B3miCEQWyGrp2C0KX2UFDzf1ZA8tqEGez0EQ-mTWo23YapUu6eL0ON2tYTxt14GHWvQmP59vIfGcioKcsqdYv-QtGttaYqVhy98k-cAICDd4JoW-8vOfGreim9jBmlCjlTAo8wzPeGg_3z_Ih718VcAdr-WT92H18Kmr6pN7jIgx4dqHENH5LEfRRLQL65xc3ZyIUIkab9zDlYpqJS4e3Ng6ojZGrZnYq4Fcq2Gk8t9dmEuN7a7CJaNKv4tvKkkvaxsw6vvrLUJPMOLwLUEgtYjoi5Y0Uo6s4wk1BVcJc_CDACehD3RBn0LOf_Jcn-xXu_IfGqnrAt56Ugu2EbYhGCHxDDgfXnCoLQofiyo-KBFA0qxiglhTPOMpJLnonZ_cqJBBAqPo1PhQKvvnnMVjqfsoDKnMdz3-BBB3CqadXm4qsm8LE4VVpTDk6QrraRiX_W40?></g></svg>
