<?plantuml 1.2026.2?><svg xmlns="http://www.w3.org/2000/svg" xmlns:xlink="http://www.w3.org/1999/xlink" contentStyleType="text/css" data-diagram-type="DESCRIPTION" height="738px" preserveAspectRatio="none" style="width:1309px;height:738px;background:#FFFFFF;" version="1.1" viewBox="0 0 1309 738" width="1309px" zoomAndPan="magnify"><defs/><g><!--entity conftest--><g class="entity" data-qualified-name="conftest" data-source-line="4" id="ent0002"><rect fill="#F1F1F1" height="58.1358" rx="2.5" ry="2.5" style="stroke:#181818;stroke-width:0.5;" width="101.8017" x="266.54" y="26.07"/><text fill="#000000" font-family="sans-serif" font-size="14" lengthAdjust="spacing" textLength="53.3678" x="276.54" y="51.0359">conftest</text><text fill="#000000" font-family="sans-serif" font-size="14" lengthAdjust="spacing" textLength="81.8017" x="276.54" y="70.1039">1 python file</text></g><!--entity src.auto_pass--><g class="entity" data-qualified-name="src.auto_pass" data-source-line="5" id="ent0003"><rect fill="#F1F1F1" height="96.2717" rx="2.5" ry="2.5" style="stroke:#181818;stroke-width:0.5;" width="205.9333" x="1097.47" y="163.28"/><text fill="#000000" font-family="sans-serif" font-size="14" lengthAdjust="spacing" textLength="89.0817" x="1107.47" y="188.2459">src.auto_pass</text><text fill="#000000" font-family="sans-serif" font-size="14" lengthAdjust="spacing" textLength="155.2734" x="1107.47" y="207.3139">1 child pkg, 10 modules</text><text fill="#000000" font-family="sans-serif" font-size="14" lengthAdjust="spacing" textLength="96.5156" x="1107.47" y="226.3818">15 python files</text><text fill="#000000" font-family="sans-serif" font-size="14" lengthAdjust="spacing" textLength="66.8217" x="1107.47" y="245.4497">examples:</text><text fill="#000000" font-family="sans-serif" font-size="14" lengthAdjust="spacing" text-decoration="underline" textLength="33.2079" x="1177.9317" y="245.4497">main</text><text fill="#000000" font-family="sans-serif" font-size="14" lengthAdjust="spacing" textLength="82.2637" x="1211.1396" y="245.4497">, allowlist, cli</text></g><!--entity src.auto_pass.__main__--><g class="entity" data-qualified-name="src.auto_pass.__main__" data-source-line="6" id="ent0004"><rect fill="#F1F1F1" height="58.1358" rx="2.5" ry="2.5" style="stroke:#181818;stroke-width:0.5;" width="146.0415" x="403.42" y="26.07"/><text fill="#000000" font-family="sans-serif" font-size="14" lengthAdjust="spacing" textLength="92.8337" x="413.42" y="51.0359">src.auto_pass.</text><text fill="#000000" font-family="sans-serif" font-size="14" lengthAdjust="spacing" text-decoration="underline" textLength="33.2079" x="506.2537" y="51.0359">main</text><text fill="#000000" font-family="sans-serif" font-size="14" lengthAdjust="spacing" textLength="81.8017" x="413.42" y="70.1039">1 python file</text></g><!--entity src.auto_pass.allowlist--><g class="entity" data-qualified-name="src.auto_pass.allowlist" data-source-line="7" id="ent0005"><rect fill="#F1F1F1" height="58.1358" rx="2.5" ry="2.5" style="stroke:#181818;stroke-width:0.5;" width="166.3695" x="535.25" y="437.68"/><text fill="#000000" font-family="sans-serif" font-size="14" lengthAdjust="spacing" textLength="146.3695" x="545.25" y="462.6459">src.auto_pass.allowlist</text><text fill="#000000" font-family="sans-serif" font-size="14" lengthAdjust="spacing" textLength="81.8017" x="545.25" y="481.7139">1 python file</text></g><!--entity src.auto_pass.cli--><g class="entity" data-qualified-name="src.auto_pass.cli" data-source-line="8" id="ent0006"><rect fill="#F1F1F1" height="58.1358" rx="2.5" ry="2.5" style="stroke:#181818;stroke-width:0.5;" width="126.7776" x="413.05" y="182.34"/><text fill="#000000" font-family="sans-serif" font-size="14" lengthAdjust="spacing" textLength="106.7776" x="423.05" y="207.3059">src.auto_pass.cli</text><text fill="#000000" font-family="sans-serif" font-size="14" lengthAdjust="spacing" textLength="81.8017" x="423.05" y="226.3739">1 python file</text></g><!--entity src.auto_pass.client--><g class="entity" data-qualified-name="src.auto_pass.client" data-source-line="9" id="ent0007"><rect fill="#F1F1F1" height="58.1358" rx="2.5" ry="2.5" style="stroke:#181818;stroke-width:0.5;" width="148.3795" x="653.25" y="319.55"/><text fill="#000000" font-family="sans-serif" font-size="14" lengthAdjust="spacing" textLength="128.3795" x="663.25" y="344.5159">src.auto_pass.client</text><text fill="#000000" font-family="sans-serif" font-size="14" lengthAdjust="spacing" textLength="81.8017" x="663.25" y="363.5839">1 python file</text></g><!--entity src.auto_pass.dbindex--><g class="entity" data-qualified-name="src.auto_pass.dbindex" data-source-line="10" id="ent0008"><rect fill="#F1F1F1" height="58.1358" rx="2.5" ry="2.5" style="stroke:#181818;stroke-width:0.5;" width="166.2295" x="753.32" y="437.68"/><text fill="#000000" font-family="sans-serif" font-size="14" lengthAdjust="spacing" textLength="146.2295" x="763.32" y="462.6459">src.auto_pass.dbindex</text><text fill="#000000" font-family="sans-serif" font-size="14" lengthAdjust="spacing" textLength="81.8017" x="763.32" y="481.7139">1 python file</text></g><!--entity src.auto_pass.envfile--><g class="entity" data-qualified-name="src.auto_pass.envfile" data-source-line="11" id="ent0009"><rect fill="#F1F1F1" height="58.1358" rx="2.5" ry="2.5" style="stroke:#181818;stroke-width:0.5;" width="156.4295" x="966.22" y="673.95"/><text fill="#000000" font-family="sans-serif" font-size="14" lengthAdjust="spacing" textLength="136.4295" x="976.22" y="698.9159">src.auto_pass.envfile</text><text fill="#000000" font-family="sans-serif" font-size="14" lengthAdjust="spacing" textLength="81.8017" x="976.22" y="717.9839">1 python file</text></g><!--entity src.auto_pass.keepassxc--><g class="entity" data-qualified-name="src.auto_pass.keepassxc" data-source-line="12" id="ent0010"><rect fill="#F1F1F1" height="58.1358" rx="2.5" ry="2.5" style="stroke:#181818;stroke-width:0.5;" width="180.1034" x="954.39" y="437.68"/><text fill="#000000" font-family="sans-serif" font-size="14" lengthAdjust="spacing" textLength="160.1034" x="964.39" y="462.6459">src.auto_pass.keepassxc</text><text fill="#000000" font-family="sans-serif" font-size="14" lengthAdjust="spacing" textLength="81.8017" x="964.39" y="481.7139">1 python file</text></g><!--entity src.auto_pass.notifications--><g class="entity" data-qualified-name="src.auto_pass.notifications" data-source-line="13" id="ent0011"><rect fill="#F1F1F1" height="58.1358" rx="2.5" ry="2.5" style="stroke:#181818;stroke-width:0.5;" width="194.1174" x="947.38" y="555.82"/><text fill="#000000" font-family="sans-serif" font-size="14" lengthAdjust="spacing" textLength="174.1174" x="957.38" y="580.7859">src.auto_pass.notifications</text><text fill="#000000" font-family="sans-serif" font-size="14" lengthAdjust="spacing" textLength="81.8017" x="957.38" y="599.8539">1 python file</text></g><!--entity src.auto_pass.rotation--><g class="entity" data-qualified-name="src.auto_pass.rotation" data-source-line="14" id="ent0012"><rect fill="#F1F1F1" height="58.1358" rx="2.5" ry="2.5" style="stroke:#181818;stroke-width:0.5;" width="165.7815" x="1049.55" y="319.55"/><text fill="#000000" font-family="sans-serif" font-size="14" lengthAdjust="spacing" textLength="145.7815" x="1059.55" y="344.5159">src.auto_pass.rotation</text><text fill="#000000" font-family="sans-serif" font-size="14" lengthAdjust="spacing" textLength="81.8017" x="1059.55" y="363.5839">1 python file</text></g><!--entity src.auto_pass.server--><g class="entity" data-qualified-name="src.auto_pass.server" data-source-line="15" id="ent0013"><rect fill="#F1F1F1" height="58.1358" rx="2.5" ry="2.5" style="stroke:#181818;stroke-width:0.5;" width="154.0075" x="464.44" y="319.55"/><text fill="#000000" font-family="sans-serif" font-size="14" lengthAdjust="spacing" textLength="134.0075" x="474.44" y="344.5159">src.auto_pass.server</text><text fill="#000000" font-family="sans-serif" font-size="14" lengthAdjust="spacing" textLength="81.8017" x="474.44" y="363.5839">1 python file</text></g><!--entity src.auto_pass.web--><g class="entity" data-qualified-name="src.auto_pass.web" data-source-line="16" id="ent0014"><rect fill="#F1F1F1" height="96.2717" rx="2.5" ry="2.5" style="stroke:#181818;stroke-width:0.5;" width="194.3133" x="584.28" y="7"/><text fill="#000000" font-family="sans-serif" font-size="14" lengthAdjust="spacing" textLength="120.3436" x="594.28" y="31.9659">src.auto_pass.web</text><text fill="#000000" font-family="sans-serif" font-size="14" lengthAdjust="spacing" textLength="147.2654" x="594.28" y="51.0339">0 child pkg, 3 modules</text><text fill="#000000" font-family="sans-serif" font-size="14" lengthAdjust="spacing" textLength="88.5076" x="594.28" y="70.1018">4 python files</text><text fill="#000000" font-family="sans-serif" font-size="14" lengthAdjust="spacing" textLength="174.3133" x="594.28" y="89.1697">examples: app, audit, auth</text></g><!--entity src.auto_pass.web.app--><g class="entity" data-qualified-name="src.auto_pass.web.app" data-source-line="17" id="ent0015"><rect fill="#F1F1F1" height="58.1358" rx="2.5" ry="2.5" style="stroke:#181818;stroke-width:0.5;" width="169.1694" x="117.85" y="319.55"/><text fill="#000000" font-family="sans-serif" font-size="14" lengthAdjust="spacing" textLength="149.1694" x="127.85" y="344.5159">src.auto_pass.web.app</text><text fill="#000000" font-family="sans-serif" font-size="14" lengthAdjust="spacing" textLength="81.8017" x="127.85" y="363.5839">1 python file</text></g><!--entity src.auto_pass.web.audit--><g class="entity" data-qualified-name="src.auto_pass.web.audit" data-source-line="18" id="ent0016"><rect fill="#F1F1F1" height="58.1358" rx="2.5" ry="2.5" style="stroke:#181818;stroke-width:0.5;" width="177.8774" x="113.5" y="437.68"/><text fill="#000000" font-family="sans-serif" font-size="14" lengthAdjust="spacing" textLength="157.8774" x="123.5" y="462.6459">src.auto_pass.web.audit</text><text fill="#000000" font-family="sans-serif" font-size="14" lengthAdjust="spacing" textLength="81.8017" x="123.5" y="481.7139">1 python file</text></g><!--entity src.auto_pass.web.auth--><g class="entity" data-qualified-name="src.auto_pass.web.auth" data-source-line="19" id="ent0017"><rect fill="#F1F1F1" height="58.1358" rx="2.5" ry="2.5" style="stroke:#181818;stroke-width:0.5;" width="174.3074" x="326.29" y="437.68"/><text fill="#000000" font-family="sans-serif" font-size="14" lengthAdjust="spacing" textLength="154.3074" x="336.29" y="462.6459">src.auto_pass.web.auth</text><text fill="#000000" font-family="sans-serif" font-size="14" lengthAdjust="spacing" textLength="81.8017" x="336.29" y="481.7139">1 python file</text></g><!--link src.auto_pass to src.auto_pass.dbindex--><g class="link" data-entity-1="ent0003" data-entity-2="ent0008" data-link-type="dependency" data-source-line="20" id="lnk18"><path d="M1123.14,260.05 C1094.36,278.21 1061.62,299.4 1032.44,319.55 C975.5,358.86 916.3575,403.7111 877.4475,433.7811" fill="none" id="src.auto_pass-to-src.auto_pass.dbindex" style="stroke:#181818;stroke-width:1;"/><polygon fill="#181818" points="872.7,437.45,882.2672,435.1116,876.6563,434.3926,877.3753,428.7816,872.7,437.45" style="stroke:#181818;stroke-width:1;"/></g><!--link src.auto_pass to src.auto_pass.envfile--><g class="link" data-entity-1="ent0003" data-entity-2="ent0009" data-link-type="dependency" data-source-line="21" id="lnk19"><path d="M1236.35,260.01 C1247.65,277.74 1258.68,298.66 1264.44,319.55 C1271.31,344.45 1269.8,352.41 1264.44,377.68 C1240.59,490.09 1230.59,523.72 1159.44,613.95 C1140.91,637.45 1119.7235,654.759 1097.0335,670.169" fill="none" id="src.auto_pass-to-src.auto_pass.envfile" style="stroke:#181818;stroke-width:1;"/><polygon fill="#181818" points="1092.07,673.54,1101.7626,671.7925,1096.2063,670.7308,1097.2679,665.1745,1092.07,673.54" style="stroke:#181818;stroke-width:1;"/></g><!--link src.auto_pass to src.auto_pass.keepassxc--><g class="link" data-entity-1="ent0003" data-entity-2="ent0010" data-link-type="dependency" data-source-line="22" id="lnk20"><path d="M1226.75,259.97 C1242.25,294.98 1254.86,342.41 1232.44,377.68 C1210.68,411.9 1177.3996,431.0579 1140.5796,444.0179" fill="none" id="src.auto_pass-to-src.auto_pass.keepassxc" style="stroke:#181818;stroke-width:1;"/><polygon fill="#181818" points="1134.92,446.01,1144.7375,446.795,1139.6364,444.3499,1142.0814,439.2488,1134.92,446.01" style="stroke:#181818;stroke-width:1;"/></g><!--link src.auto_pass to src.auto_pass.rotation--><g class="link" data-entity-1="ent0003" data-entity-2="ent0012" data-link-type="dependency" data-source-line="23" id="lnk21"><path d="M1176.66,259.7 C1166.7,279.5 1158.1457,296.4997 1149.4857,313.7197" fill="none" id="src.auto_pass-to-src.auto_pass.rotation" style="stroke:#181818;stroke-width:1;"/><polygon fill="#181818" points="1146.79,319.08,1154.4071,312.8367,1149.0364,314.6131,1147.26,309.2424,1146.79,319.08" style="stroke:#181818;stroke-width:1;"/></g><!--link src.auto_pass.__main__ to src.auto_pass.cli--><g class="link" data-entity-1="ent0004" data-entity-2="ent0006" data-link-type="dependency" data-source-line="24" id="lnk22"><path d="M476.44,84.44 C476.44,112.18 476.44,148.26 476.44,176.03" fill="none" id="src.auto_pass.__main__-to-src.auto_pass.cli" style="stroke:#181818;stroke-width:1;"/><polygon fill="#181818" points="476.44,182.03,480.44,173.03,476.44,177.03,472.44,173.03,476.44,182.03" style="stroke:#181818;stroke-width:1;"/></g><!--link src.auto_pass.cli to src.auto_pass.allowlist--><g class="link" data-entity-1="ent0006" data-entity-2="ent0005" data-link-type="dependency" data-source-line="25" id="lnk23"><path d="M460.11,240.9 C442.55,275.69 420.43,335.14 446.44,377.68 C466.04,409.74 495.8331,428.3868 529.4231,441.7168" fill="none" id="src.auto_pass.cli-to-src.auto_pass.allowlist" style="stroke:#181818;stroke-width:1;"/><polygon fill="#181818" points="535,443.93,528.1101,436.8923,530.3526,442.0857,525.1592,444.3282,535,443.93" style="stroke:#181818;stroke-width:1;"/></g><!--link src.auto_pass.cli to src.auto_pass.client--><g class="link" data-entity-1="ent0006" data-entity-2="ent0007" data-link-type="dependency" data-source-line="26" id="lnk24"><path d="M529.36,240.92 C572.08,263.93 626.6076,293.3047 669.3076,316.3047" fill="none" id="src.auto_pass.cli-to-src.auto_pass.client" style="stroke:#181818;stroke-width:1;"/><polygon fill="#181818" points="674.59,319.15,668.5632,311.3604,670.188,316.7789,664.7695,318.4036,674.59,319.15" style="stroke:#181818;stroke-width:1;"/></g><!--link src.auto_pass.cli to src.auto_pass.dbindex--><g class="link" data-entity-1="ent0006" data-entity-2="ent0008" data-link-type="dependency" data-source-line="27" id="lnk25"><path d="M540.19,212.72 C618.91,216.84 750.78,236.68 819.44,319.55 C846.75,352.51 846.3483,398.9768 842.2883,431.2768" fill="none" id="src.auto_pass.cli-to-src.auto_pass.dbindex" style="stroke:#181818;stroke-width:1;"/><polygon fill="#181818" points="841.54,437.23,846.6312,428.7991,842.1636,432.269,838.6937,427.8014,841.54,437.23" style="stroke:#181818;stroke-width:1;"/></g><!--link src.auto_pass.cli to src.auto_pass.envfile--><g class="link" data-entity-1="ent0006" data-entity-2="ent0009" data-link-type="dependency" data-source-line="28" id="lnk26"><path d="M412.69,219.53 C307.16,232.75 103.37,264.83 59.44,319.55 C10.37,380.65 6,435.01 55.44,495.82 C170.65,637.52 746.8908,684.7796 960.0808,697.6096" fill="none" id="src.auto_pass.cli-to-src.auto_pass.envfile" style="stroke:#181818;stroke-width:1;"/><polygon fill="#181818" points="966.07,697.97,957.3265,693.4366,961.079,697.6696,956.846,701.4221,966.07,697.97" style="stroke:#181818;stroke-width:1;"/></g><!--link src.auto_pass.cli to src.auto_pass.keepassxc--><g class="link" data-entity-1="ent0006" data-entity-2="ent0010" data-link-type="dependency" data-source-line="29" id="lnk27"><path d="M540.04,222.58 C617.81,236.73 751.98,266.76 856.44,319.55 C918.62,350.97 976.0156,400.2633 1010.9856,433.0933" fill="none" id="src.auto_pass.cli-to-src.auto_pass.keepassxc" style="stroke:#181818;stroke-width:1;"/><polygon fill="#181818" points="1015.36,437.2,1011.5362,428.1237,1011.7147,433.7778,1006.0606,433.9562,1015.36,437.2" style="stroke:#181818;stroke-width:1;"/></g><!--link src.auto_pass.cli to src.auto_pass.notifications--><g class="link" data-entity-1="ent0006" data-entity-2="ent0011" data-link-type="dependency" data-source-line="30" id="lnk28"><path d="M412.67,221.46 C315.83,236.62 138.85,270.42 100.44,319.55 C52.17,381.28 43.65,437.9 96.44,495.82 C152.98,557.86 710.6315,576.7541 941.0615,581.9741" fill="none" id="src.auto_pass.cli-to-src.auto_pass.notifications" style="stroke:#181818;stroke-width:1;"/><polygon fill="#181818" points="947.06,582.11,938.1529,577.9072,942.0613,581.9968,937.9717,585.9051,947.06,582.11" style="stroke:#181818;stroke-width:1;"/></g><!--link src.auto_pass.cli to src.auto_pass.rotation--><g class="link" data-entity-1="ent0006" data-entity-2="ent0012" data-link-type="dependency" data-source-line="31" id="lnk29"><path d="M540.23,225.56 C659.52,250.15 910.3935,301.8489 1043.2035,329.2189" fill="none" id="src.auto_pass.cli-to-src.auto_pass.rotation" style="stroke:#181818;stroke-width:1;"/><polygon fill="#181818" points="1049.08,330.43,1041.0726,324.6957,1044.1829,329.4208,1039.4579,332.5311,1049.08,330.43" style="stroke:#181818;stroke-width:1;"/></g><!--link src.auto_pass.cli to src.auto_pass.server--><g class="link" data-entity-1="ent0006" data-entity-2="ent0013" data-link-type="dependency" data-source-line="32" id="lnk30"><path d="M490.06,240.75 C501.16,263.83 514.1405,290.8324 525.2305,313.9024" fill="none" id="src.auto_pass.cli-to-src.auto_pass.server" style="stroke:#181818;stroke-width:1;"/><polygon fill="#181818" points="527.83,319.31,527.5358,309.4655,525.6637,314.8036,520.3256,312.9316,527.83,319.31" style="stroke:#181818;stroke-width:1;"/></g><!--link src.auto_pass.cli to src.auto_pass.web.app--><g class="link" data-entity-1="ent0006" data-entity-2="ent0015" data-link-type="dependency" data-source-line="33" id="lnk31"><path d="M418.67,240.92 C372.03,263.93 312.1206,293.4949 265.5106,316.4949" fill="none" id="src.auto_pass.cli-to-src.auto_pass.web.app" style="stroke:#181818;stroke-width:1;"/><polygon fill="#181818" points="260.13,319.15,269.9709,318.7544,264.6138,316.9374,266.4308,311.5803,260.13,319.15" style="stroke:#181818;stroke-width:1;"/></g><!--link src.auto_pass.cli to src.auto_pass.web.auth--><g class="link" data-entity-1="ent0006" data-entity-2="ent0017" data-link-type="dependency" data-source-line="34" id="lnk32"><path d="M442.28,240.86 C421.48,260.52 396.8,288.62 385.44,319.55 C370.96,358.97 383.7504,401.7464 396.7804,431.7564" fill="none" id="src.auto_pass.cli-to-src.auto_pass.web.auth" style="stroke:#181818;stroke-width:1;"/><polygon fill="#181818" points="399.17,437.26,399.2547,427.4115,397.1787,432.6737,391.9165,430.5976,399.17,437.26" style="stroke:#181818;stroke-width:1;"/></g><!--link src.auto_pass.keepassxc to src.auto_pass.notifications--><g class="link" data-entity-1="ent0010" data-entity-2="ent0011" data-link-type="dependency" data-source-line="35" id="lnk33"><path d="M1032.97,496.16 C1030.77,514.16 1030.0329,531.3942 1032.2329,549.4142" fill="none" id="src.auto_pass.keepassxc-to-src.auto_pass.notifications" style="stroke:#181818;stroke-width:1;"/><polygon fill="#181818" points="1032.96,555.37,1035.8398,545.9516,1032.3541,550.4069,1027.8988,546.9211,1032.96,555.37" style="stroke:#181818;stroke-width:1;"/></g><!--link src.auto_pass.notifications to src.auto_pass.keepassxc--><g class="link" data-entity-1="ent0011" data-entity-2="ent0010" data-link-type="dependency" data-source-line="37" id="lnk35"><path d="M1055.92,555.37 C1058.12,537.35 1058.8379,520.1157 1056.6379,502.1157" fill="none" id="src.auto_pass.notifications-to-src.auto_pass.keepassxc" style="stroke:#181818;stroke-width:1;"/><polygon fill="#181818" points="1055.91,496.16,1053.0314,505.5788,1056.5166,501.1231,1060.9723,504.6082,1055.91,496.16" style="stroke:#181818;stroke-width:1;"/></g><!--link src.auto_pass.notifications to src.auto_pass.envfile--><g class="link" data-entity-1="ent0011" data-entity-2="ent0009" data-link-type="dependency" data-source-line="36" id="lnk34"><path d="M1044.44,614.3 C1044.44,632.29 1044.44,649.49 1044.44,667.5" fill="none" id="src.auto_pass.notifications-to-src.auto_pass.envfile" style="stroke:#181818;stroke-width:1;"/><polygon fill="#181818" points="1044.44,673.5,1048.44,664.5,1044.44,668.5,1040.44,664.5,1044.44,673.5" style="stroke:#181818;stroke-width:1;"/></g><!--link src.auto_pass.rotation to src.auto_pass.keepassxc--><g class="link" data-entity-1="ent0012" data-entity-2="ent0010" data-link-type="dependency" data-source-line="38" id="lnk36"><path d="M1110.91,378.02 C1097.27,396.02 1083.3229,414.4273 1069.6729,432.4473" fill="none" id="src.auto_pass.rotation-to-src.auto_pass.keepassxc" style="stroke:#181818;stroke-width:1;"/><polygon fill="#181818" points="1066.05,437.23,1074.6728,432.4711,1069.0691,433.2444,1068.2958,427.6406,1066.05,437.23" style="stroke:#181818;stroke-width:1;"/></g><!--link src.auto_pass.server to src.auto_pass.allowlist--><g class="link" data-entity-1="ent0013" data-entity-2="ent0005" data-link-type="dependency" data-source-line="39" id="lnk37"><path d="M560.28,378.02 C572.21,396.02 584.264,414.2096 596.214,432.2296" fill="none" id="src.auto_pass.server-to-src.auto_pass.allowlist" style="stroke:#181818;stroke-width:1;"/><polygon fill="#181818" points="599.53,437.23,597.8896,427.5187,596.7666,433.063,591.2224,431.9401,599.53,437.23" style="stroke:#181818;stroke-width:1;"/></g><!--link src.auto_pass.server to src.auto_pass.dbindex--><g class="link" data-entity-1="ent0013" data-entity-2="ent0008" data-link-type="dependency" data-source-line="40" id="lnk38"><path d="M613.98,378.17 C659.62,396.14 712.7069,417.0425 758.3369,435.0025" fill="none" id="src.auto_pass.server-to-src.auto_pass.dbindex" style="stroke:#181818;stroke-width:1;"/><polygon fill="#181818" points="763.92,437.2,757.0104,430.1817,759.2674,435.3687,754.0804,437.6258,763.92,437.2" style="stroke:#181818;stroke-width:1;"/></g><!--link src.auto_pass.server to src.auto_pass.keepassxc--><g class="link" data-entity-1="ent0013" data-entity-2="ent0010" data-link-type="dependency" data-source-line="41" id="lnk39"><path d="M618.74,373.32 C624.37,374.86 629.98,376.33 635.44,377.68 C768.26,410.63 804.08,406.97 937.44,437.68 C942.87,438.93 942.6113,438.8366 948.2213,440.2066" fill="none" id="src.auto_pass.server-to-src.auto_pass.keepassxc" style="stroke:#181818;stroke-width:1;"/><polygon fill="#181818" points="954.05,441.63,946.2559,435.6091,949.1927,440.4438,944.358,443.3807,954.05,441.63" style="stroke:#181818;stroke-width:1;"/></g><!--link src.auto_pass.web.app to src.auto_pass.web.audit--><g class="link" data-entity-1="ent0015" data-entity-2="ent0016" data-link-type="dependency" data-source-line="42" id="lnk40"><path d="M202.44,378.02 C202.44,396.02 202.44,413.21 202.44,431.23" fill="none" id="src.auto_pass.web.app-to-src.auto_pass.web.audit" style="stroke:#181818;stroke-width:1;"/><polygon fill="#181818" points="202.44,437.23,206.44,428.23,202.44,432.23,198.44,428.23,202.44,437.23" style="stroke:#181818;stroke-width:1;"/></g><!--link src.auto_pass.web.app to src.auto_pass.web.auth--><g class="link" data-entity-1="ent0015" data-entity-2="ent0017" data-link-type="dependency" data-source-line="43" id="lnk41"><path d="M254.33,378.17 C287.03,396.17 323.8339,416.4264 356.4939,434.4064" fill="none" id="src.auto_pass.web.app-to-src.auto_pass.web.auth" style="stroke:#181818;stroke-width:1;"/><polygon fill="#181818" points="361.75,437.3,355.7949,429.4555,357.3699,434.8887,351.9367,436.4637,361.75,437.3" style="stroke:#181818;stroke-width:1;"/></g><?plantuml-src bPJDRiCW383lUGfhvwvQjUsomrwYrqaH9Uw2IW05j-lUVj3cfz5meQT4yFa3Z8r70YCwz4v8tA8JlI3RWx46Ax8EoCBE4jaE6jMZ96LDvG_AHB03QJiNI4DR-jK84H3cMsCr_S6Jj6PFwEdBRC3zKciDx9N69n0UnhbRtlToBOvaQoUyZq6oLRe1T_XUmUO5EjiSDSQ9zrjT6C2pw5pu-u2wxeGoTRq2eRNzqShJ2gHMbpKNVdRXzUX8RJjDygvf5tdPXFAsS92y9q1t3U7EYYI1uptDJfa6ptdH0F8cDASOcZSD86yw8CRlMUPT4yhRZ2MrLrB4klTvumBdhRsb2v8NZYJlyjYViC-RhXpl-S7TbtcvRRRNkTVUs5OJpeKkEpQAueVQnCh1V7VPTN3azp-06LFSIA4heZaRjQKoQgl5C3m_Vp9DaEF64iznS_dcoAcAqWzN8Y8-7_z64jpyN9NGmtjIWYQJnR39X34iapI6NlPpIGIJwZGyz6G9EfP_CVkl8kUZFtZGnLnn-dDHt4MC2NmWv9h61wgJ3KXN7Ojp6nekYxsQ-F8y5a7j7m00?></g></svg>
