<?plantuml 1.2026.2?><svg xmlns="http://www.w3.org/2000/svg" xmlns:xlink="http://www.w3.org/1999/xlink" contentStyleType="text/css" data-diagram-type="CLASS" height="697px" preserveAspectRatio="none" style="width:1302px;height:697px;background:#FFFFFF;" version="1.1" viewBox="0 0 1302 697" width="1302px" zoomAndPan="magnify"><defs/><g><!--class src.auto_pass.allowlist.AllowlistEnforcer--><g class="entity" data-qualified-name="src.auto_pass.allowlist.AllowlistEnforcer" data-source-line="2" id="ent0002"><rect fill="#F1F1F1" height="162.4075" rx="2.5" ry="2.5" style="stroke:#181818;stroke-width:0.5;" width="378.4067" x="7" y="7"/><ellipse cx="136.6886" cy="23" fill="#ADD1B2" rx="11" ry="11" style="stroke:#181818;stroke-width:1;"/><path d="M136.7979,18.2813 Q135.8761,18.2813 135.1417,18.5938 Q134.4229,18.9063 133.9229,19.5 Q133.4229,20.0781 133.1417,20.9531 Q132.8761,21.8281 132.8761,22.9219 Q132.8761,24.3594 133.3136,25.4063 Q133.7667,26.4531 134.6104,27 Q135.4698,27.5469 136.7823,27.5469 Q137.5636,27.5469 138.2511,27.4219 Q138.9542,27.2813 139.9542,26.9688 L139.9542,28.8438 Q139.0948,29.1719 138.3292,29.2969 Q137.5792,29.4219 136.5636,29.4219 Q134.6417,29.4219 133.3292,28.625 Q132.0323,27.8125 131.3761,26.3438 Q130.7198,24.8594 130.7198,22.8906 Q130.7198,21.4688 131.1104,20.2969 Q131.5167,19.1094 132.2979,18.2344 Q133.0792,17.3594 134.2198,16.8906 Q135.3604,16.4063 136.8292,16.4063 Q137.7823,16.4063 138.6729,16.6094 Q139.5792,16.7969 140.5167,17.2656 L139.6886,19.0469 Q138.9073,18.6719 138.2511,18.4844 Q137.5948,18.2813 136.7979,18.2813 Z " fill="#000000"/><text fill="#000000" font-family="sans-serif" font-size="14" lengthAdjust="spacing" textLength="110.5296" x="157.1886" y="28.432">AllowlistEnforcer</text><line style="stroke:#181818;stroke-width:0.5;" x1="8" x2="384.4067" y1="39" y2="39"/><line style="stroke:#181818;stroke-width:0.5;" x1="8" x2="384.4067" y1="47" y2="47"/><text fill="#000000" font-family="sans-serif" font-size="14" lengthAdjust="spacing" textLength="366.4067" x="13" y="65.9659">is_permitted(repo_id: str, db: str, entry_path: str) -&gt; bool</text><text fill="#000000" font-family="sans-serif" font-size="14" lengthAdjust="spacing" textLength="161.8674" x="13" y="85.0339">known_repos() -&gt; list[str]</text><text fill="#000000" font-family="sans-serif" font-size="14" lengthAdjust="spacing" textLength="306.3049" x="13" y="104.1018">permitted_paths(repo_id: str, db: str) -&gt; list[str]</text><text fill="#000000" font-family="sans-serif" font-size="14" lengthAdjust="spacing" textLength="106.0776" x="13" y="123.1697">reload() -&gt; None</text><text fill="#000000" font-family="sans-serif" font-size="14" lengthAdjust="spacing" textLength="292.7809" x="13" y="142.2376">repo_default_db(repo_id: str) -&gt; Optional[str]</text><text fill="#000000" font-family="sans-serif" font-size="14" lengthAdjust="spacing" textLength="224.0272" x="13" y="161.3055">repo_vaults(repo_id: str) -&gt; list[str]</text></g><!--class src.auto_pass.allowlist.AllowlistError--><g class="entity" data-qualified-name="src.auto_pass.allowlist.AllowlistError" data-source-line="10" id="ent0003"><rect fill="#F1F1F1" height="48" rx="2.5" ry="2.5" style="stroke:#181818;stroke-width:0.5;" width="120.2277" x="420.09" y="64.2"/><ellipse cx="435.09" cy="80.2" fill="#ADD1B2" rx="11" ry="11" style="stroke:#181818;stroke-width:1;"/><path d="M435.1994,75.4813 Q434.2775,75.4813 433.5431,75.7938 Q432.8244,76.1063 432.3244,76.7 Q431.8244,77.2781 431.5431,78.1531 Q431.2775,79.0281 431.2775,80.1219 Q431.2775,81.5594 431.715,82.6063 Q432.1681,83.6531 433.0119,84.2 Q433.8713,84.7469 435.1838,84.7469 Q435.965,84.7469 436.6525,84.6219 Q437.3556,84.4813 438.3556,84.1688 L438.3556,86.0438 Q437.4963,86.3719 436.7306,86.4969 Q435.9806,86.6219 434.965,86.6219 Q433.0431,86.6219 431.7306,85.825 Q430.4338,85.0125 429.7775,83.5438 Q429.1213,82.0594 429.1213,80.0906 Q429.1213,78.6688 429.5119,77.4969 Q429.9181,76.3094 430.6994,75.4344 Q431.4806,74.5594 432.6213,74.0906 Q433.7619,73.6063 435.2306,73.6063 Q436.1838,73.6063 437.0744,73.8094 Q437.9806,73.9969 438.9181,74.4656 L438.09,76.2469 Q437.3088,75.8719 436.6525,75.6844 Q435.9963,75.4813 435.1994,75.4813 Z " fill="#000000"/><text fill="#FF0000" font-family="sans-serif" font-size="14" lengthAdjust="spacing" textLength="88.2277" x="449.09" y="85.632">AllowlistError</text><line style="stroke:#181818;stroke-width:0.5;" x1="421.09" x2="539.3177" y1="96.2" y2="96.2"/><line style="stroke:#181818;stroke-width:0.5;" x1="421.09" x2="539.3177" y1="104.2" y2="104.2"/></g><!--class src.auto_pass.dbindex.DatabaseIndexError--><g class="entity" data-qualified-name="src.auto_pass.dbindex.DatabaseIndexError" data-source-line="12" id="ent0004"><rect fill="#F1F1F1" height="48" rx="2.5" ry="2.5" style="stroke:#181818;stroke-width:0.5;" width="164.9575" x="575.72" y="64.2"/><ellipse cx="590.72" cy="80.2" fill="#ADD1B2" rx="11" ry="11" style="stroke:#181818;stroke-width:1;"/><path d="M590.8294,75.4813 Q589.9075,75.4813 589.1731,75.7938 Q588.4544,76.1063 587.9544,76.7 Q587.4544,77.2781 587.1731,78.1531 Q586.9075,79.0281 586.9075,80.1219 Q586.9075,81.5594 587.345,82.6063 Q587.7981,83.6531 588.6419,84.2 Q589.5013,84.7469 590.8138,84.7469 Q591.595,84.7469 592.2825,84.6219 Q592.9856,84.4813 593.9856,84.1688 L593.9856,86.0438 Q593.1263,86.3719 592.3606,86.4969 Q591.6106,86.6219 590.595,86.6219 Q588.6731,86.6219 587.3606,85.825 Q586.0638,85.0125 585.4075,83.5438 Q584.7513,82.0594 584.7513,80.0906 Q584.7513,78.6688 585.1419,77.4969 Q585.5481,76.3094 586.3294,75.4344 Q587.1106,74.5594 588.2513,74.0906 Q589.3919,73.6063 590.8606,73.6063 Q591.8138,73.6063 592.7044,73.8094 Q593.6106,73.9969 594.5481,74.4656 L593.72,76.2469 Q592.9388,75.8719 592.2825,75.6844 Q591.6263,75.4813 590.8294,75.4813 Z " fill="#000000"/><text fill="#FF0000" font-family="sans-serif" font-size="14" lengthAdjust="spacing" textLength="132.9575" x="604.72" y="85.632">DatabaseIndexError</text><line style="stroke:#181818;stroke-width:0.5;" x1="576.72" x2="739.6775" y1="96.2" y2="96.2"/><line style="stroke:#181818;stroke-width:0.5;" x1="576.72" x2="739.6775" y1="104.2" y2="104.2"/></g><!--class src.auto_pass.envfile.EnvFileError--><g class="entity" data-qualified-name="src.auto_pass.envfile.EnvFileError" data-source-line="14" id="ent0005"><rect fill="#F1F1F1" height="48" rx="2.5" ry="2.5" style="stroke:#181818;stroke-width:0.5;" width="111.5337" x="775.44" y="64.2"/><ellipse cx="790.44" cy="80.2" fill="#ADD1B2" rx="11" ry="11" style="stroke:#181818;stroke-width:1;"/><path d="M790.5494,75.4813 Q789.6275,75.4813 788.8931,75.7938 Q788.1744,76.1063 787.6744,76.7 Q787.1744,77.2781 786.8931,78.1531 Q786.6275,79.0281 786.6275,80.1219 Q786.6275,81.5594 787.065,82.6063 Q787.5181,83.6531 788.3619,84.2 Q789.2213,84.7469 790.5338,84.7469 Q791.315,84.7469 792.0025,84.6219 Q792.7056,84.4813 793.7056,84.1688 L793.7056,86.0438 Q792.8463,86.3719 792.0806,86.4969 Q791.3306,86.6219 790.315,86.6219 Q788.3931,86.6219 787.0806,85.825 Q785.7838,85.0125 785.1275,83.5438 Q784.4713,82.0594 784.4713,80.0906 Q784.4713,78.6688 784.8619,77.4969 Q785.2681,76.3094 786.0494,75.4344 Q786.8306,74.5594 787.9713,74.0906 Q789.1119,73.6063 790.5806,73.6063 Q791.5338,73.6063 792.4244,73.8094 Q793.3306,73.9969 794.2681,74.4656 L793.44,76.2469 Q792.6588,75.8719 792.0025,75.6844 Q791.3463,75.4813 790.5494,75.4813 Z " fill="#000000"/><text fill="#FF0000" font-family="sans-serif" font-size="14" lengthAdjust="spacing" textLength="79.5337" x="804.44" y="85.632">EnvFileError</text><line style="stroke:#181818;stroke-width:0.5;" x1="776.44" x2="885.9737" y1="96.2" y2="96.2"/><line style="stroke:#181818;stroke-width:0.5;" x1="776.44" x2="885.9737" y1="104.2" y2="104.2"/></g><!--class src.auto_pass.keepassxc.KeepassCommandError--><g class="entity" data-qualified-name="src.auto_pass.keepassxc.KeepassCommandError" data-source-line="16" id="ent0006"><rect fill="#F1F1F1" height="48" rx="2.5" ry="2.5" style="stroke:#181818;stroke-width:0.5;" width="188.5474" x="101.93" y="315.21"/><ellipse cx="116.93" cy="331.21" fill="#ADD1B2" rx="11" ry="11" style="stroke:#181818;stroke-width:1;"/><path d="M117.0394,326.4913 Q116.1175,326.4913 115.3831,326.8038 Q114.6644,327.1163 114.1644,327.71 Q113.6644,328.2881 113.3831,329.1631 Q113.1175,330.0381 113.1175,331.1319 Q113.1175,332.5694 113.555,333.6163 Q114.0081,334.6631 114.8519,335.21 Q115.7113,335.7569 117.0238,335.7569 Q117.805,335.7569 118.4925,335.6319 Q119.1956,335.4913 120.1956,335.1788 L120.1956,337.0538 Q119.3363,337.3819 118.5706,337.5069 Q117.8206,337.6319 116.805,337.6319 Q114.8831,337.6319 113.5706,336.835 Q112.2738,336.0225 111.6175,334.5538 Q110.9613,333.0694 110.9613,331.1006 Q110.9613,329.6788 111.3519,328.5069 Q111.7581,327.3194 112.5394,326.4444 Q113.3206,325.5694 114.4613,325.1006 Q115.6019,324.6163 117.0706,324.6163 Q118.0238,324.6163 118.9144,324.8194 Q119.8206,325.0069 120.7581,325.4756 L119.93,327.2569 Q119.1488,326.8819 118.4925,326.6944 Q117.8363,326.4913 117.0394,326.4913 Z " fill="#000000"/><text fill="#FF0000" font-family="sans-serif" font-size="14" lengthAdjust="spacing" textLength="156.5474" x="130.93" y="336.642">KeepassCommandError</text><line style="stroke:#181818;stroke-width:0.5;" x1="102.93" x2="289.4774" y1="347.21" y2="347.21"/><line style="stroke:#181818;stroke-width:0.5;" x1="102.93" x2="289.4774" y1="355.21" y2="355.21"/></g><!--class src.auto_pass.keepassxc.KeepassXCStoreConfig--><g class="entity" data-qualified-name="src.auto_pass.keepassxc.KeepassXCStoreConfig" data-source-line="18" id="ent0007"><rect fill="#F1F1F1" height="219.6113" rx="2.5" ry="2.5" style="stroke:#181818;stroke-width:0.5;" width="312.9429" x="325.73" y="229.4"/><ellipse cx="403.3107" cy="245.4" fill="#ADD1B2" rx="11" ry="11" style="stroke:#181818;stroke-width:1;"/><path d="M403.4201,240.6813 Q402.4982,240.6813 401.7639,240.9938 Q401.0451,241.3063 400.5451,241.9 Q400.0451,242.4781 399.7639,243.3531 Q399.4982,244.2281 399.4982,245.3219 Q399.4982,246.7594 399.9357,247.8063 Q400.3889,248.8531 401.2326,249.4 Q402.092,249.9469 403.4045,249.9469 Q404.1857,249.9469 404.8732,249.8219 Q405.5764,249.6813 406.5764,249.3688 L406.5764,251.2438 Q405.717,251.5719 404.9514,251.6969 Q404.2014,251.8219 403.1857,251.8219 Q401.2639,251.8219 399.9514,251.025 Q398.6545,250.2125 397.9982,248.7438 Q397.342,247.2594 397.342,245.2906 Q397.342,243.8688 397.7326,242.6969 Q398.1389,241.5094 398.9201,240.6344 Q399.7014,239.7594 400.842,239.2906 Q401.9826,238.8063 403.4514,238.8063 Q404.4045,238.8063 405.2951,239.0094 Q406.2014,239.1969 407.1389,239.6656 L406.3107,241.4469 Q405.5295,241.0719 404.8732,240.8844 Q404.217,240.6813 403.4201,240.6813 Z " fill="#000000"/><text fill="#000000" font-family="sans-serif" font-size="14" lengthAdjust="spacing" textLength="149.2814" x="423.8107" y="250.832">KeepassXCStoreConfig</text><line style="stroke:#181818;stroke-width:0.5;" x1="326.73" x2="637.6729" y1="261.4" y2="261.4"/><text fill="#000000" font-family="sans-serif" font-size="14" lengthAdjust="spacing" textLength="143.8914" x="331.73" y="280.3659">database_key_file : str</text><text fill="#000000" font-family="sans-serif" font-size="14" lengthAdjust="spacing" textLength="285.8649" x="331.73" y="299.4339">database_key_file_env_names : tuple[str, ...]</text><text fill="#000000" font-family="sans-serif" font-size="14" lengthAdjust="spacing" textLength="227.2472" x="331.73" y="318.5018">database_password_cache_dir : str</text><text fill="#000000" font-family="sans-serif" font-size="14" lengthAdjust="spacing" textLength="273.993" x="331.73" y="337.5697">database_password_cache_enabled : bool</text><text fill="#000000" font-family="sans-serif" font-size="14" lengthAdjust="spacing" textLength="229.1791" x="331.73" y="356.6376">database_password_cache_file : str</text><text fill="#000000" font-family="sans-serif" font-size="14" lengthAdjust="spacing" textLength="282.7149" x="331.73" y="375.7055">database_password_cache_ttl_seconds : int</text><text fill="#000000" font-family="sans-serif" font-size="14" lengthAdjust="spacing" textLength="300.9429" x="331.73" y="394.7734">database_password_env_names : tuple[str, ...]</text><text fill="#000000" font-family="sans-serif" font-size="14" lengthAdjust="spacing" textLength="125.3976" x="331.73" y="413.8414">database_path : str</text><text fill="#000000" font-family="sans-serif" font-size="14" lengthAdjust="spacing" textLength="267.371" x="331.73" y="432.9093">database_path_env_names : tuple[str, ...]</text><line style="stroke:#181818;stroke-width:0.5;" x1="326.73" x2="637.6729" y1="441.0113" y2="441.0113"/></g><!--class src.auto_pass.notifications.PasswordRetrievalNotificationConfig--><g class="entity" data-qualified-name="src.auto_pass.notifications.PasswordRetrievalNotificationConfig" data-source-line="29" id="ent0008"><rect fill="#F1F1F1" height="162.4075" rx="2.5" ry="2.5" style="stroke:#181818;stroke-width:0.5;" width="272.7011" x="673.85" y="258.01"/><ellipse cx="688.85" cy="274.01" fill="#ADD1B2" rx="11" ry="11" style="stroke:#181818;stroke-width:1;"/><path d="M688.9594,269.2913 Q688.0375,269.2913 687.3031,269.6038 Q686.5844,269.9163 686.0844,270.51 Q685.5844,271.0881 685.3031,271.9631 Q685.0375,272.8381 685.0375,273.9319 Q685.0375,275.3694 685.475,276.4163 Q685.9281,277.4631 686.7719,278.01 Q687.6313,278.5569 688.9438,278.5569 Q689.725,278.5569 690.4125,278.4319 Q691.1156,278.2913 692.1156,277.9788 L692.1156,279.8538 Q691.2563,280.1819 690.4906,280.3069 Q689.7406,280.4319 688.725,280.4319 Q686.8031,280.4319 685.4906,279.635 Q684.1938,278.8225 683.5375,277.3538 Q682.8813,275.8694 682.8813,273.9006 Q682.8813,272.4788 683.2719,271.3069 Q683.6781,270.1194 684.4594,269.2444 Q685.2406,268.3694 686.3813,267.9006 Q687.5219,267.4163 688.9906,267.4163 Q689.9438,267.4163 690.8344,267.6194 Q691.7406,267.8069 692.6781,268.2756 L691.85,270.0569 Q691.0688,269.6819 690.4125,269.4944 Q689.7563,269.2913 688.9594,269.2913 Z " fill="#000000"/><text fill="#000000" font-family="sans-serif" font-size="14" lengthAdjust="spacing" textLength="240.7011" x="702.85" y="279.442">PasswordRetrievalNotificationConfig</text><line style="stroke:#181818;stroke-width:0.5;" x1="674.85" x2="945.5511" y1="290.01" y2="290.01"/><text fill="#000000" font-family="sans-serif" font-size="14" lengthAdjust="spacing" textLength="160.6074" x="679.85" y="308.9759">email_config_path : Path</text><text fill="#000000" font-family="sans-serif" font-size="14" lengthAdjust="spacing" textLength="84.3777" x="679.85" y="328.0439">email_to : str</text><text fill="#000000" font-family="sans-serif" font-size="14" lengthAdjust="spacing" textLength="151.5774" x="679.85" y="347.1118">shock_relay_root : Path</text><text fill="#000000" font-family="sans-serif" font-size="14" lengthAdjust="spacing" textLength="163.5894" x="679.85" y="366.1797">signal_config_path : Path</text><text fill="#000000" font-family="sans-serif" font-size="14" lengthAdjust="spacing" textLength="87.3597" x="679.85" y="385.2476">signal_to : str</text><text fill="#000000" font-family="sans-serif" font-size="14" lengthAdjust="spacing" textLength="120.1615" x="679.85" y="404.3155">subject_prefix : str</text><line style="stroke:#181818;stroke-width:0.5;" x1="674.85" x2="945.5511" y1="412.4175" y2="412.4175"/></g><!--class src.auto_pass.notifications.PasswordRetrievalNotificationError--><g class="entity" data-qualified-name="src.auto_pass.notifications.PasswordRetrievalNotificationError" data-source-line="37" id="ent0009"><rect fill="#F1F1F1" height="48" rx="2.5" ry="2.5" style="stroke:#181818;stroke-width:0.5;" width="263.2931" x="981.56" y="315.21"/><ellipse cx="996.56" cy="331.21" fill="#ADD1B2" rx="11" ry="11" style="stroke:#181818;stroke-width:1;"/><path d="M996.6694,326.4913 Q995.7475,326.4913 995.0131,326.8038 Q994.2944,327.1163 993.7944,327.71 Q993.2944,328.2881 993.0131,329.1631 Q992.7475,330.0381 992.7475,331.1319 Q992.7475,332.5694 993.185,333.6163 Q993.6381,334.6631 994.4819,335.21 Q995.3413,335.7569 996.6538,335.7569 Q997.435,335.7569 998.1225,335.6319 Q998.8256,335.4913 999.8256,335.1788 L999.8256,337.0538 Q998.9663,337.3819 998.2006,337.5069 Q997.4506,337.6319 996.435,337.6319 Q994.5131,337.6319 993.2006,336.835 Q991.9038,336.0225 991.2475,334.5538 Q990.5913,333.0694 990.5913,331.1006 Q990.5913,329.6788 990.9819,328.5069 Q991.3881,327.3194 992.1694,326.4444 Q992.9506,325.5694 994.0913,325.1006 Q995.2319,324.6163 996.7006,324.6163 Q997.6538,324.6163 998.5444,324.8194 Q999.4506,325.0069 1000.3881,325.4756 L999.56,327.2569 Q998.7788,326.8819 998.1225,326.6944 Q997.4663,326.4913 996.6694,326.4913 Z " fill="#000000"/><text fill="#FF0000" font-family="sans-serif" font-size="14" lengthAdjust="spacing" textLength="231.2931" x="1010.56" y="336.642">PasswordRetrievalNotificationError</text><line style="stroke:#181818;stroke-width:0.5;" x1="982.56" x2="1243.8531" y1="347.21" y2="347.21"/><line style="stroke:#181818;stroke-width:0.5;" x1="982.56" x2="1243.8531" y1="355.21" y2="355.21"/></g><!--class src.auto_pass.client.ProvisioningClient--><g class="entity" data-qualified-name="src.auto_pass.client.ProvisioningClient" data-source-line="39" id="ent0010"><rect fill="#F1F1F1" height="181.4754" rx="2.5" ry="2.5" style="stroke:#181818;stroke-width:0.5;" width="351.5688" x="20.42" y="509.01"/><ellipse cx="132.2376" cy="525.01" fill="#ADD1B2" rx="11" ry="11" style="stroke:#181818;stroke-width:1;"/><path d="M132.347,520.2913 Q131.4251,520.2913 130.6907,520.6038 Q129.972,520.9163 129.472,521.51 Q128.972,522.0881 128.6907,522.9631 Q128.4251,523.8381 128.4251,524.9319 Q128.4251,526.3694 128.8626,527.4163 Q129.3157,528.4631 130.1595,529.01 Q131.0189,529.5569 132.3314,529.5569 Q133.1126,529.5569 133.8001,529.4319 Q134.5032,529.2913 135.5032,528.9788 L135.5032,530.8538 Q134.6439,531.1819 133.8782,531.3069 Q133.1282,531.4319 132.1126,531.4319 Q130.1907,531.4319 128.8782,530.635 Q127.5814,529.8225 126.9251,528.3538 Q126.2689,526.8694 126.2689,524.9006 Q126.2689,523.4788 126.6595,522.3069 Q127.0657,521.1194 127.847,520.2444 Q128.6282,519.3694 129.7689,518.9006 Q130.9095,518.4163 132.3782,518.4163 Q133.3314,518.4163 134.222,518.6194 Q135.1282,518.8069 136.0657,519.2756 L135.2376,521.0569 Q134.4564,520.6819 133.8001,520.4944 Q133.1439,520.2913 132.347,520.2913 Z " fill="#000000"/><text fill="#000000" font-family="sans-serif" font-size="14" lengthAdjust="spacing" textLength="119.4335" x="152.7376" y="530.442">ProvisioningClient</text><line style="stroke:#181818;stroke-width:0.5;" x1="21.42" x2="370.9888" y1="541.01" y2="541.01"/><line style="stroke:#181818;stroke-width:0.5;" x1="21.42" x2="370.9888" y1="549.01" y2="549.01"/><text fill="#000000" font-family="sans-serif" font-size="14" lengthAdjust="spacing" textLength="149.4774" x="26.42" y="567.9759">admin_context() -&gt; dict</text><text fill="#000000" font-family="sans-serif" font-size="14" lengthAdjust="spacing" textLength="339.5688" x="26.42" y="587.0439">get(entry_path: str, field: str, db: Optional[str]) -&gt; str</text><text fill="#000000" font-family="sans-serif" font-size="14" lengthAdjust="spacing" textLength="126.5035" x="26.42" y="606.1118">is_running() -&gt; bool</text><text fill="#000000" font-family="sans-serif" font-size="14" lengthAdjust="spacing" textLength="90.1316" x="26.42" y="625.1797">lock() -&gt; None</text><text fill="#000000" font-family="sans-serif" font-size="14" lengthAdjust="spacing" textLength="106.0776" x="26.42" y="644.2476">reload() -&gt; None</text><text fill="#000000" font-family="sans-serif" font-size="14" lengthAdjust="spacing" textLength="92.2177" x="26.42" y="663.3155">status() -&gt; dict</text><text fill="#000000" font-family="sans-serif" font-size="14" lengthAdjust="spacing" textLength="196.1112" x="26.42" y="682.3834">unlock(password: str) -&gt; None</text></g><!--class src.auto_pass.client.ProvisioningClientError--><g class="entity" data-qualified-name="src.auto_pass.client.ProvisioningClientError" data-source-line="48" id="ent0011"><rect fill="#F1F1F1" height="48" rx="2.5" ry="2.5" style="stroke:#181818;stroke-width:0.5;" width="185.0334" x="406.69" y="575.75"/><ellipse cx="421.69" cy="591.75" fill="#ADD1B2" rx="11" ry="11" style="stroke:#181818;stroke-width:1;"/><path d="M421.7994,587.0313 Q420.8775,587.0313 420.1431,587.3438 Q419.4244,587.6563 418.9244,588.25 Q418.4244,588.8281 418.1431,589.7031 Q417.8775,590.5781 417.8775,591.6719 Q417.8775,593.1094 418.315,594.1563 Q418.7681,595.2031 419.6119,595.75 Q420.4713,596.2969 421.7838,596.2969 Q422.565,596.2969 423.2525,596.1719 Q423.9556,596.0313 424.9556,595.7188 L424.9556,597.5938 Q424.0963,597.9219 423.3306,598.0469 Q422.5806,598.1719 421.565,598.1719 Q419.6431,598.1719 418.3306,597.375 Q417.0338,596.5625 416.3775,595.0938 Q415.7213,593.6094 415.7213,591.6406 Q415.7213,590.2188 416.1119,589.0469 Q416.5181,587.8594 417.2994,586.9844 Q418.0806,586.1094 419.2213,585.6406 Q420.3619,585.1563 421.8306,585.1563 Q422.7838,585.1563 423.6744,585.3594 Q424.5806,585.5469 425.5181,586.0156 L424.69,587.7969 Q423.9088,587.4219 423.2525,587.2344 Q422.5963,587.0313 421.7994,587.0313 Z " fill="#000000"/><text fill="#FF0000" font-family="sans-serif" font-size="14" lengthAdjust="spacing" textLength="153.0334" x="435.69" y="597.182">ProvisioningClientError</text><line style="stroke:#181818;stroke-width:0.5;" x1="407.69" x2="590.7234" y1="607.75" y2="607.75"/><line style="stroke:#181818;stroke-width:0.5;" x1="407.69" x2="590.7234" y1="615.75" y2="615.75"/></g><!--class src.auto_pass.server.ProvisioningServer--><g class="entity" data-qualified-name="src.auto_pass.server.ProvisioningServer" data-source-line="50" id="ent0012"><rect fill="#F1F1F1" height="143.3396" rx="2.5" ry="2.5" style="stroke:#181818;stroke-width:0.5;" width="437.5565" x="626.43" y="528.08"/><ellipse cx="779.0015" cy="544.08" fill="#ADD1B2" rx="11" ry="11" style="stroke:#181818;stroke-width:1;"/><path d="M779.1109,539.3613 Q778.189,539.3613 777.4546,539.6738 Q776.7359,539.9863 776.2359,540.58 Q775.7359,541.1581 775.4546,542.0331 Q775.189,542.9081 775.189,544.0019 Q775.189,545.4394 775.6265,546.4863 Q776.0796,547.5331 776.9234,548.08 Q777.7827,548.6269 779.0952,548.6269 Q779.8765,548.6269 780.564,548.5019 Q781.2671,548.3613 782.2671,548.0488 L782.2671,549.9238 Q781.4077,550.2519 780.6421,550.3769 Q779.8921,550.5019 778.8765,550.5019 Q776.9546,550.5019 775.6421,549.705 Q774.3452,548.8925 773.689,547.4238 Q773.0327,545.9394 773.0327,543.9706 Q773.0327,542.5488 773.4234,541.3769 Q773.8296,540.1894 774.6109,539.3144 Q775.3921,538.4394 776.5327,537.9706 Q777.6734,537.4863 779.1421,537.4863 Q780.0952,537.4863 780.9859,537.6894 Q781.8921,537.8769 782.8296,538.3456 L782.0015,540.1269 Q781.2202,539.7519 780.564,539.5644 Q779.9077,539.3613 779.1109,539.3613 Z " fill="#000000"/><text fill="#000000" font-family="sans-serif" font-size="14" lengthAdjust="spacing" textLength="123.9135" x="799.5015" y="549.512">ProvisioningServer</text><line style="stroke:#181818;stroke-width:0.5;" x1="627.43" x2="1062.9865" y1="560.08" y2="560.08"/><text fill="#000000" font-family="sans-serif" font-size="14" lengthAdjust="spacing" textLength="116.8155" x="632.43" y="579.0459">is_unlocked : bool</text><line style="stroke:#181818;stroke-width:0.5;" x1="627.43" x2="1062.9865" y1="587.1479" y2="587.1479"/><text fill="#000000" font-family="sans-serif" font-size="14" lengthAdjust="spacing" textLength="425.5565" x="632.43" y="606.1139">handle_request(request: dict, caller_pid: int, caller_uid: int) -&gt; dict</text><text fill="#000000" font-family="sans-serif" font-size="14" lengthAdjust="spacing" textLength="90.1316" x="632.43" y="625.1818">lock() -&gt; None</text><text fill="#000000" font-family="sans-serif" font-size="14" lengthAdjust="spacing" textLength="99.2456" x="632.43" y="644.2497">serve() -&gt; None</text><text fill="#000000" font-family="sans-serif" font-size="14" lengthAdjust="spacing" textLength="189.6153" x="632.43" y="663.3176">unlock(password: str) -&gt; bool</text></g><!--class src.auto_pass.keepassxc.ResolvedKeepassContext--><g class="entity" data-qualified-name="src.auto_pass.keepassxc.ResolvedKeepassContext" data-source-line="57" id="ent0013"><rect fill="#F1F1F1" height="143.3396" rx="2.5" ry="2.5" style="stroke:#181818;stroke-width:0.5;" width="196.7234" x="1098.84" y="528.08"/><ellipse cx="1113.84" cy="544.08" fill="#ADD1B2" rx="11" ry="11" style="stroke:#181818;stroke-width:1;"/><path d="M1113.9494,539.3613 Q1113.0275,539.3613 1112.2931,539.6738 Q1111.5744,539.9863 1111.0744,540.58 Q1110.5744,541.1581 1110.2931,542.0331 Q1110.0275,542.9081 1110.0275,544.0019 Q1110.0275,545.4394 1110.465,546.4863 Q1110.9181,547.5331 1111.7619,548.08 Q1112.6213,548.6269 1113.9338,548.6269 Q1114.715,548.6269 1115.4025,548.5019 Q1116.1056,548.3613 1117.1056,548.0488 L1117.1056,549.9238 Q1116.2463,550.2519 1115.4806,550.3769 Q1114.7306,550.5019 1113.715,550.5019 Q1111.7931,550.5019 1110.4806,549.705 Q1109.1838,548.8925 1108.5275,547.4238 Q1107.8713,545.9394 1107.8713,543.9706 Q1107.8713,542.5488 1108.2619,541.3769 Q1108.6681,540.1894 1109.4494,539.3144 Q1110.2306,538.4394 1111.3713,537.9706 Q1112.5119,537.4863 1113.9806,537.4863 Q1114.9338,537.4863 1115.8244,537.6894 Q1116.7306,537.8769 1117.6681,538.3456 L1116.84,540.1269 Q1116.0588,539.7519 1115.4025,539.5644 Q1114.7463,539.3613 1113.9494,539.3613 Z " fill="#000000"/><text fill="#000000" font-family="sans-serif" font-size="14" lengthAdjust="spacing" textLength="164.7234" x="1127.84" y="549.512">ResolvedKeepassContext</text><line style="stroke:#181818;stroke-width:0.5;" x1="1099.84" x2="1294.5634" y1="560.08" y2="560.08"/><text fill="#000000" font-family="sans-serif" font-size="14" lengthAdjust="spacing" textLength="115.7516" x="1104.84" y="579.0459">db_password : str</text><text fill="#000000" font-family="sans-serif" font-size="14" lengthAdjust="spacing" textLength="82.1797" x="1104.84" y="598.1139">db_path : str</text><text fill="#000000" font-family="sans-serif" font-size="14" lengthAdjust="spacing" textLength="166.7113" x="1104.84" y="617.1818">interactive_allowed : bool</text><text fill="#000000" font-family="sans-serif" font-size="14" lengthAdjust="spacing" textLength="77.2377" x="1104.84" y="636.2497">key_file : str</text><text fill="#000000" font-family="sans-serif" font-size="14" lengthAdjust="spacing" textLength="165.8994" x="1104.84" y="655.3176">password_env_name : str</text><line style="stroke:#181818;stroke-width:0.5;" x1="1099.84" x2="1294.5634" y1="663.4196" y2="663.4196"/></g><?plantuml-src bLLDQnin4BtdLuYSN4YtTnC2nKsX5DAGN0eX2AqqQwkMfUreTkDG-jyhoUlrsYj_zBJBp9itcYVfoGCnArRWQo7X6Mg1WXmowonSIIEyPzUVZN5lHdkwjvL32NZDX6SUPI4QShmEe49iCSK8pVvSCQOzhm5NcWZK1A5sNAifyuGtJ9NT3rZ2zq17YnJum3xUiT8v4ygNrhrP7kly9CLZWvS0UWt9dZZL-Zpzg0h1EA4sR0znsXWAXGegqHZYgjmZIhWVDMbdXTbn140RuNuCtZNxkrNoLZhZS8gWxdOo8Jgy_PGoTnSg6qk2h3dUBu94AJnyimhMvxXLgIEi61STOR-txLTju1mlsBOAi688FyBu7I2MpDng9QmwHxpSeDUooDGDEtJfdxFdS9fXvcobvvVmxHMaawiwRVWItdcSYgKjpcLuc9kdonGmrDG6Nj8HB8hYTOYFZTuSAYw5N01N6iUS1nYmeZIW0gwx4SU0-HKUW8WCzo2TLN6bsb8MU_4qjCXrfCL9Xdwh7hj-Jq2eeHNcmP6kj1JnhXtTEJi0-U82ZhIPi1BQS9a2suK_Xa-V8jUFuXTEBeFd6F7EqJdQGRsU1nF8qtIv8KzJ_W99l4QezBeBvwx2oI7EtOp_q6DqMHxHjTg7ZBRpcT71XpCDP4eKOsmILgYLjb4HWZLjJ5Lf6S_L76XouEmthD9WXWQzPwofUgDTU3QmiR7NPFWScB0p1yuzCdDFWXg_jvJ6fiBj0TzPTIh9RibesdFxS5Icawe_0xRPTzMdH376Rb_LpKn3PrW4FmnUXF2x0K-JxZjD8jmm6TuJG5x7bofS_3xGT86XNYEPqshs8aSbJOlfPtq2xqmBgdVjT4vE6dA-P6F9PMzIE-CfzuqeZ08e9EaMU7f2XnADh7paUTjh-Wy0?></g></svg>
