<?plantuml 1.2026.2?><svg xmlns="http://www.w3.org/2000/svg" xmlns:xlink="http://www.w3.org/1999/xlink" contentStyleType="text/css" data-diagram-type="CLASS" height="308px" preserveAspectRatio="none" style="width:354px;height:308px;background:#FFFFFF;" version="1.1" viewBox="0 0 354 308" width="354px" zoomAndPan="magnify"><defs/><g><path d="M59.92,124.742 L130.9793,124.742 A3.75,3.75 0 0 1 133.4793,127.242 L140.4793,149.8099 L144.9793,149.8099 A2.5,2.5 0 0 1 147.4793,152.3099 L147.4793,180.3778 A2.5,2.5 0 0 1 144.9793,182.8778 L59.92,182.8778 A2.5,2.5 0 0 1 57.42,180.3778 L57.42,127.242 A2.5,2.5 0 0 1 59.92,124.742" fill="#F1F1F1" style="stroke:#181818;stroke-width:0.5;"/><line style="stroke:#181818;stroke-width:0.5;" x1="57.42" x2="140.4793" y1="149.8099" y2="149.8099"/><text fill="#000000" font-family="sans-serif" font-size="14" font-weight="bold" lengthAdjust="spacing" textLength="70.0593" x="61.42" y="141.7079">auto_pass</text><path d="M188.35,6.602 L298.5566,6.602 A3.75,3.75 0 0 1 301.0566,9.102 L308.0566,31.6699 L312.5566,31.6699 A2.5,2.5 0 0 1 315.0566,34.1699 L315.0566,62.2378 A2.5,2.5 0 0 1 312.5566,64.7378 L188.35,64.7378 A2.5,2.5 0 0 1 185.85,62.2378 L185.85,9.102 A2.5,2.5 0 0 1 188.35,6.602" fill="#F1F1F1" style="stroke:#181818;stroke-width:0.5;"/><line style="stroke:#181818;stroke-width:0.5;" x1="185.85" x2="308.0566" y1="31.6699" y2="31.6699"/><text fill="#000000" font-family="sans-serif" font-size="14" font-weight="bold" lengthAdjust="spacing" textLength="74.2487" x="189.85" y="23.5679">auto_pass.</text><text fill="#000000" font-family="sans-serif" font-size="14" font-weight="bold" lengthAdjust="spacing" text-decoration="underline" textLength="34.9579" x="264.0987" y="23.5679">main</text><path d="M198.2,124.742 L288.7052,124.742 A3.75,3.75 0 0 1 291.2052,127.242 L298.2052,149.8099 L302.7052,149.8099 A2.5,2.5 0 0 1 305.2052,152.3099 L305.2052,180.3778 A2.5,2.5 0 0 1 302.7052,182.8778 L198.2,182.8778 A2.5,2.5 0 0 1 195.7,180.3778 L195.7,127.242 A2.5,2.5 0 0 1 198.2,124.742" fill="#F1F1F1" style="stroke:#181818;stroke-width:0.5;"/><line style="stroke:#181818;stroke-width:0.5;" x1="195.7" x2="298.2052" y1="149.8099" y2="149.8099"/><text fill="#000000" font-family="sans-serif" font-size="14" font-weight="bold" lengthAdjust="spacing" textLength="89.5052" x="199.7" y="141.7079">auto_pass.cli</text><path d="M8.5,242.872 L130.4071,242.872 A3.75,3.75 0 0 1 132.9071,245.372 L139.9071,267.9399 L144.4071,267.9399 A2.5,2.5 0 0 1 146.9071,270.4399 L146.9071,298.5078 A2.5,2.5 0 0 1 144.4071,301.0078 L8.5,301.0078 A2.5,2.5 0 0 1 6,298.5078 L6,245.372 A2.5,2.5 0 0 1 8.5,242.872" fill="#F1F1F1" style="stroke:#181818;stroke-width:0.5;"/><line style="stroke:#181818;stroke-width:0.5;" x1="6" x2="139.9071" y1="267.9399" y2="267.9399"/><text fill="#000000" font-family="sans-serif" font-size="14" font-weight="bold" lengthAdjust="spacing" textLength="120.9071" x="10" y="259.8379">auto_pass.envfile</text><path d="M184.23,242.872 L330.686,242.872 A3.75,3.75 0 0 1 333.186,245.372 L340.186,267.9399 L344.686,267.9399 A2.5,2.5 0 0 1 347.186,270.4399 L347.186,298.5078 A2.5,2.5 0 0 1 344.686,301.0078 L184.23,301.0078 A2.5,2.5 0 0 1 181.73,298.5078 L181.73,245.372 A2.5,2.5 0 0 1 184.23,242.872" fill="#F1F1F1" style="stroke:#181818;stroke-width:0.5;"/><line style="stroke:#181818;stroke-width:0.5;" x1="181.73" x2="340.186" y1="267.9399" y2="267.9399"/><text fill="#000000" font-family="sans-serif" font-size="14" font-weight="bold" lengthAdjust="spacing" textLength="145.456" x="185.73" y="259.8379">auto_pass.keepassxc</text><!--link auto_pass to auto_pass.envfile--><g class="link" data-entity-1="ent0002" data-entity-2="ent0005" data-link-type="dependency" data-source-line="12" id="lnk7"><path codeLine="12" d="M96.09,183.222 C92.06,201.212 88.1802,218.5568 84.1502,236.5668" fill="none" id="auto_pass-to-auto_pass.envfile" style="stroke:#181818;stroke-width:1;"/><polygon fill="#181818" points="82.84,242.422,88.7087,234.5126,83.9318,237.5426,80.9018,232.7657,82.84,242.422" style="stroke:#181818;stroke-width:1;"/></g><!--link auto_pass to auto_pass.keepassxc--><g class="link" data-entity-1="ent0002" data-entity-2="ent0006" data-link-type="dependency" data-source-line="13" id="lnk8"><path codeLine="13" d="M142.08,183.222 C167.19,201.212 194.6631,220.9168 219.7931,238.9268" fill="none" id="auto_pass-to-auto_pass.keepassxc" style="stroke:#181818;stroke-width:1;"/><polygon fill="#181818" points="224.67,242.422,219.6848,233.928,220.6059,239.5094,215.0246,240.4305,224.67,242.422" style="stroke:#181818;stroke-width:1;"/></g><!--link auto_pass.__main__ to auto_pass.cli--><g class="link" data-entity-1="ent0003" data-entity-2="ent0004" data-link-type="dependency" data-source-line="14" id="lnk9"><path codeLine="14" d="M250.45,65.082 C250.45,83.082 250.45,100.272 250.45,118.292" fill="none" id="auto_pass.__main__-to-auto_pass.cli" style="stroke:#181818;stroke-width:1;"/><polygon fill="#181818" points="250.45,124.292,254.45,115.292,250.45,119.292,246.45,115.292,250.45,124.292" style="stroke:#181818;stroke-width:1;"/></g><!--link auto_pass.cli to auto_pass.envfile--><g class="link" data-entity-1="ent0004" data-entity-2="ent0005" data-link-type="dependency" data-source-line="15" id="lnk10"><path codeLine="15" d="M207.89,183.222 C180.92,201.212 151.1714,221.0825 124.1714,239.0925" fill="none" id="auto_pass.cli-to-auto_pass.envfile" style="stroke:#181818;stroke-width:1;"/><polygon fill="#181818" points="119.18,242.422,128.8868,240.7554,123.3395,239.6474,124.4475,234.1001,119.18,242.422" style="stroke:#181818;stroke-width:1;"/></g><!--link auto_pass.cli to auto_pass.keepassxc--><g class="link" data-entity-1="ent0004" data-entity-2="ent0006" data-link-type="dependency" data-source-line="16" id="lnk11"><path codeLine="16" d="M253.88,183.222 C256.05,201.212 258.119,218.4555 260.299,236.4655" fill="none" id="auto_pass.cli-to-auto_pass.keepassxc" style="stroke:#181818;stroke-width:1;"/><polygon fill="#181818" points="261.02,242.422,263.9095,233.0065,260.4192,237.4582,255.9675,233.9679,261.02,242.422" style="stroke:#181818;stroke-width:1;"/></g><?plantuml-src XOzH2i8m38RVUugmz-q8Ni83X52Yb6rfMJiHnBjRXqHQMtmg_V9_2N_a148hnq2Mpnnee-Gt42ziCfhfoZ3GdZm6Yd40Yg0_U9Xd8pGXhkG4iKmhxcbsSPMHII_CShkuXIlXGtlIpFn-xxRIb1_YjzyuddwNT-UwnJGwbz5Sp9Gr_vngPFJS2m00?></g></svg>