<?plantuml 1.2026.2?><svg xmlns="http://www.w3.org/2000/svg" xmlns:xlink="http://www.w3.org/1999/xlink" contentStyleType="text/css" data-diagram-type="DESCRIPTION" height="738px" preserveAspectRatio="none" style="width:1231px;height:738px;background:#FFFFFF;" version="1.1" viewBox="0 0 1231 738" width="1231px" zoomAndPan="magnify"><defs/><g><!--entity conftest--><g class="entity" data-qualified-name="conftest" data-source-line="4" id="ent0002"><rect fill="#F1F1F1" height="58.1358" rx="2.5" ry="2.5" style="stroke:#181818;stroke-width:0.5;" width="101.8017" x="304.28" y="26.07"/><text fill="#000000" font-family="sans-serif" font-size="14" lengthAdjust="spacing" textLength="53.3678" x="314.28" y="51.0359">conftest</text><text fill="#000000" font-family="sans-serif" font-size="14" lengthAdjust="spacing" textLength="81.8017" x="314.28" y="70.1039">1 python file</text></g><!--entity src.auto_pass--><g class="entity" data-qualified-name="src.auto_pass" data-source-line="5" id="ent0003"><rect fill="#F1F1F1" height="96.2717" rx="2.5" ry="2.5" style="stroke:#181818;stroke-width:0.5;" width="205.9333" x="631.22" y="281.41"/><text fill="#000000" font-family="sans-serif" font-size="14" lengthAdjust="spacing" textLength="89.0817" x="641.22" y="306.3759">src.auto_pass</text><text fill="#000000" font-family="sans-serif" font-size="14" lengthAdjust="spacing" textLength="147.2654" x="641.22" y="325.4439">1 child pkg, 9 modules</text><text fill="#000000" font-family="sans-serif" font-size="14" lengthAdjust="spacing" textLength="96.5156" x="641.22" y="344.5118">14 python files</text><text fill="#000000" font-family="sans-serif" font-size="14" lengthAdjust="spacing" textLength="66.8217" x="641.22" y="363.5797">examples:</text><text fill="#000000" font-family="sans-serif" font-size="14" lengthAdjust="spacing" text-decoration="underline" textLength="33.2079" x="711.6817" y="363.5797">main</text><text fill="#000000" font-family="sans-serif" font-size="14" lengthAdjust="spacing" textLength="82.2637" x="744.8896" y="363.5797">, allowlist, cli</text></g><!--entity src.auto_pass.__main__--><g class="entity" data-qualified-name="src.auto_pass.__main__" data-source-line="6" id="ent0004"><rect fill="#F1F1F1" height="58.1358" rx="2.5" ry="2.5" style="stroke:#181818;stroke-width:0.5;" width="146.0415" x="441.16" y="26.07"/><text fill="#000000" font-family="sans-serif" font-size="14" lengthAdjust="spacing" textLength="92.8337" x="451.16" y="51.0359">src.auto_pass.</text><text fill="#000000" font-family="sans-serif" font-size="14" lengthAdjust="spacing" text-decoration="underline" textLength="33.2079" x="543.9937" y="51.0359">main</text><text fill="#000000" font-family="sans-serif" font-size="14" lengthAdjust="spacing" textLength="81.8017" x="451.16" y="70.1039">1 python file</text></g><!--entity src.auto_pass.allowlist--><g class="entity" data-qualified-name="src.auto_pass.allowlist" data-source-line="7" id="ent0005"><rect fill="#F1F1F1" height="58.1358" rx="2.5" ry="2.5" style="stroke:#181818;stroke-width:0.5;" width="166.3695" x="7" y="437.68"/><text fill="#000000" font-family="sans-serif" font-size="14" lengthAdjust="spacing" textLength="146.3695" x="17" y="462.6459">src.auto_pass.allowlist</text><text fill="#000000" font-family="sans-serif" font-size="14" lengthAdjust="spacing" textLength="81.8017" x="17" y="481.7139">1 python file</text></g><!--entity src.auto_pass.cli--><g class="entity" data-qualified-name="src.auto_pass.cli" data-source-line="8" id="ent0006"><rect fill="#F1F1F1" height="58.1358" rx="2.5" ry="2.5" style="stroke:#181818;stroke-width:0.5;" width="126.7776" x="450.8" y="163.28"/><text fill="#000000" font-family="sans-serif" font-size="14" lengthAdjust="spacing" textLength="106.7776" x="460.8" y="188.2459">src.auto_pass.cli</text><text fill="#000000" font-family="sans-serif" font-size="14" lengthAdjust="spacing" textLength="81.8017" x="460.8" y="207.3139">1 python file</text></g><!--entity src.auto_pass.client--><g class="entity" data-qualified-name="src.auto_pass.client" data-source-line="9" id="ent0007"><rect fill="#F1F1F1" height="58.1358" rx="2.5" ry="2.5" style="stroke:#181818;stroke-width:0.5;" width="148.3795" x="376.99" y="300.48"/><text fill="#000000" font-family="sans-serif" font-size="14" lengthAdjust="spacing" textLength="128.3795" x="386.99" y="325.4459">src.auto_pass.client</text><text fill="#000000" font-family="sans-serif" font-size="14" lengthAdjust="spacing" textLength="81.8017" x="386.99" y="344.5139">1 python file</text></g><!--entity src.auto_pass.dbindex--><g class="entity" data-qualified-name="src.auto_pass.dbindex" data-source-line="10" id="ent0008"><rect fill="#F1F1F1" height="58.1358" rx="2.5" ry="2.5" style="stroke:#181818;stroke-width:0.5;" width="166.2295" x="495.07" y="437.68"/><text fill="#000000" font-family="sans-serif" font-size="14" lengthAdjust="spacing" textLength="146.2295" x="505.07" y="462.6459">src.auto_pass.dbindex</text><text fill="#000000" font-family="sans-serif" font-size="14" lengthAdjust="spacing" textLength="81.8017" x="505.07" y="481.7139">1 python file</text></g><!--entity src.auto_pass.envfile--><g class="entity" data-qualified-name="src.auto_pass.envfile" data-source-line="11" id="ent0009"><rect fill="#F1F1F1" height="58.1358" rx="2.5" ry="2.5" style="stroke:#181818;stroke-width:0.5;" width="156.4295" x="645.97" y="673.95"/><text fill="#000000" font-family="sans-serif" font-size="14" lengthAdjust="spacing" textLength="136.4295" x="655.97" y="698.9159">src.auto_pass.envfile</text><text fill="#000000" font-family="sans-serif" font-size="14" lengthAdjust="spacing" textLength="81.8017" x="655.97" y="717.9839">1 python file</text></g><!--entity src.auto_pass.keepassxc--><g class="entity" data-qualified-name="src.auto_pass.keepassxc" data-source-line="12" id="ent0010"><rect fill="#F1F1F1" height="58.1358" rx="2.5" ry="2.5" style="stroke:#181818;stroke-width:0.5;" width="180.1034" x="257.13" y="437.68"/><text fill="#000000" font-family="sans-serif" font-size="14" lengthAdjust="spacing" textLength="160.1034" x="267.13" y="462.6459">src.auto_pass.keepassxc</text><text fill="#000000" font-family="sans-serif" font-size="14" lengthAdjust="spacing" textLength="81.8017" x="267.13" y="481.7139">1 python file</text></g><!--entity src.auto_pass.notifications--><g class="entity" data-qualified-name="src.auto_pass.notifications" data-source-line="13" id="ent0011"><rect fill="#F1F1F1" height="58.1358" rx="2.5" ry="2.5" style="stroke:#181818;stroke-width:0.5;" width="194.1174" x="250.13" y="555.82"/><text fill="#000000" font-family="sans-serif" font-size="14" lengthAdjust="spacing" textLength="174.1174" x="260.13" y="580.7859">src.auto_pass.notifications</text><text fill="#000000" font-family="sans-serif" font-size="14" lengthAdjust="spacing" textLength="81.8017" x="260.13" y="599.8539">1 python file</text></g><!--entity src.auto_pass.server--><g class="entity" data-qualified-name="src.auto_pass.server" data-source-line="14" id="ent0012"><rect fill="#F1F1F1" height="58.1358" rx="2.5" ry="2.5" style="stroke:#181818;stroke-width:0.5;" width="154.0075" x="117.18" y="300.48"/><text fill="#000000" font-family="sans-serif" font-size="14" lengthAdjust="spacing" textLength="134.0075" x="127.18" y="325.4459">src.auto_pass.server</text><text fill="#000000" font-family="sans-serif" font-size="14" lengthAdjust="spacing" textLength="81.8017" x="127.18" y="344.5139">1 python file</text></g><!--entity src.auto_pass.web--><g class="entity" data-qualified-name="src.auto_pass.web" data-source-line="15" id="ent0013"><rect fill="#F1F1F1" height="96.2717" rx="2.5" ry="2.5" style="stroke:#181818;stroke-width:0.5;" width="194.3133" x="622.03" y="7"/><text fill="#000000" font-family="sans-serif" font-size="14" lengthAdjust="spacing" textLength="120.3436" x="632.03" y="31.9659">src.auto_pass.web</text><text fill="#000000" font-family="sans-serif" font-size="14" lengthAdjust="spacing" textLength="147.2654" x="632.03" y="51.0339">0 child pkg, 3 modules</text><text fill="#000000" font-family="sans-serif" font-size="14" lengthAdjust="spacing" textLength="88.5076" x="632.03" y="70.1018">4 python files</text><text fill="#000000" font-family="sans-serif" font-size="14" lengthAdjust="spacing" textLength="174.3133" x="632.03" y="89.1697">examples: app, audit, auth</text></g><!--entity src.auto_pass.web.app--><g class="entity" data-qualified-name="src.auto_pass.web.app" data-source-line="16" id="ent0014"><rect fill="#F1F1F1" height="58.1358" rx="2.5" ry="2.5" style="stroke:#181818;stroke-width:0.5;" width="169.1694" x="872.6" y="300.48"/><text fill="#000000" font-family="sans-serif" font-size="14" lengthAdjust="spacing" textLength="149.1694" x="882.6" y="325.4459">src.auto_pass.web.app</text><text fill="#000000" font-family="sans-serif" font-size="14" lengthAdjust="spacing" textLength="81.8017" x="882.6" y="344.5139">1 python file</text></g><!--entity src.auto_pass.web.audit--><g class="entity" data-qualified-name="src.auto_pass.web.audit" data-source-line="17" id="ent0015"><rect fill="#F1F1F1" height="58.1358" rx="2.5" ry="2.5" style="stroke:#181818;stroke-width:0.5;" width="177.8774" x="777.25" y="437.68"/><text fill="#000000" font-family="sans-serif" font-size="14" lengthAdjust="spacing" textLength="157.8774" x="787.25" y="462.6459">src.auto_pass.web.audit</text><text fill="#000000" font-family="sans-serif" font-size="14" lengthAdjust="spacing" textLength="81.8017" x="787.25" y="481.7139">1 python file</text></g><!--entity src.auto_pass.web.auth--><g class="entity" data-qualified-name="src.auto_pass.web.auth" data-source-line="18" id="ent0016"><rect fill="#F1F1F1" height="58.1358" rx="2.5" ry="2.5" style="stroke:#181818;stroke-width:0.5;" width="174.3074" x="990.03" y="437.68"/><text fill="#000000" font-family="sans-serif" font-size="14" lengthAdjust="spacing" textLength="154.3074" x="1000.03" y="462.6459">src.auto_pass.web.auth</text><text fill="#000000" font-family="sans-serif" font-size="14" lengthAdjust="spacing" textLength="81.8017" x="1000.03" y="481.7139">1 python file</text></g><!--link src.auto_pass to src.auto_pass.dbindex--><g class="link" data-entity-1="ent0003" data-entity-2="ent0008" data-link-type="dependency" data-source-line="19" id="lnk17"><path d="M679.62,377.83 C656.78,397.63 635.5153,416.0718 615.6453,433.2818" fill="none" id="src.auto_pass-to-src.auto_pass.dbindex" style="stroke:#181818;stroke-width:1;"/><polygon fill="#181818" points="611.11,437.21,620.5318,434.3413,614.8894,433.9365,615.2942,428.2942,611.11,437.21" style="stroke:#181818;stroke-width:1;"/></g><!--link src.auto_pass to src.auto_pass.envfile--><g class="link" data-entity-1="ent0003" data-entity-2="ent0009" data-link-type="dependency" data-source-line="20" id="lnk18"><path d="M732.91,377.97 C730.8,456.21 726.8214,603.9922 725.1114,667.5222" fill="none" id="src.auto_pass-to-src.auto_pass.envfile" style="stroke:#181818;stroke-width:1;"/><polygon fill="#181818" points="724.95,673.52,729.1907,664.6309,725.0845,668.5218,721.1936,664.4156,724.95,673.52" style="stroke:#181818;stroke-width:1;"/></g><!--link src.auto_pass to src.auto_pass.keepassxc--><g class="link" data-entity-1="ent0003" data-entity-2="ent0010" data-link-type="dependency" data-source-line="21" id="lnk19"><path d="M630.73,366.69 C567.48,388.79 493.3644,414.6813 434.5644,435.2213" fill="none" id="src.auto_pass-to-src.auto_pass.keepassxc" style="stroke:#181818;stroke-width:1;"/><polygon fill="#181818" points="428.9,437.2,438.7156,438.0082,433.6203,435.5511,436.0774,430.4558,428.9,437.2" style="stroke:#181818;stroke-width:1;"/></g><!--link src.auto_pass.__main__ to src.auto_pass.cli--><g class="link" data-entity-1="ent0004" data-entity-2="ent0006" data-link-type="dependency" data-source-line="22" id="lnk20"><path d="M514.18,84.48 C514.18,107.56 514.18,133.97 514.18,157.04" fill="none" id="src.auto_pass.__main__-to-src.auto_pass.cli" style="stroke:#181818;stroke-width:1;"/><polygon fill="#181818" points="514.18,163.04,518.18,154.04,514.18,158.04,510.18,154.04,514.18,163.04" style="stroke:#181818;stroke-width:1;"/></g><!--link src.auto_pass.cli to src.auto_pass.allowlist--><g class="link" data-entity-1="ent0006" data-entity-2="ent0005" data-link-type="dependency" data-source-line="23" id="lnk21"><path d="M450.56,197.59 C345.76,206.03 143.94,228.83 99.18,281.41 C62.11,324.96 70.9541,391.567 80.5641,431.437" fill="none" id="src.auto_pass.cli-to-src.auto_pass.allowlist" style="stroke:#181818;stroke-width:1;"/><polygon fill="#181818" points="81.97,437.27,83.7497,427.5833,80.7984,432.4092,75.9725,429.4579,81.97,437.27" style="stroke:#181818;stroke-width:1;"/></g><!--link src.auto_pass.cli to src.auto_pass.client--><g class="link" data-entity-1="ent0006" data-entity-2="ent0007" data-link-type="dependency" data-source-line="24" id="lnk22"><path d="M500.98,221.69 C490.23,244.76 477.6551,271.7419 466.9051,294.8019" fill="none" id="src.auto_pass.cli-to-src.auto_pass.client" style="stroke:#181818;stroke-width:1;"/><polygon fill="#181818" points="464.37,300.24,471.7981,293.7729,466.4826,295.7082,464.5473,290.3927,464.37,300.24" style="stroke:#181818;stroke-width:1;"/></g><!--link src.auto_pass.cli to src.auto_pass.dbindex--><g class="link" data-entity-1="ent0006" data-entity-2="ent0008" data-link-type="dependency" data-source-line="25" id="lnk23"><path d="M524.54,221.62 C530.55,238.76 537.95,261.15 543.18,281.41 C557.28,335.97 567.3868,395.0515 573.0568,431.4615" fill="none" id="src.auto_pass.cli-to-src.auto_pass.dbindex" style="stroke:#181818;stroke-width:1;"/><polygon fill="#181818" points="573.98,437.39,576.5475,427.8817,573.2106,432.4495,568.6428,429.1127,573.98,437.39" style="stroke:#181818;stroke-width:1;"/></g><!--link src.auto_pass.cli to src.auto_pass.envfile--><g class="link" data-entity-1="ent0006" data-entity-2="ent0009" data-link-type="dependency" data-source-line="26" id="lnk24"><path d="M578.01,195.76 C712.03,201.97 1017.19,222.37 1100.18,281.41 C1164.1,326.88 1163.42,361.53 1182.18,437.68 C1224.44,609.17 950.4968,671.3213 808.7568,692.0613" fill="none" id="src.auto_pass.cli-to-src.auto_pass.envfile" style="stroke:#181818;stroke-width:1;"/><polygon fill="#181818" points="802.82,692.93,812.3043,695.5848,807.7673,692.2061,811.146,687.6691,802.82,692.93" style="stroke:#181818;stroke-width:1;"/></g><!--link src.auto_pass.cli to src.auto_pass.keepassxc--><g class="link" data-entity-1="ent0006" data-entity-2="ent0010" data-link-type="dependency" data-source-line="27" id="lnk25"><path d="M450.49,213 C417.46,226.68 379.8,248.49 359.18,281.41 C329.14,329.38 333.8334,392.9117 340.2534,431.4217" fill="none" id="src.auto_pass.cli-to-src.auto_pass.keepassxc" style="stroke:#181818;stroke-width:1;"/><polygon fill="#181818" points="341.24,437.34,343.7056,427.8048,340.4178,432.4081,335.8145,429.1203,341.24,437.34" style="stroke:#181818;stroke-width:1;"/></g><!--link src.auto_pass.cli to src.auto_pass.server--><g class="link" data-entity-1="ent0006" data-entity-2="ent0012" data-link-type="dependency" data-source-line="28" id="lnk26"><path d="M450.59,218.53 C407.43,235.8 349.15,259.48 298.18,281.41 C284.53,287.29 275.42,291.3045 261.62,297.5245" fill="none" id="src.auto_pass.cli-to-src.auto_pass.server" style="stroke:#181818;stroke-width:1;"/><polygon fill="#181818" points="256.15,299.99,265.9987,299.9385,260.7084,297.9354,262.7114,292.6451,256.15,299.99" style="stroke:#181818;stroke-width:1;"/></g><!--link src.auto_pass.cli to src.auto_pass.web.app--><g class="link" data-entity-1="ent0006" data-entity-2="ent0014" data-link-type="dependency" data-source-line="29" id="lnk27"><path d="M577.85,206.32 C646.92,221.21 759.95,247.94 854.18,281.41 C869.19,286.74 879.557,290.9389 894.177,297.5789" fill="none" id="src.auto_pass.cli-to-src.auto_pass.web.app" style="stroke:#181818;stroke-width:1;"/><polygon fill="#181818" points="899.64,300.06,893.0996,292.6963,895.0875,297.9924,889.7915,299.9803,899.64,300.06" style="stroke:#181818;stroke-width:1;"/></g><!--link src.auto_pass.cli to src.auto_pass.web.auth--><g class="link" data-entity-1="ent0006" data-entity-2="ent0016" data-link-type="dependency" data-source-line="30" id="lnk28"><path d="M577.88,194.27 C707.39,197.57 994.64,212.68 1059.18,281.41 C1098.7,323.49 1092.7819,391.2977 1085.0419,431.5877" fill="none" id="src.auto_pass.cli-to-src.auto_pass.web.auth" style="stroke:#181818;stroke-width:1;"/><polygon fill="#181818" points="1083.91,437.48,1089.5361,429.3962,1084.8533,432.5698,1081.6797,427.887,1083.91,437.48" style="stroke:#181818;stroke-width:1;"/></g><!--link src.auto_pass.keepassxc to src.auto_pass.notifications--><g class="link" data-entity-1="ent0010" data-entity-2="ent0011" data-link-type="dependency" data-source-line="31" id="lnk29"><path d="M335.72,496.16 C333.51,514.16 332.7861,531.3938 334.9761,549.4138" fill="none" id="src.auto_pass.keepassxc-to-src.auto_pass.notifications" style="stroke:#181818;stroke-width:1;"/><polygon fill="#181818" points="335.7,555.37,338.585,545.9532,335.0968,550.4065,330.6434,546.9183,335.7,555.37" style="stroke:#181818;stroke-width:1;"/></g><!--link src.auto_pass.notifications to src.auto_pass.keepassxc--><g class="link" data-entity-1="ent0011" data-entity-2="ent0010" data-link-type="dependency" data-source-line="33" id="lnk31"><path d="M358.66,555.37 C360.86,537.35 361.5912,520.1153 359.3812,502.1153" fill="none" id="src.auto_pass.notifications-to-src.auto_pass.keepassxc" style="stroke:#181818;stroke-width:1;"/><polygon fill="#181818" points="358.65,496.16,355.7766,505.5804,359.2593,501.1227,363.717,504.6055,358.65,496.16" style="stroke:#181818;stroke-width:1;"/></g><!--link src.auto_pass.notifications to src.auto_pass.envfile--><g class="link" data-entity-1="ent0011" data-entity-2="ent0009" data-link-type="dependency" data-source-line="32" id="lnk30"><path d="M439.89,614.45 C503.01,633.89 579.9061,657.5729 639.8061,676.0329" fill="none" id="src.auto_pass.notifications-to-src.auto_pass.envfile" style="stroke:#181818;stroke-width:1;"/><polygon fill="#181818" points="645.54,677.8,638.1172,671.3268,640.7618,676.3274,635.7611,678.972,645.54,677.8" style="stroke:#181818;stroke-width:1;"/></g><!--link src.auto_pass.server to src.auto_pass.allowlist--><g class="link" data-entity-1="ent0012" data-entity-2="ent0005" data-link-type="dependency" data-source-line="34" id="lnk32"><path d="M172.38,358.89 C154.63,381.97 133.3585,409.6244 115.6185,432.6844" fill="none" id="src.auto_pass.server-to-src.auto_pass.allowlist" style="stroke:#181818;stroke-width:1;"/><polygon fill="#181818" points="111.96,437.44,120.6181,432.7456,115.0087,433.477,114.2773,427.8676,111.96,437.44" style="stroke:#181818;stroke-width:1;"/></g><!--link src.auto_pass.server to src.auto_pass.dbindex--><g class="link" data-entity-1="ent0012" data-entity-2="ent0008" data-link-type="dependency" data-source-line="35" id="lnk33"><path d="M271.43,357.74 C336.92,380.8 424.8707,411.767 491.4307,435.207" fill="none" id="src.auto_pass.server-to-src.auto_pass.dbindex" style="stroke:#181818;stroke-width:1;"/><polygon fill="#181818" points="497.09,437.2,489.9297,430.4376,492.3739,435.5392,487.2723,437.9834,497.09,437.2" style="stroke:#181818;stroke-width:1;"/></g><!--link src.auto_pass.server to src.auto_pass.keepassxc--><g class="link" data-entity-1="ent0012" data-entity-2="ent0010" data-link-type="dependency" data-source-line="36" id="lnk34"><path d="M226.26,358.89 C252.28,381.89 284.3142,410.1866 310.3942,433.2366" fill="none" id="src.auto_pass.server-to-src.auto_pass.keepassxc" style="stroke:#181818;stroke-width:1;"/><polygon fill="#181818" points="314.89,437.21,310.7953,428.2527,311.1435,433.8988,305.4974,434.247,314.89,437.21" style="stroke:#181818;stroke-width:1;"/></g><!--link src.auto_pass.web.app to src.auto_pass.web.audit--><g class="link" data-entity-1="ent0014" data-entity-2="ent0015" data-link-type="dependency" data-source-line="37" id="lnk35"><path d="M938.11,358.89 C922.58,381.97 904.1101,409.4024 888.5901,432.4624" fill="none" id="src.auto_pass.web.app-to-src.auto_pass.web.audit" style="stroke:#181818;stroke-width:1;"/><polygon fill="#181818" points="885.24,437.44,893.5836,432.2069,888.0317,433.292,886.9467,427.7401,885.24,437.44" style="stroke:#181818;stroke-width:1;"/></g><!--link src.auto_pass.web.app to src.auto_pass.web.auth--><g class="link" data-entity-1="ent0014" data-entity-2="ent0016" data-link-type="dependency" data-source-line="38" id="lnk36"><path d="M982.34,358.89 C1002.82,381.97 1027.6068,409.8929 1048.0768,432.9529" fill="none" id="src.auto_pass.web.app-to-src.auto_pass.web.auth" style="stroke:#181818;stroke-width:1;"/><polygon fill="#181818" points="1052.06,437.44,1049.0767,428.0538,1048.7407,433.7007,1043.0938,433.3647,1052.06,437.44" style="stroke:#181818;stroke-width:1;"/></g><?plantuml-src bPJDRiCW383lUGfhvxRQj5ssmrwYrqeH9Mw3IW05z-_j1sj-6XMNz4H4Fdyunev70YCQz4v8NACJhI3RWh462x8EoCBM4ja6AjMY96LDuG_AHB01QHiNI4Dhkcg420YprrWCJ_0chTaHUjgO3t1Nggs1dTBu1i93_-wUzwrSYIFPqWdlOv2ibQx07VOB-8R6LaUDSV_htXOsy28Q5vv-e2mReKnPBa1eRSzQULg0rEh_o8cUFNVLEr9PfqdUDMIHbmqeRmiValS4wAaXNDaiIU1uJxLLfi9BNjI1l0dDAORcJHt8cmw8SRt8l6j0UPknf7PAYjZsFc-SuBpLOtl2Dg-xSRpdZDkDUR-VZyznFlZn4Cw5oJXMYk92TUBaO7vwx2euylbtOCOK4vdfYcZEHlLS6TN5P1kMor-cSNDStvOvRcovz3ya4H8d-M4dmOr_ZZbqDzfpq6GD63PP1uRbQf6ckrcOW_PjDvjzw8GnjqJ8TCYVl9jTdrmKLwbRJLxe1JOWVSSipYNKLPwjSnpVroAe_WC0?></g></svg>
