<?plantuml 1.2026.2?><svg xmlns="http://www.w3.org/2000/svg" xmlns:xlink="http://www.w3.org/1999/xlink" contentStyleType="text/css" data-diagram-type="DESCRIPTION" height="1018px" preserveAspectRatio="none" style="width:1084px;height:1018px;background:#FFFFFF;" version="1.1" viewBox="0 0 1084 1018" width="1084px" zoomAndPan="magnify"><title>auto-pass KeePassXC Automation Architecture</title><defs/><g><g class="title" data-source-line="2"><text fill="#000000" font-family="Monospace" font-size="14" font-weight="bold" lengthAdjust="spacing" textLength="322.6989" x="373.1506" y="24.9659">auto-pass&#160;KeePassXC&#160;Automation&#160;Architecture</text></g><!--cluster Public Entry Surface--><g class="cluster" data-qualified-name="Public Entry Surface" data-source-line="9" id="ent0003"><rect fill="#F8FAFC" height="115" rx="2.5" ry="2.5" style="stroke:#181818;stroke-width:1;" width="348" x="14" y="189.5679"/><text fill="#000000" font-family="Monospace" font-size="14" font-weight="bold" lengthAdjust="spacing" textLength="138.6485" x="118.6758" y="206.5339">Public&#160;Entry&#160;Surface</text></g><!--cluster Configuration And Context--><g class="cluster" data-qualified-name="Configuration And Context" data-source-line="14" id="ent0006"><rect fill="#EFF6FF" height="383" rx="2.5" ry="2.5" style="stroke:#181818;stroke-width:1;" width="468" x="402" y="189.5679"/><text fill="#000000" font-family="Monospace" font-size="14" font-weight="bold" lengthAdjust="spacing" textLength="186.0138" x="542.9931" y="206.5339">Configuration&#160;And&#160;Context</text></g><!--cluster Read Lane--><g class="cluster" data-qualified-name="Read Lane" data-source-line="21" id="ent0011"><rect fill="#F0FDF4" height="326" rx="2.5" ry="2.5" style="stroke:#181818;stroke-width:1;" width="260" x="361" y="591.5679"/><text fill="#000000" font-family="Monospace" font-size="14" font-weight="bold" lengthAdjust="spacing" textLength="71.9457" x="455.0271" y="608.5339">Read&#160;Lane</text></g><!--cluster Write Lane--><g class="cluster" data-qualified-name="Write Lane" data-source-line="27" id="ent0015"><rect fill="#FFF7ED" height="411.5" rx="2.5" ry="2.5" style="stroke:#181818;stroke-width:1;" width="318" x="22" y="601.0679"/><text fill="#000000" font-family="Monospace" font-size="14" font-weight="bold" lengthAdjust="spacing" textLength="74.6792" x="143.6604" y="618.0339">Write&#160;Lane</text></g><!--cluster Validation Surface--><g class="cluster" data-qualified-name="Validation Surface" data-source-line="35" id="ent0021"><rect fill="#FDF2F8" height="251" rx="2.5" ry="2.5" style="stroke:#181818;stroke-width:1;" width="200" x="878" y="44.0679"/><text fill="#000000" font-family="Monospace" font-size="14" font-weight="bold" lengthAdjust="spacing" textLength="126.213" x="914.8935" y="61.0339">Validation&#160;Surface</text></g><!--entity caller--><g class="entity" data-qualified-name="caller" data-source-line="7" id="ent0002"><ellipse cx="132.1457" cy="72.0679" fill="#F1F1F1" rx="8" ry="8" style="stroke:#181818;stroke-width:0.5;"/><path d="M132.1457,80.0679 L132.1457,107.0679 M119.1457,88.0679 L145.1457,88.0679 M132.1457,107.0679 L119.1457,122.0679 M132.1457,107.0679 L145.1457,122.0679" fill="none" style="stroke:#181818;stroke-width:0.5;"/><text fill="#000000" font-family="Monospace" font-size="14" lengthAdjust="spacing" textLength="159.2914" x="52.5" y="138.5339">Caller&#160;/&#160;Script&#160;Consumer</text></g><!--entity docs--><g class="entity" data-qualified-name="docs" data-source-line="40" id="ent0024"><rect fill="#E2E8F0" height="58.1358" rx="2.5" ry="2.5" style="stroke:#181818;stroke-width:0.5;" width="305.1929" x="229.5" y="74.0679"/><text fill="#000000" font-family="Monospace" font-size="14" lengthAdjust="spacing" textLength="81.5917" x="239.5" y="99.0339">README.md</text><text fill="#000000" font-family="Monospace" font-size="14" lengthAdjust="spacing" textLength="285.1929" x="239.5" y="118.1018">docs/contributor-architecture-blueprint.md</text></g><!--entity cli--><g class="entity" data-qualified-name="Public Entry Surface.cli" data-source-line="10" id="ent0004"><rect fill="#DBEAFE" height="77.2038" rx="2.5" ry="2.5" style="stroke:#181818;stroke-width:0.5;" width="157.5775" x="196" y="219.5679"/><text fill="#000000" font-family="Monospace" font-size="14" lengthAdjust="spacing" textLength="64.4138" x="206" y="244.5339">auto-pass</text><text fill="#000000" font-family="Monospace" font-size="14" lengthAdjust="spacing" textLength="137.5775" x="206" y="263.6018">python&#160;-m&#160;auto_pass</text><text fill="#000000" font-family="Monospace" font-size="14" lengthAdjust="spacing" text-decoration="underline" textLength="33.2079" x="206" y="282.6697">main</text><text fill="#000000" font-family="Monospace" font-size="14" lengthAdjust="spacing" textLength="90.2016" x="239.2079" y="282.6697">.py&#160;-&gt;&#160;cli.main</text></g><!--entity exports--><g class="entity" data-qualified-name="Public Entry Surface.exports" data-source-line="11" id="ent0005"><rect fill="#E0F2FE" height="58.1358" rx="2.5" ry="2.5" style="stroke:#181818;stroke-width:0.5;" width="156.1775" x="22" y="229.0679"/><text fill="#000000" font-family="Monospace" font-size="14" lengthAdjust="spacing" textLength="95.7457" x="32" y="254.0339">src/auto_pass/</text><text fill="#000000" font-family="Monospace" font-size="14" lengthAdjust="spacing" text-decoration="underline" textLength="20.9299" x="127.7457" y="254.0339">init</text><text fill="#000000" font-family="Monospace" font-size="14" lengthAdjust="spacing" textLength="19.5019" x="148.6756" y="254.0339">.py</text><text fill="#000000" font-family="Monospace" font-size="14" lengthAdjust="spacing" textLength="95.9557" x="32" y="273.1018">library&#160;exports</text></g><!--entity env_input--><g class="entity" data-qualified-name="Configuration And Context.env_input" data-source-line="15" id="ent0007"><rect fill="#E2E8F0" height="77.2038" rx="2.5" ry="2.5" style="stroke:#181818;stroke-width:0.5;" width="218.0292" x="410" y="219.5679"/><text fill="#000000" font-family="Monospace" font-size="14" lengthAdjust="spacing" textLength="171.9333" x="420" y="244.5339">config/auto-pass.env.local</text><text fill="#000000" font-family="Monospace" font-size="14" lengthAdjust="spacing" textLength="123.2835" x="420" y="263.6018">shell&#160;env&#160;overrides</text><text fill="#000000" font-family="Monospace" font-size="14" lengthAdjust="spacing" textLength="198.0292" x="420" y="282.6697">config/auto-pass.env.example</text></g><!--entity envfile--><g class="entity" data-qualified-name="Configuration And Context.envfile" data-source-line="16" id="ent0008"><rect fill="#E0F2FE" height="77.2038" rx="2.5" ry="2.5" style="stroke:#181818;stroke-width:0.5;" width="211.7573" x="410" y="353.5679"/><text fill="#000000" font-family="Monospace" font-size="14" lengthAdjust="spacing" textLength="63.0977" x="420" y="378.5339">envfile.py</text><text fill="#000000" font-family="Monospace" font-size="14" lengthAdjust="spacing" textLength="93.1976" x="420" y="397.6018">parse&#160;env&#160;text</text><text fill="#000000" font-family="Monospace" font-size="14" lengthAdjust="spacing" textLength="191.7573" x="420" y="416.6697">apply&#160;AUTO_PASS_PROFILE_*</text></g><!--entity context--><g class="entity" data-qualified-name="Configuration And Context.context" data-source-line="17" id="ent0009"><rect fill="#FCE7F3" height="77.2038" rx="2.5" ry="2.5" style="stroke:#181818;stroke-width:0.5;" width="259.0491" x="410.5" y="487.5679"/><text fill="#000000" font-family="Monospace" font-size="14" lengthAdjust="spacing" textLength="139.6635" x="420.5" y="512.5339">keepassxc.py&#160;context</text><text fill="#000000" font-family="Monospace" font-size="14" lengthAdjust="spacing" textLength="239.0491" x="420.5" y="531.6018">resolve&#160;DB&#160;path&#160;/&#160;password&#160;/&#160;key&#160;file</text><text fill="#000000" font-family="Monospace" font-size="14" lengthAdjust="spacing" textLength="208.4172" x="420.5" y="550.6697">support&#160;AUTO_PASS_*&#160;and&#160;PF_*</text></g><!--entity cache--><g class="entity" data-qualified-name="Configuration And Context.cache" data-source-line="18" id="ent0010"><path d="M640.5,365.5679 L640.5,418.7038 A2.5,2.5 0 0 0 643,421.2038 L858.6613,421.2038 A2.5,2.5 0 0 0 861.1613,418.7038 L861.1613,373.0679 L851.1613,363.0679 L643,363.0679 A2.5,2.5 0 0 0 640.5,365.5679" fill="#FEF3C7" style="stroke:#181818;stroke-width:0.5;"/><path d="M851.1613,363.0679 L851.1613,370.5679 A2.5,2.5 0 0 0 853.6613,373.0679 L861.1613,373.0679" fill="#FEF3C7" style="stroke:#181818;stroke-width:0.5;"/><text fill="#000000" font-family="Monospace" font-size="14" lengthAdjust="spacing" textLength="121.6315" x="650.5" y="388.0339">/.cache/auto-pass/</text><text fill="#000000" font-family="Monospace" font-size="14" lengthAdjust="spacing" textLength="200.6613" x="650.5" y="407.1018">keepassxc-db-password-*.json</text></g><!--entity read_api--><g class="entity" data-qualified-name="Read Lane.read_api" data-source-line="22" id="ent0012"><rect fill="#DCFCE7" height="77.2038" rx="2.5" ry="2.5" style="stroke:#181818;stroke-width:0.5;" width="244.4611" x="369" y="621.5679"/><text fill="#000000" font-family="Monospace" font-size="14" lengthAdjust="spacing" textLength="161.6994" x="379" y="646.5339">resolve_keepassxc_entry</text><text fill="#000000" font-family="Monospace" font-size="14" lengthAdjust="spacing" textLength="224.4611" x="379" y="665.6018">resolve_keepassxc_entry_all_fields</text><text fill="#000000" font-family="Monospace" font-size="14" lengthAdjust="spacing" textLength="185.7793" x="379" y="684.6697">attribute&#160;alias&#160;normalization</text></g><!--entity show_cmd--><g class="entity" data-qualified-name="Read Lane.show_cmd" data-source-line="23" id="ent0013"><rect fill="#BBF7D0" height="39.0679" rx="2.5" ry="2.5" style="stroke:#181818;stroke-width:0.5;" width="144.1935" x="419" y="755.5679"/><text fill="#000000" font-family="Monospace" font-size="14" lengthAdjust="spacing" textLength="124.1935" x="429" y="780.5339">keepassxc-cli&#160;show</text></g><!--entity read_out--><g class="entity" data-qualified-name="Read Lane.read_out" data-source-line="24" id="ent0014"><path d="M390.5,854.0679 L390.5,907.2038 A2.5,2.5 0 0 0 393,909.7038 L589.4953,909.7038 A2.5,2.5 0 0 0 591.9953,907.2038 L591.9953,861.5679 L581.9953,851.5679 L393,851.5679 A2.5,2.5 0 0 0 390.5,854.0679" fill="#DCFCE7" style="stroke:#181818;stroke-width:0.5;"/><path d="M581.9953,851.5679 L581.9953,859.0679 A2.5,2.5 0 0 0 584.4953,861.5679 L591.9953,861.5679" fill="#DCFCE7" style="stroke:#181818;stroke-width:0.5;"/><text fill="#000000" font-family="Monospace" font-size="14" lengthAdjust="spacing" textLength="88.1157" x="400.5" y="876.5339">stdout&#160;/&#160;JSON</text><text fill="#000000" font-family="Monospace" font-size="14" lengthAdjust="spacing" textLength="181.4953" x="400.5" y="895.6018">requested&#160;fields&#160;or&#160;all&#160;fields</text></g><!--entity write_api--><g class="entity" data-qualified-name="Write Lane.write_api" data-source-line="28" id="ent0016"><rect fill="#FED7AA" height="58.1358" rx="2.5" ry="2.5" style="stroke:#181818;stroke-width:0.5;" width="176.9254" x="125.5" y="631.0679"/><text fill="#000000" font-family="Monospace" font-size="14" lengthAdjust="spacing" textLength="91.9236" x="135.5" y="656.0339">ensure_group</text><text fill="#000000" font-family="Monospace" font-size="14" lengthAdjust="spacing" textLength="156.9254" x="135.5" y="675.1018">upsert_keepassxc_entry</text></g><!--entity edit_cmd--><g class="entity" data-qualified-name="Write Lane.edit_cmd" data-source-line="29" id="ent0017"><rect fill="#FDBA74" height="39.0679" rx="2.5" ry="2.5" style="stroke:#181818;stroke-width:0.5;" width="134.5336" x="196.5" y="755.5679"/><text fill="#000000" font-family="Monospace" font-size="14" lengthAdjust="spacing" textLength="114.5336" x="206.5" y="780.5339">keepassxc-cli&#160;edit</text></g><!--entity mkdir_cmd--><g class="entity" data-qualified-name="Write Lane.mkdir_cmd" data-source-line="30" id="ent0018"><rect fill="#FDBA74" height="39.0679" rx="2.5" ry="2.5" style="stroke:#181818;stroke-width:0.5;" width="147.9315" x="30" y="755.5679"/><text fill="#000000" font-family="Monospace" font-size="14" lengthAdjust="spacing" textLength="127.9315" x="40" y="780.5339">keepassxc-cli&#160;mkdir</text></g><!--entity add_cmd--><g class="entity" data-qualified-name="Write Lane.add_cmd" data-source-line="31" id="ent0019"><rect fill="#FDBA74" height="39.0679" rx="2.5" ry="2.5" style="stroke:#181818;stroke-width:0.5;" width="134.4356" x="74" y="861.0679"/><text fill="#000000" font-family="Monospace" font-size="14" lengthAdjust="spacing" textLength="114.4356" x="84" y="886.0339">keepassxc-cli&#160;add</text></g><!--entity write_out--><g class="entity" data-qualified-name="Write Lane.write_out" data-source-line="32" id="ent0020"><path d="M43.5,949.0679 L43.5,1002.2038 A2.5,2.5 0 0 0 46,1004.7038 L235.9013,1004.7038 A2.5,2.5 0 0 0 238.4013,1002.2038 L238.4013,956.5679 L228.4013,946.5679 L46,946.5679 A2.5,2.5 0 0 0 43.5,949.0679" fill="#FFEDD5" style="stroke:#181818;stroke-width:0.5;"/><path d="M228.4013,946.5679 L228.4013,954.0679 A2.5,2.5 0 0 0 230.9013,956.5679 L238.4013,956.5679" fill="#FFEDD5" style="stroke:#181818;stroke-width:0.5;"/><text fill="#000000" font-family="Monospace" font-size="14" lengthAdjust="spacing" textLength="90.9577" x="53.5" y="971.5339">stdout&#160;modes</text><text fill="#000000" font-family="Monospace" font-size="14" lengthAdjust="spacing" textLength="174.9013" x="53.5" y="990.6018">edit&#160;/&#160;add&#160;/&#160;created&#160;/&#160;exists</text></g><!--entity tests--><g class="entity" data-qualified-name="Validation Surface.tests" data-source-line="36" id="ent0022"><rect fill="#FBCFE8" height="58.1358" rx="2.5" ry="2.5" style="stroke:#181818;stroke-width:0.5;" width="174.3214" x="886" y="229.0679"/><text fill="#000000" font-family="Monospace" font-size="14" lengthAdjust="spacing" textLength="130.6475" x="896" y="254.0339">tests/test_envfile.py</text><text fill="#000000" font-family="Monospace" font-size="14" lengthAdjust="spacing" textLength="154.3214" x="896" y="273.1018">tests/test_keepassxc.py</text></g><!--entity ci--><g class="entity" data-qualified-name="Validation Surface.ci" data-source-line="37" id="ent0023"><rect fill="#F9A8D4" height="58.1358" rx="2.5" ry="2.5" style="stroke:#181818;stroke-width:0.5;" width="182.6234" x="886.5" y="74.0679"/><text fill="#000000" font-family="Monospace" font-size="14" lengthAdjust="spacing" textLength="162.6234" x="896.5" y="99.0339">.github/workflows/ci.yml</text><text fill="#000000" font-family="Monospace" font-size="14" lengthAdjust="spacing" textLength="149.1274" x="896.5" y="118.1018">install&#160;+&#160;help&#160;+&#160;unittest</text></g><g class="link" data-entity-1="ent0002" data-entity-2="ent0004" data-link-type="dependency" id="lnk25"><polygon fill="#181818" points="239.9153,219.5297,236.6921,210.2232,236.5011,215.8768,230.8475,215.6858,239.9153,219.5297" style="stroke:#181818;stroke-width:1;"/><path d="M168.0849,142.6763 C190.0936,166.224 213.9947,191.7965 235.8183,215.1462" fill="none" style="stroke:#181818;stroke-width:1;"/></g><g class="link" data-entity-1="ent0004" data-entity-2="ent0008" data-link-type="dependency" id="lnk26"><polygon fill="#181818" points="486.4875,353.449,483.3761,344.1046,483.1174,349.7555,477.4664,349.4968,486.4875,353.449" style="stroke:#181818;stroke-width:1;"/><path d="M354.2529,289.9765 C368.7053,295.157 383.7267,300.2459 398,304.5679 C416.365,310.1289 423.2647,305.1803 440,314.5679 C457.4707,324.3681 469.5699,334.9081 482.4433,349.0168" fill="none" style="stroke:#181818;stroke-width:1;"/></g><g class="link" data-entity-1="ent0007" data-entity-2="ent0008" data-link-type="dependency" id="lnk27"><polygon fill="#181818" points="516.8598,353.2365,521.0633,344.3297,516.9734,348.2378,513.0653,344.1479,516.8598,353.2365" style="stroke:#181818;stroke-width:1;"/><path d="M518.1403,296.8938 C517.7386,314.5683 517.3978,329.5629 516.9961,347.238" fill="none" style="stroke:#181818;stroke-width:1;"/></g><g class="link" data-entity-1="ent0008" data-entity-2="ent0009" data-link-type="dependency" id="lnk28"><polygon fill="#181818" points="533.1216,487.2365,535.4471,477.6661,532.2271,482.3171,527.5761,479.0972,533.1216,487.2365" style="stroke:#181818;stroke-width:1;"/><path d="M522.8774,430.8938 C526.091,448.5683 528.8346,463.6581 532.0482,481.3333" fill="none" style="stroke:#181818;stroke-width:1;"/></g><g class="link" data-entity-1="ent0010" data-entity-2="ent0009" data-link-type="dependency" id="lnk29"><polygon fill="#181818" points="600.1547,487.4356,609.9061,486.0534,604.3936,484.7838,605.6633,479.2712,600.1547,487.4356" style="stroke:#181818;stroke-width:1;"/><path d="M705.994,421.2233 C675.1308,440.5311 638.922,463.1831 605.2414,484.2534" fill="none" style="stroke:#181818;stroke-width:1;"/><text fill="#000000" font-family="Monospace" font-size="13" lengthAdjust="spacing" textLength="91.4551" x="661" y="464.4649">seed&#160;password</text></g><g class="link" data-entity-1="ent0005" data-entity-2="ent0012" data-link-type="dependency" id="lnk30"><polygon fill="#181818" points="397.7852,621.4988,391.7286,613.7323,393.3741,619.1446,387.9619,620.7901,397.7852,621.4988" style="stroke:#181818;stroke-width:1;"/><path d="M129.5948,287.1908 C165.6321,322.498 226.8908,386.0461 269,448.5679 C303.3099,499.5098 287.3557,528.3672 330,572.5679 C349.0568,592.3202 368.3234,605.7749 392.4919,618.6737" fill="none" style="stroke:#181818;stroke-width:1;stroke-dasharray:7,7;"/></g><g class="link" data-entity-1="ent0005" data-entity-2="ent0016" data-link-type="dependency" id="lnk31"><polygon fill="#181818" points="205.9926,630.9718,207.3726,621.2201,204.6222,626.1632,199.679,623.4128,205.9926,630.9718" style="stroke:#181818;stroke-width:1;"/><path d="M108.0163,287.1951 C128.9476,360.6386 183.4266,551.793 204.3481,625.2015" fill="none" style="stroke:#181818;stroke-width:1;stroke-dasharray:7,7;"/></g><g class="link" data-entity-1="ent0004" data-entity-2="ent0012" data-link-type="dependency" id="lnk32"><polygon fill="#181818" points="444.2047,621.3444,440.1065,612.3887,440.4569,618.0347,434.8109,618.3852,444.2047,621.3444" style="stroke:#181818;stroke-width:1;"/><path d="M291.051,296.6363 C293.248,302.5697 295.3214,308.6876 297,314.5679 C316.2152,381.883 297.8913,405.026 325,469.5679 C350.8288,531.0628 400.2948,582.567 439.7074,617.3728" fill="none" style="stroke:#181818;stroke-width:1;"/><text fill="#000000" font-family="Monospace" font-size="13" lengthAdjust="spacing" textLength="69.8231" x="327" y="464.4649">get&#160;/&#160;get-all</text></g><g class="link" data-entity-1="ent0009" data-entity-2="ent0012" data-link-type="dependency" id="lnk33"><polygon fill="#181818" points="505.0435,621.2365,511.9255,614.1911,506.7835,616.549,504.4256,611.407,505.0435,621.2365" style="stroke:#181818;stroke-width:1;"/><path d="M525.9586,564.8938 C519.3976,582.5683 513.6928,597.9364 507.1315,615.6115" fill="none" style="stroke:#181818;stroke-width:1;"/></g><g class="link" data-entity-1="ent0012" data-entity-2="ent0013" data-link-type="dependency" id="lnk34"><polygon fill="#181818" points="491,755.2894,495,746.2894,491,750.2894,487,746.2894,491,755.2894" style="stroke:#181818;stroke-width:1;"/><path d="M491,698.6953 C491,717.6993 491,733.9216 491,749.2894" fill="none" style="stroke:#181818;stroke-width:1;"/></g><g class="link" data-entity-1="ent0013" data-entity-2="ent0014" data-link-type="dependency" id="lnk35"><polygon fill="#181818" points="491,851.474,495,842.474,491,846.474,487,842.474,491,851.474" style="stroke:#181818;stroke-width:1;"/><path d="M491,794.5716 C491,810.3871 491,827.3868 491,845.474" fill="none" style="stroke:#181818;stroke-width:1;"/></g><g class="link" data-entity-1="ent0004" data-entity-2="ent0016" data-link-type="dependency" id="lnk36"><polygon fill="#181818" points="207.6292,630.8712,209.7768,621.2593,206.6436,625.9693,201.9337,622.8361,207.6292,630.8712" style="stroke:#181818;stroke-width:1;"/><path d="M255.221,296.6208 C236.752,333.9642 210.505,393.4797 200,448.5679 C187.7194,512.9678 198.2745,584.3411 206.4465,624.9889" fill="none" style="stroke:#181818;stroke-width:1;"/><text fill="#000000" font-family="Monospace" font-size="13" lengthAdjust="spacing" textLength="65.6631" x="202" y="464.4649">set&#160;/&#160;mkdir</text></g><g class="link" data-entity-1="ent0009" data-entity-2="ent0016" data-link-type="dependency" id="lnk37"><polygon fill="#181818" points="221.1418,630.9493,227.8368,623.7259,222.7584,626.2179,220.2664,621.1395,221.1418,630.9493" style="stroke:#181818;stroke-width:1;"/><path d="M410.4545,540.7157 C346.3154,549.6772 277.2833,563.3446 252,582.5679 C236.4175,594.4155 228.7413,608.7065 223.0817,625.2716" fill="none" style="stroke:#181818;stroke-width:1;"/></g><g class="link" data-entity-1="ent0016" data-entity-2="ent0017" data-link-type="dependency" id="lnk38"><polygon fill="#181818" points="256.4182,755.3368,256.7053,745.4921,254.5216,750.7105,249.3032,748.5267,256.4182,755.3368" style="stroke:#181818;stroke-width:1;"/><path d="M227.461,689.1955 C231.565,697.9313 236.0374,707.6167 240,716.5679 C245.6925,729.4268 249.5165,738.502 254.1423,749.7852" fill="none" style="stroke:#181818;stroke-width:1;"/><text fill="#000000" font-family="Monospace" font-size="13" lengthAdjust="spacing" textLength="18.252" x="251" y="732.4649">set</text></g><g class="link" data-entity-1="ent0017" data-entity-2="ent0020" data-link-type="dependency" id="lnk39"><polygon fill="#181818" points="186.7778,946.4617,196.4396,944.5514,190.8662,943.5833,191.8342,938.0099,186.7778,946.4617" style="stroke:#181818;stroke-width:1;"/><path d="M277.0641,794.7191 C283.3102,805.974 288.5386,820.5991 284,833.5679 C266.9553,882.2719 226.7299,918.3341 191.6839,943.0077" fill="none" style="stroke:#181818;stroke-width:1;"/><text fill="#000000" font-family="Monospace" font-size="13" lengthAdjust="spacing" textLength="70.1481" x="278" y="885.9649">entry&#160;exists</text></g><g class="link" data-entity-1="ent0016" data-entity-2="ent0018" data-link-type="dependency" id="lnk40"><polygon fill="#181818" points="99.6712,755.3343,102.3642,745.8608,98.9672,750.3841,94.4439,746.9871,99.6712,755.3343" style="stroke:#181818;stroke-width:1;"/><path d="M133.1055,689.1438 C121.9696,696.3912 111.9781,705.4033 105,716.5679 C97.8562,727.9977 97.1241,737.4226 98.8264,749.3941" fill="none" style="stroke:#181818;stroke-width:1;"/><text fill="#000000" font-family="Monospace" font-size="13" lengthAdjust="spacing" textLength="127.9201" x="107" y="732.4649">mkdir&#160;or&#160;parent&#160;path</text></g><g class="link" data-entity-1="ent0017" data-entity-2="ent0019" data-link-type="dependency" id="lnk41"><polygon fill="#181818" points="153.9678,860.9063,162.5351,856.0482,156.9406,856.8861,156.1027,851.2916,153.9678,860.9063" style="stroke:#181818;stroke-width:1;"/><path d="M224.8054,794.6991 C215.5947,799.8852 206.1087,805.9364 198,812.5679 C180.7402,826.6835 168.1951,841.6664 157.5352,856.082" fill="none" style="stroke:#181818;stroke-width:1;"/><text fill="#000000" font-family="Monospace" font-size="13" lengthAdjust="spacing" textLength="82.7841" x="200" y="828.4649">entry&#160;missing</text></g><g class="link" data-entity-1="ent0018" data-entity-2="ent0019" data-link-type="dependency" id="lnk42"><polygon fill="#181818" points="85.897,860.8373,80.0247,852.9307,81.5425,858.3801,76.0931,859.8979,85.897,860.8373" style="stroke:#181818;stroke-width:1;"/><path d="M70.932,794.6576 C64.9042,799.6494 59.4416,805.6273 56,812.5679 C51.8537,820.9297 51.2224,825.5501 56,833.5679 C62.9571,845.2435 68.7959,851.1872 80.6716,857.8886" fill="none" style="stroke:#181818;stroke-width:1;"/><text fill="#000000" font-family="Monospace" font-size="13" lengthAdjust="spacing" textLength="115.5051" x="58" y="828.4649">after&#160;group&#160;ensure</text></g><g class="link" data-entity-1="ent0019" data-entity-2="ent0020" data-link-type="dependency" id="lnk43"><polygon fill="#181818" points="141,946.2386,145,937.2386,141,941.2386,137,937.2386,141,946.2386" style="stroke:#181818;stroke-width:1;"/><path d="M141,900.3879 C141,913.5507 141,925.3661 141,940.2386" fill="none" style="stroke:#181818;stroke-width:1;"/></g><g class="link" data-entity-1="ent0018" data-entity-2="ent0020" data-link-type="dependency" id="lnk44"><polygon fill="#181818" points="92.1358,946.3561,87.4947,937.6693,88.1916,943.2831,82.5779,943.98,92.1358,946.3561" style="stroke:#181818;stroke-width:1;"/><path d="M65.0942,794.6785 C58.6235,799.567 52.7927,805.4991 49,812.5679 C35.9236,836.9398 34.8338,869.2116 65,917.5679 C71.8963,928.6227 77.0408,934.5951 87.4028,942.6685" fill="none" style="stroke:#181818;stroke-width:1;"/></g><g class="link" data-entity-1="ent0022" data-entity-2="ent0008" data-link-type="dependency" id="lnk45"><polygon fill="#181818" points="622.0727,355.9823,631.8147,357.4295,626.8906,354.6451,629.6751,349.721,622.0727,355.9823" style="stroke:#181818;stroke-width:1;"/><path d="M917.8852,287.1325 C903.829,293.525 888.5685,299.8225 874,304.5679 C769.2434,338.6902 737.5527,325.5537 631,353.5679 C628.0551,354.3422 630.8563,353.5443 627.8541,354.3776" fill="none" style="stroke:#181818;stroke-width:1;stroke-dasharray:7,7;"/></g><g class="link" data-entity-1="ent0022" data-entity-2="ent0012" data-link-type="dependency" id="lnk46"><polygon fill="#181818" points="613.1951,647.9715,622.592,650.9208,618.1626,647.4022,621.6812,642.9728,613.1951,647.9715" style="stroke:#181818;stroke-width:1;"/><path d="M975.8796,287.1764 C980.4651,348.4098 981.9707,494.5966 903,572.5679 C862.5959,612.4607 725.4302,635.1097 619.1561,647.2884" fill="none" style="stroke:#181818;stroke-width:1;stroke-dasharray:7,7;"/></g><g class="link" data-entity-1="ent0022" data-entity-2="ent0016" data-link-type="dependency" id="lnk47"><polygon fill="#181818" points="260.8535,631.0328,270.6724,630.2649,265.2504,628.652,266.8632,623.23,260.8535,631.0328" style="stroke:#181818;stroke-width:1;"/><path d="M964.3454,287.2092 C940.768,363.7766 876.9587,570.3149 874,572.5679 C828.2673,607.3938 412.8509,577.9667 357,591.5679 C323.2578,599.785 293.2216,613.5062 266.1297,628.1759" fill="none" style="stroke:#181818;stroke-width:1;stroke-dasharray:7,7;"/></g><g class="link" data-entity-1="ent0023" data-entity-2="ent0022" data-link-type="dependency" id="lnk48"><polygon fill="#181818" points="973.9197,228.9246,978.2115,220.0601,974.083,223.9273,970.2158,219.7988,973.9197,228.9246" style="stroke:#181818;stroke-width:1;"/><path d="M977.0829,132.1305 C976.1836,159.6503 975.0159,195.3802 974.1157,222.9278" fill="none" style="stroke:#181818;stroke-width:1;"/></g><g class="link" data-entity-1="ent0024" data-entity-2="ent0004" data-link-type="dependency" id="lnk49"><polygon fill="#181818" points="276.5605,219.1301,281.6406,210.6926,277.1775,214.1683,273.7017,209.7053,276.5605,219.1301" style="stroke:#181818;stroke-width:1;"/><path d="M325.1963,132.2991 C314.109,140.102 303.5863,149.5242 296,160.5679 C284.2533,177.6681 279.6598,194.2076 277.3009,213.176" fill="none" style="stroke:#181818;stroke-width:1;stroke-dasharray:7,7;"/><text fill="#000000" font-family="Monospace" font-size="13" lengthAdjust="spacing" textLength="68.5751" x="298" y="176.4649">documents</text></g><g class="link" data-entity-1="ent0024" data-entity-2="ent0009" data-link-type="dependency" id="lnk50"><polygon fill="#181818" points="458.6234,487.3963,453.2307,479.155,454.4224,484.685,448.8925,485.8766,458.6234,487.3963" style="stroke:#181818;stroke-width:1;"/><path d="M380.52,132.2607 C377.3517,201.9011 372.3581,380.0673 401,430.5679 C414.3163,454.0467 431.1158,469.6425 453.5822,484.1427" fill="none" style="stroke:#181818;stroke-width:1;stroke-dasharray:7,7;"/><text fill="#000000" font-family="Monospace" font-size="13" lengthAdjust="spacing" textLength="50.466" x="384" y="330.4649">explains</text></g><?plantuml-src ZLPDR-Cs4BthLqoTMmf9mMwwJdDOGBP4eEtk9eZxTJ0Wq19jiwP8bQIIkCNkR--G-ZRQHIyIHNBUp9jvC_OtjQQ7YeAWPzLOC1MpLDB0SYiOqCQgiAR6m4-CFUBxzpKak5THovM4H1T7RbbX6yq2S-AofffMO8wqL2zS7c1FXPcUb6nF6s69alOJhHXyL5APcXRJE_XveWUsiMSCG2CubGV1We0MLcbOhAaGJ4CCcqBpsi9QITDKJ2-06YZyOH1q6B1uR7Q25v19gy-mQVGUVItWYjoHXApXxm163x0Os6vbVRP791XMFWLvkvdd5UNuZEepXE-X43no6wrdmU4gNMK9oUQWHXVnW17dEPVSUeYj57odASR5NckbhV4utHgkiXlo1h4-JyWWrJq_DBfBlYmTUSjUBJBA27b7o2MZmbl40x68oUT8A4pJLfeZ4m9m0zGpqvgN32d-gm5xfLKjM1kVV4OADIhbAdkJtP6RkKCytdF1F3qifs7UWOjnAsbTYpCal_pya3yccqt--FH0VlYGvTSziBCSYCzWJuovQ5uBb_gY9RsLcXabdXcaAnIDFQ8ctAKNfKjSdjWP720IRMgNquddQw2Ol4VIkUu0KHRhR4dUeciVoU9B71MqEB8n7V5M3g64vIxi_ONNqHz6TKfm9eYLaRVhvQn-JuoMy85Ahy0RafBRotfrZFB1ISwSSWUgbmSvwZtVSoPAh1srLlDTOx5j1ST0fD8LhlxoSl6XQGmWfxLJwjfn_OyaXqxCvgXUl95Rv4LLmjLgHPRfpP0UOqitCMBuSVFmoONuPyECPIMq0G5sAuRNVOt-dKtlVvgTtpIEaY4zX2opz38z36kfMNxGggctigaDq_Oo9TxHYyDgcP8iNIR9rvYoajjMWhXecP9qbInllsPKdKhUpXo_-hzcj2oz4RulJ6OvhPJlHXSGvXSluxF0xBdinZWZkEd6HKlKfvGWq_IxMKf_nVANxRIOpBuK--lkChKMIsTYzyodFJpPdlQWz-tF46-r9jdT72qwS7jiTZ7sncalr8k92nwTAvmwN1hhLF4juFYfyTNWF7H8RU-uWdsVtAMtZiS4y2bBqezPL9LRMQe2uR1blTYL3kdaLoZSYORLcakBTpsakpxCgg3zWO2m7T-1AubRTvI3SRfTxFhgUAjsLWHjbqzsu1uCm_Bq8o7e9taKlHyQRxOvY3GOuXWQz1uEp9KUdo667FHEffU2uRRRxTiq6Ffrk8lo65sChU42TZwyW6SUniZ6spuXVODuqs3u76sS4k_1Ds8dqmk8iLlksxKR4_XBWIP-YCz1-pRf8Ijk3Fwl24QK-IswjrXTFn-W7HP1VpYByG9Wt0zQKRlozDKVTuR4ZrjZfegMdpyAlEZSkSlwlTCW_aMHiuD1DIW9WVyYp3y0?></g></svg>