<?xml version="1.0" encoding="UTF-8"?>
<!DOCTYPE svg PUBLIC "-//W3C//DTD SVG 1.1//EN" "http://www.w3.org/Graphics/SVG/1.1/DTD/svg11.dtd">
<svg xmlns="http://www.w3.org/2000/svg" xmlns:xlink="http://www.w3.org/1999/xlink" version="1.1" width="1850px" height="1132px" viewBox="-0.5 -0.5 1850 1132"><defs/><g><g data-cell-id="0"><g data-cell-id="1"><g data-cell-id="2"><g><rect x="48" y="0" width="1800" height="80" fill="#1f2937" stroke="#111827" pointer-events="all"/></g><g><g transform="translate(-0.5 -0.5)"><switch><foreignObject pointer-events="none" width="100%" height="100%" requiredFeatures="http://www.w3.org/TR/SVG11/feature#Extensibility" style="overflow: visible; text-align: left;"><div xmlns="http://www.w3.org/1999/xhtml" style="display: flex; align-items: unsafe center; justify-content: unsafe center; width: 1782px; height: 1px; padding-top: 40px; margin-left: 57px;"><div data-drawio-colors="color: #FFFFFF; " style="box-sizing: border-box; font-size: 0px; text-align: center;"><div style="display: inline-block; font-size: 26px; font-family: Helvetica; color: rgb(255, 255, 255); line-height: 1.2; pointer-events: all; font-weight: bold; white-space: normal; overflow-wrap: normal;">auto-pass KeePassXC Automation Architecture</div></div></div></foreignObject><text x="948" y="48" fill="#FFFFFF" font-family="&quot;Helvetica&quot;" font-size="26px" text-anchor="middle" font-weight="bold">auto-pass KeePassXC Automation Architecture</text></switch></g></g></g><g data-cell-id="10"><g><rect x="68" y="150" width="240" height="80" rx="12" ry="12" fill="#fce7f3" stroke="#db2777" pointer-events="all"/></g><g><g transform="translate(-0.5 -0.5)"><switch><foreignObject pointer-events="none" width="100%" height="100%" requiredFeatures="http://www.w3.org/TR/SVG11/feature#Extensibility" style="overflow: visible; text-align: left;"><div xmlns="http://www.w3.org/1999/xhtml" style="display: flex; align-items: unsafe center; justify-content: unsafe center; width: 226px; height: 1px; padding-top: 190px; margin-left: 75px;"><div data-drawio-colors="color: #111827; " style="box-sizing: border-box; font-size: 0px; text-align: center;"><div style="display: inline-block; font-size: 18px; font-family: Helvetica; color: rgb(17, 24, 39); line-height: 1.2; pointer-events: all; white-space: normal; overflow-wrap: normal;">Caller / Script Consumer</div></div></div></foreignObject><text x="188" y="195" fill="#111827" font-family="&quot;Helvetica&quot;" font-size="18px" text-anchor="middle">Caller / Script Consumer</text></switch></g></g></g><g data-cell-id="20"><g><rect x="358" y="130" width="280" height="120" rx="18" ry="18" fill="#dbeafe" stroke="#2563eb" pointer-events="all"/></g><g><g transform="translate(-0.5 -0.5)"><switch><foreignObject pointer-events="none" width="100%" height="100%" requiredFeatures="http://www.w3.org/TR/SVG11/feature#Extensibility" style="overflow: visible; text-align: left;"><div xmlns="http://www.w3.org/1999/xhtml" style="display: flex; align-items: unsafe center; justify-content: unsafe center; width: 266px; height: 1px; padding-top: 190px; margin-left: 365px;"><div data-drawio-colors="color: #111827; " style="box-sizing: border-box; font-size: 0px; text-align: center;"><div style="display: inline-block; font-size: 18px; font-family: Helvetica; color: rgb(17, 24, 39); line-height: 1.2; pointer-events: all; white-space: normal; overflow-wrap: normal;">auto-pass<br />python -m auto_pass<br />__main__.py -&gt; cli.main</div></div></div></foreignObject><text x="498" y="195" fill="#111827" font-family="&quot;Helvetica&quot;" font-size="18px" text-anchor="middle">auto-pass...</text></switch></g></g></g><g data-cell-id="30"><g><rect x="688" y="130" width="270" height="100" rx="15" ry="15" fill="#e0f2fe" stroke="#0284c7" pointer-events="all"/></g><g><g transform="translate(-0.5 -0.5)"><switch><foreignObject pointer-events="none" width="100%" height="100%" requiredFeatures="http://www.w3.org/TR/SVG11/feature#Extensibility" style="overflow: visible; text-align: left;"><div xmlns="http://www.w3.org/1999/xhtml" style="display: flex; align-items: unsafe center; justify-content: unsafe center; width: 256px; height: 1px; padding-top: 180px; margin-left: 695px;"><div data-drawio-colors="color: #111827; " style="box-sizing: border-box; font-size: 0px; text-align: center;"><div style="display: inline-block; font-size: 18px; font-family: Helvetica; color: rgb(17, 24, 39); line-height: 1.2; pointer-events: all; white-space: normal; overflow-wrap: normal;">src/auto_pass/__init__.py<br />library exports</div></div></div></foreignObject><text x="823" y="185" fill="#111827" font-family="&quot;Helvetica&quot;" font-size="18px" text-anchor="middle">src/auto_pass/__init__.py...</text></switch></g></g></g><g data-cell-id="40"><g><rect x="88" y="340" width="320" height="120" rx="18" ry="18" fill="#e2e8f0" stroke="#64748b" pointer-events="all"/></g><g><g transform="translate(-0.5 -0.5)"><switch><foreignObject pointer-events="none" width="100%" height="100%" requiredFeatures="http://www.w3.org/TR/SVG11/feature#Extensibility" style="overflow: visible; text-align: left;"><div xmlns="http://www.w3.org/1999/xhtml" style="display: flex; align-items: unsafe center; justify-content: unsafe center; width: 306px; height: 1px; padding-top: 400px; margin-left: 95px;"><div data-drawio-colors="color: #111827; " style="box-sizing: border-box; font-size: 0px; text-align: center;"><div style="display: inline-block; font-size: 18px; font-family: Helvetica; color: rgb(17, 24, 39); line-height: 1.2; pointer-events: all; white-space: normal; overflow-wrap: normal;">config/auto-pass.env.local<br />shell env overrides<br />config/auto-pass.env.example</div></div></div></foreignObject><text x="248" y="405" fill="#111827" font-family="&quot;Helvetica&quot;" font-size="18px" text-anchor="middle">config/auto-pass.env.local...</text></switch></g></g></g><g data-cell-id="50"><g><rect x="458" y="340" width="300" height="120" rx="18" ry="18" fill="#e0f2fe" stroke="#0284c7" pointer-events="all"/></g><g><g transform="translate(-0.5 -0.5)"><switch><foreignObject pointer-events="none" width="100%" height="100%" requiredFeatures="http://www.w3.org/TR/SVG11/feature#Extensibility" style="overflow: visible; text-align: left;"><div xmlns="http://www.w3.org/1999/xhtml" style="display: flex; align-items: unsafe center; justify-content: unsafe center; width: 286px; height: 1px; padding-top: 400px; margin-left: 465px;"><div data-drawio-colors="color: #111827; " style="box-sizing: border-box; font-size: 0px; text-align: center;"><div style="display: inline-block; font-size: 18px; font-family: Helvetica; color: rgb(17, 24, 39); line-height: 1.2; pointer-events: all; white-space: normal; overflow-wrap: normal;">envfile.py<br />parse env text<br />apply AUTO_PASS_PROFILE_*</div></div></div></foreignObject><text x="608" y="405" fill="#111827" font-family="&quot;Helvetica&quot;" font-size="18px" text-anchor="middle">envfile.py...</text></switch></g></g></g><g data-cell-id="60"><g><rect x="808" y="320" width="360" height="140" rx="21" ry="21" fill="#fce7f3" stroke="#db2777" pointer-events="all"/></g><g><g transform="translate(-0.5 -0.5)"><switch><foreignObject pointer-events="none" width="100%" height="100%" requiredFeatures="http://www.w3.org/TR/SVG11/feature#Extensibility" style="overflow: visible; text-align: left;"><div xmlns="http://www.w3.org/1999/xhtml" style="display: flex; align-items: unsafe center; justify-content: unsafe center; width: 346px; height: 1px; padding-top: 390px; margin-left: 815px;"><div data-drawio-colors="color: #111827; " style="box-sizing: border-box; font-size: 0px; text-align: center;"><div style="display: inline-block; font-size: 18px; font-family: Helvetica; color: rgb(17, 24, 39); line-height: 1.2; pointer-events: all; white-space: normal; overflow-wrap: normal;">keepassxc.py context<br />resolve DB path, password, key file<br />support AUTO_PASS_* and PF_*</div></div></div></foreignObject><text x="988" y="395" fill="#111827" font-family="&quot;Helvetica&quot;" font-size="18px" text-anchor="middle">keepassxc.py context...</text></switch></g></g></g><g data-cell-id="70"><g><rect x="1218" y="340" width="280" height="100" rx="15" ry="15" fill="#fef3c7" stroke="#d97706" pointer-events="all"/></g><g><g transform="translate(-0.5 -0.5)"><switch><foreignObject pointer-events="none" width="100%" height="100%" requiredFeatures="http://www.w3.org/TR/SVG11/feature#Extensibility" style="overflow: visible; text-align: left;"><div xmlns="http://www.w3.org/1999/xhtml" style="display: flex; align-items: unsafe center; justify-content: unsafe center; width: 266px; height: 1px; padding-top: 390px; margin-left: 1225px;"><div data-drawio-colors="color: #111827; " style="box-sizing: border-box; font-size: 0px; text-align: center;"><div style="display: inline-block; font-size: 18px; font-family: Helvetica; color: rgb(17, 24, 39); line-height: 1.2; pointer-events: all; white-space: normal; overflow-wrap: normal;">~/.cache/auto-pass/<br />keepassxc-db-password-*.json</div></div></div></foreignObject><text x="1358" y="395" fill="#111827" font-family="&quot;Helvetica&quot;" font-size="18px" text-anchor="middle">~/.cache/auto-pass/...</text></switch></g></g></g><g data-cell-id="80"><g><rect x="308" y="590" width="350" height="120" rx="18" ry="18" fill="#dcfce7" stroke="#16a34a" pointer-events="all"/></g><g><g transform="translate(-0.5 -0.5)"><switch><foreignObject pointer-events="none" width="100%" height="100%" requiredFeatures="http://www.w3.org/TR/SVG11/feature#Extensibility" style="overflow: visible; text-align: left;"><div xmlns="http://www.w3.org/1999/xhtml" style="display: flex; align-items: unsafe center; justify-content: unsafe center; width: 336px; height: 1px; padding-top: 650px; margin-left: 315px;"><div data-drawio-colors="color: #111827; " style="box-sizing: border-box; font-size: 0px; text-align: center;"><div style="display: inline-block; font-size: 18px; font-family: Helvetica; color: rgb(17, 24, 39); line-height: 1.2; pointer-events: all; white-space: normal; overflow-wrap: normal;">resolve_keepassxc_entry<br />resolve_keepassxc_entry_all_fields<br />attribute alias normalization</div></div></div></foreignObject><text x="483" y="655" fill="#111827" font-family="&quot;Helvetica&quot;" font-size="18px" text-anchor="middle">resolve_keepassxc_entry...</text></switch></g></g></g><g data-cell-id="90"><g><rect x="708" y="610" width="220" height="80" rx="12" ry="12" fill="#bbf7d0" stroke="#16a34a" pointer-events="all"/></g><g><g transform="translate(-0.5 -0.5)"><switch><foreignObject pointer-events="none" width="100%" height="100%" requiredFeatures="http://www.w3.org/TR/SVG11/feature#Extensibility" style="overflow: visible; text-align: left;"><div xmlns="http://www.w3.org/1999/xhtml" style="display: flex; align-items: unsafe center; justify-content: unsafe center; width: 206px; height: 1px; padding-top: 650px; margin-left: 715px;"><div data-drawio-colors="color: #111827; " style="box-sizing: border-box; font-size: 0px; text-align: center;"><div style="display: inline-block; font-size: 18px; font-family: Helvetica; color: rgb(17, 24, 39); line-height: 1.2; pointer-events: all; white-space: normal; overflow-wrap: normal;">keepassxc-cli show</div></div></div></foreignObject><text x="818" y="655" fill="#111827" font-family="&quot;Helvetica&quot;" font-size="18px" text-anchor="middle">keepassxc-cli show</text></switch></g></g></g><g data-cell-id="100"><g><rect x="978" y="600" width="290" height="100" rx="15" ry="15" fill="#dcfce7" stroke="#16a34a" pointer-events="all"/></g><g><g transform="translate(-0.5 -0.5)"><switch><foreignObject pointer-events="none" width="100%" height="100%" requiredFeatures="http://www.w3.org/TR/SVG11/feature#Extensibility" style="overflow: visible; text-align: left;"><div xmlns="http://www.w3.org/1999/xhtml" style="display: flex; align-items: unsafe center; justify-content: unsafe center; width: 276px; height: 1px; padding-top: 650px; margin-left: 985px;"><div data-drawio-colors="color: #111827; " style="box-sizing: border-box; font-size: 0px; text-align: center;"><div style="display: inline-block; font-size: 18px; font-family: Helvetica; color: rgb(17, 24, 39); line-height: 1.2; pointer-events: all; white-space: normal; overflow-wrap: normal;">stdout / JSON<br />requested fields or all fields</div></div></div></foreignObject><text x="1123" y="655" fill="#111827" font-family="&quot;Helvetica&quot;" font-size="18px" text-anchor="middle">stdout / JSON...</text></switch></g></g></g><g data-cell-id="110"><g><rect x="308" y="820" width="300" height="100" rx="15" ry="15" fill="#fed7aa" stroke="#ea580c" pointer-events="all"/></g><g><g transform="translate(-0.5 -0.5)"><switch><foreignObject pointer-events="none" width="100%" height="100%" requiredFeatures="http://www.w3.org/TR/SVG11/feature#Extensibility" style="overflow: visible; text-align: left;"><div xmlns="http://www.w3.org/1999/xhtml" style="display: flex; align-items: unsafe center; justify-content: unsafe center; width: 286px; height: 1px; padding-top: 870px; margin-left: 315px;"><div data-drawio-colors="color: #111827; " style="box-sizing: border-box; font-size: 0px; text-align: center;"><div style="display: inline-block; font-size: 18px; font-family: Helvetica; color: rgb(17, 24, 39); line-height: 1.2; pointer-events: all; white-space: normal; overflow-wrap: normal;">ensure_group<br />upsert_keepassxc_entry</div></div></div></foreignObject><text x="458" y="875" fill="#111827" font-family="&quot;Helvetica&quot;" font-size="18px" text-anchor="middle">ensure_group...</text></switch></g></g></g><g data-cell-id="120"><g><rect x="658" y="760" width="220" height="80" rx="12" ry="12" fill="#fdba74" stroke="#ea580c" pointer-events="all"/></g><g><g transform="translate(-0.5 -0.5)"><switch><foreignObject pointer-events="none" width="100%" height="100%" requiredFeatures="http://www.w3.org/TR/SVG11/feature#Extensibility" style="overflow: visible; text-align: left;"><div xmlns="http://www.w3.org/1999/xhtml" style="display: flex; align-items: unsafe center; justify-content: unsafe center; width: 206px; height: 1px; padding-top: 800px; margin-left: 665px;"><div data-drawio-colors="color: #111827; " style="box-sizing: border-box; font-size: 0px; text-align: center;"><div style="display: inline-block; font-size: 18px; font-family: Helvetica; color: rgb(17, 24, 39); line-height: 1.2; pointer-events: all; white-space: normal; overflow-wrap: normal;">keepassxc-cli edit</div></div></div></foreignObject><text x="768" y="805" fill="#111827" font-family="&quot;Helvetica&quot;" font-size="18px" text-anchor="middle">keepassxc-cli edit</text></switch></g></g></g><g data-cell-id="130"><g><rect x="658" y="870" width="220" height="80" rx="12" ry="12" fill="#fdba74" stroke="#ea580c" pointer-events="all"/></g><g><g transform="translate(-0.5 -0.5)"><switch><foreignObject pointer-events="none" width="100%" height="100%" requiredFeatures="http://www.w3.org/TR/SVG11/feature#Extensibility" style="overflow: visible; text-align: left;"><div xmlns="http://www.w3.org/1999/xhtml" style="display: flex; align-items: unsafe center; justify-content: unsafe center; width: 206px; height: 1px; padding-top: 910px; margin-left: 665px;"><div data-drawio-colors="color: #111827; " style="box-sizing: border-box; font-size: 0px; text-align: center;"><div style="display: inline-block; font-size: 18px; font-family: Helvetica; color: rgb(17, 24, 39); line-height: 1.2; pointer-events: all; white-space: normal; overflow-wrap: normal;">keepassxc-cli mkdir</div></div></div></foreignObject><text x="768" y="915" fill="#111827" font-family="&quot;Helvetica&quot;" font-size="18px" text-anchor="middle">keepassxc-cli mkdir</text></switch></g></g></g><g data-cell-id="140"><g><rect x="938" y="815" width="220" height="80" rx="12" ry="12" fill="#fdba74" stroke="#ea580c" pointer-events="all"/></g><g><g transform="translate(-0.5 -0.5)"><switch><foreignObject pointer-events="none" width="100%" height="100%" requiredFeatures="http://www.w3.org/TR/SVG11/feature#Extensibility" style="overflow: visible; text-align: left;"><div xmlns="http://www.w3.org/1999/xhtml" style="display: flex; align-items: unsafe center; justify-content: unsafe center; width: 206px; height: 1px; padding-top: 855px; margin-left: 945px;"><div data-drawio-colors="color: #111827; " style="box-sizing: border-box; font-size: 0px; text-align: center;"><div style="display: inline-block; font-size: 18px; font-family: Helvetica; color: rgb(17, 24, 39); line-height: 1.2; pointer-events: all; white-space: normal; overflow-wrap: normal;">keepassxc-cli add</div></div></div></foreignObject><text x="1048" y="860" fill="#111827" font-family="&quot;Helvetica&quot;" font-size="18px" text-anchor="middle">keepassxc-cli add</text></switch></g></g></g><g data-cell-id="150"><g><rect x="1218" y="805" width="300" height="100" rx="15" ry="15" fill="#ffedd5" stroke="#f97316" pointer-events="all"/></g><g><g transform="translate(-0.5 -0.5)"><switch><foreignObject pointer-events="none" width="100%" height="100%" requiredFeatures="http://www.w3.org/TR/SVG11/feature#Extensibility" style="overflow: visible; text-align: left;"><div xmlns="http://www.w3.org/1999/xhtml" style="display: flex; align-items: unsafe center; justify-content: unsafe center; width: 286px; height: 1px; padding-top: 855px; margin-left: 1225px;"><div data-drawio-colors="color: #111827; " style="box-sizing: border-box; font-size: 0px; text-align: center;"><div style="display: inline-block; font-size: 18px; font-family: Helvetica; color: rgb(17, 24, 39); line-height: 1.2; pointer-events: all; white-space: normal; overflow-wrap: normal;">stdout modes<br />edit / add / created / exists</div></div></div></foreignObject><text x="1368" y="860" fill="#111827" font-family="&quot;Helvetica&quot;" font-size="18px" text-anchor="middle">stdout modes...</text></switch></g></g></g><g data-cell-id="160"><g><rect x="68" y="1010" width="320" height="120" rx="18" ry="18" fill="#fbcfe8" stroke="#ec4899" pointer-events="all"/></g><g><g transform="translate(-0.5 -0.5)"><switch><foreignObject pointer-events="none" width="100%" height="100%" requiredFeatures="http://www.w3.org/TR/SVG11/feature#Extensibility" style="overflow: visible; text-align: left;"><div xmlns="http://www.w3.org/1999/xhtml" style="display: flex; align-items: unsafe center; justify-content: unsafe center; width: 306px; height: 1px; padding-top: 1070px; margin-left: 75px;"><div data-drawio-colors="color: #111827; " style="box-sizing: border-box; font-size: 0px; text-align: center;"><div style="display: inline-block; font-size: 18px; font-family: Helvetica; color: rgb(17, 24, 39); line-height: 1.2; pointer-events: all; white-space: normal; overflow-wrap: normal;">tests/test_envfile.py<br />tests/test_keepassxc.py<br />.github/workflows/ci.yml</div></div></div></foreignObject><text x="228" y="1075" fill="#111827" font-family="&quot;Helvetica&quot;" font-size="18px" text-anchor="middle">tests/test_envfile.py...</text></switch></g></g></g><g data-cell-id="170"><g><rect x="448" y="1020" width="330" height="100" rx="15" ry="15" fill="#e2e8f0" stroke="#64748b" pointer-events="all"/></g><g><g transform="translate(-0.5 -0.5)"><switch><foreignObject pointer-events="none" width="100%" height="100%" requiredFeatures="http://www.w3.org/TR/SVG11/feature#Extensibility" style="overflow: visible; text-align: left;"><div xmlns="http://www.w3.org/1999/xhtml" style="display: flex; align-items: unsafe center; justify-content: unsafe center; width: 316px; height: 1px; padding-top: 1070px; margin-left: 455px;"><div data-drawio-colors="color: #111827; " style="box-sizing: border-box; font-size: 0px; text-align: center;"><div style="display: inline-block; font-size: 18px; font-family: Helvetica; color: rgb(17, 24, 39); line-height: 1.2; pointer-events: all; white-space: normal; overflow-wrap: normal;">README.md<br />docs/contributor-architecture-blueprint.md</div></div></div></foreignObject><text x="613" y="1075" fill="#111827" font-family="&quot;Helvetica&quot;" font-size="18px" text-anchor="middle">README.md...</text></switch></g></g></g><g data-cell-id="500"><g><path d="M 308 190 L 346.76 190" fill="none" stroke="#1f2937" stroke-width="2" stroke-miterlimit="10" pointer-events="stroke"/><path d="M 355.76 190 L 343.76 196 L 346.76 190 L 343.76 184 Z" fill="#1f2937" stroke="#1f2937" stroke-width="2" stroke-miterlimit="10" pointer-events="all"/></g></g><g data-cell-id="501"><g><path d="M 398 250 L 398 274 L 608 274 L 608 328.76" fill="none" stroke="#1f2937" stroke-width="2" stroke-miterlimit="10" pointer-events="stroke"/><path d="M 608 337.76 L 602 325.76 L 608 328.76 L 614 325.76 Z" fill="#1f2937" stroke="#1f2937" stroke-width="2" stroke-miterlimit="10" pointer-events="all"/></g></g><g data-cell-id="502"><g><path d="M 408 400 L 446.76 400" fill="none" stroke="#1f2937" stroke-width="2" stroke-miterlimit="10" pointer-events="stroke"/><path d="M 455.76 400 L 443.76 406 L 446.76 400 L 443.76 394 Z" fill="#1f2937" stroke="#1f2937" stroke-width="2" stroke-miterlimit="10" pointer-events="all"/></g></g><g data-cell-id="503"><g><path d="M 758 400 L 784 400 L 784 390 L 796.76 390" fill="none" stroke="#1f2937" stroke-width="2" stroke-miterlimit="10" pointer-events="stroke"/><path d="M 805.76 390 L 793.76 396 L 796.76 390 L 793.76 384 Z" fill="#1f2937" stroke="#1f2937" stroke-width="2" stroke-miterlimit="10" pointer-events="all"/></g></g><g data-cell-id="504"><g><path d="M 1218 390 L 1179.24 390" fill="none" stroke="#d97706" stroke-width="2" stroke-miterlimit="10" pointer-events="stroke"/><path d="M 1170.24 390 L 1182.24 384 L 1179.24 390 L 1182.24 396 Z" fill="#d97706" stroke="#d97706" stroke-width="2" stroke-miterlimit="10" pointer-events="all"/></g><g><g fill="rgb(0, 0, 0)" font-family="&quot;Helvetica&quot;" text-anchor="middle" font-size="14px"><rect fill="rgb(255, 255, 255)" stroke="none" x="1146" y="382" width="96" height="18" stroke-width="0"/><text x="1192.5" y="395.5">seed password</text></g></g></g><g data-cell-id="505"><g><path d="M 498 250 L 498 274 L 432 274 L 432 394 C 439.8 394 439.8 406 432 406 L 432 406 L 432 566 L 348 566 L 348 578.76" fill="none" stroke="#16a34a" stroke-width="2" stroke-miterlimit="10" pointer-events="stroke"/><path d="M 348 587.76 L 342 575.76 L 348 578.76 L 354 575.76 Z" fill="#16a34a" stroke="#16a34a" stroke-width="2" stroke-miterlimit="10" pointer-events="all"/></g><g><g fill="rgb(0, 0, 0)" font-family="&quot;Helvetica&quot;" text-anchor="middle" font-size="14px"><rect fill="rgb(255, 255, 255)" stroke="none" x="397" y="421" width="71" height="18" stroke-width="0"/><text x="431.5" y="434.5">get / get-all</text></g></g></g><g data-cell-id="506"><g><path d="M 808 390 L 784 390 L 784 520 L 682 520 L 682 650 L 669.24 650" fill="none" stroke="#16a34a" stroke-width="2" stroke-miterlimit="10" pointer-events="stroke"/><path d="M 660.24 650 L 672.24 644 L 669.24 650 L 672.24 656 Z" fill="#16a34a" stroke="#16a34a" stroke-width="2" stroke-miterlimit="10" pointer-events="all"/></g></g><g data-cell-id="507"><g><path d="M 658 650 L 682 650 L 682 641 L 684 641 L 684 650 L 696.76 650" fill="none" stroke="#16a34a" stroke-width="2" stroke-miterlimit="10" pointer-events="stroke"/><path d="M 705.76 650 L 693.76 656 L 696.76 650 L 693.76 644 Z" fill="#16a34a" stroke="#16a34a" stroke-width="2" stroke-miterlimit="10" pointer-events="all"/></g></g><g data-cell-id="508"><g><path d="M 928 650 L 952 650 L 952 659 L 954 659 L 954 650 L 966.76 650" fill="none" stroke="#16a34a" stroke-width="2" stroke-miterlimit="10" pointer-events="stroke"/><path d="M 975.76 650 L 963.76 656 L 966.76 650 L 963.76 644 Z" fill="#16a34a" stroke="#16a34a" stroke-width="2" stroke-miterlimit="10" pointer-events="all"/></g></g><g data-cell-id="509"><g><path d="M 598 250 L 598 274 L 56 274 L 56 796 L 348 796 L 348 808.76" fill="none" stroke="#ea580c" stroke-width="2" stroke-miterlimit="10" pointer-events="stroke"/><path d="M 348 817.76 L 342 805.76 L 348 808.76 L 354 805.76 Z" fill="#ea580c" stroke="#ea580c" stroke-width="2" stroke-miterlimit="10" pointer-events="all"/></g><g><g fill="rgb(0, 0, 0)" font-family="&quot;Helvetica&quot;" text-anchor="middle" font-size="14px"><rect fill="rgb(255, 255, 255)" stroke="none" x="23" y="402" width="67" height="18" stroke-width="0"/><text x="55.5" y="415.5">set / mkdir</text></g></g></g><g data-cell-id="510"><g><path d="M 988 460 L 988 484 L 790 484 C 790 476.2 778 476.2 778 484 L 778 484 L 438 484 C 438 476.2 426 476.2 426 484 L 426 484 L 56 484 L 56 796 L 458 796 L 458 808.76" fill="none" stroke="#ea580c" stroke-width="2" stroke-miterlimit="10" pointer-events="stroke"/><path d="M 458 817.76 L 452 805.76 L 458 808.76 L 464 805.76 Z" fill="#ea580c" stroke="#ea580c" stroke-width="2" stroke-miterlimit="10" pointer-events="all"/></g></g><g data-cell-id="511"><g><path d="M 608 860 L 632 860 L 632 800 L 646.76 800" fill="none" stroke="#ea580c" stroke-width="2" stroke-miterlimit="10" pointer-events="stroke"/><path d="M 655.76 800 L 643.76 806 L 646.76 800 L 643.76 794 Z" fill="#ea580c" stroke="#ea580c" stroke-width="2" stroke-miterlimit="10" pointer-events="all"/></g><g><g fill="rgb(0, 0, 0)" font-family="&quot;Helvetica&quot;" text-anchor="middle" font-size="14px"><rect fill="rgb(255, 255, 255)" stroke="none" x="622" y="821" width="21" height="18" stroke-width="0"/><text x="631.5" y="834.5">set</text></g></g></g><g data-cell-id="512"><g><path d="M 878 800 L 902 800 L 902 764 L 914 764 L 914 855 L 926.76 855" fill="none" stroke="#ea580c" stroke-width="2" stroke-miterlimit="10" pointer-events="stroke"/><path d="M 935.76 855 L 923.76 861 L 926.76 855 L 923.76 849 Z" fill="#ea580c" stroke="#ea580c" stroke-width="2" stroke-miterlimit="10" pointer-events="all"/></g><g><g fill="rgb(0, 0, 0)" font-family="&quot;Helvetica&quot;" text-anchor="middle" font-size="14px"><rect fill="rgb(255, 255, 255)" stroke="none" x="873" y="778" width="84" height="18" stroke-width="0"/><text x="913.5" y="791.5">entry missing</text></g></g></g><g data-cell-id="513"><g><path d="M 608 880 L 632 880 L 632 910 L 646.76 910" fill="none" stroke="#ea580c" stroke-width="2" stroke-miterlimit="10" pointer-events="stroke"/><path d="M 655.76 910 L 643.76 916 L 646.76 910 L 643.76 904 Z" fill="#ea580c" stroke="#ea580c" stroke-width="2" stroke-miterlimit="10" pointer-events="all"/></g><g><g fill="rgb(0, 0, 0)" font-family="&quot;Helvetica&quot;" text-anchor="middle" font-size="14px"><rect fill="rgb(255, 255, 255)" stroke="none" x="569" y="888" width="127" height="18" stroke-width="0"/><text x="631.5" y="901.5">mkdir or parent path</text></g></g></g><g data-cell-id="514"><g><path d="M 878 910 L 902 910 L 902 892 L 914 892 L 914 855 L 926.76 855" fill="none" stroke="#ea580c" stroke-width="2" stroke-miterlimit="10" pointer-events="stroke"/><path d="M 935.76 855 L 923.76 861 L 926.76 855 L 923.76 849 Z" fill="#ea580c" stroke="#ea580c" stroke-width="2" stroke-miterlimit="10" pointer-events="all"/></g></g><g data-cell-id="515"><g><path d="M 878 800 L 902 800 L 902 783 L 908 783 C 908 775.2 920 775.2 920 783 L 920 783 L 1194 783 L 1194 845 L 1206.76 845" fill="none" stroke="#ea580c" stroke-width="2" stroke-miterlimit="10" pointer-events="stroke"/><path d="M 1215.76 845 L 1203.76 851 L 1206.76 845 L 1203.76 839 Z" fill="#ea580c" stroke="#ea580c" stroke-width="2" stroke-miterlimit="10" pointer-events="all"/></g><g><g fill="rgb(0, 0, 0)" font-family="&quot;Helvetica&quot;" text-anchor="middle" font-size="14px"><rect fill="rgb(255, 255, 255)" stroke="none" x="1035" y="775" width="73" height="18" stroke-width="0"/><text x="1070.5" y="788.5">entry exists</text></g></g></g><g data-cell-id="516"><g><path d="M 878 910 L 902 910 L 902 928 L 1194 928 L 1194 855 L 1206.76 855" fill="none" stroke="#ea580c" stroke-width="2" stroke-miterlimit="10" pointer-events="stroke"/><path d="M 1215.76 855 L 1203.76 861 L 1206.76 855 L 1203.76 849 Z" fill="#ea580c" stroke="#ea580c" stroke-width="2" stroke-miterlimit="10" pointer-events="all"/></g></g><g data-cell-id="517"><g><path d="M 1158 855 L 1182 855 L 1182 901 L 1194 901 L 1194 865 L 1206.76 865" fill="none" stroke="#ea580c" stroke-width="2" stroke-miterlimit="10" pointer-events="stroke"/><path d="M 1215.76 865 L 1203.76 871 L 1206.76 865 L 1203.76 859 Z" fill="#ea580c" stroke="#ea580c" stroke-width="2" stroke-miterlimit="10" pointer-events="all"/></g></g><g data-cell-id="518"><g><path d="M 108 1010 L 108 986 L 56 986 L 56 484 L 426 484 C 426 476.2 438 476.2 438 484 L 438 484 L 608 484 L 608 471.24" fill="none" stroke="#ec4899" stroke-width="2" stroke-miterlimit="10" stroke-dasharray="6 6" pointer-events="stroke"/><path d="M 608 462.24 L 614 474.24 L 608 471.24 L 602 474.24 Z" fill="#ec4899" stroke="#ec4899" stroke-width="2" stroke-miterlimit="10" pointer-events="all"/></g></g><g data-cell-id="519"><g><path d="M 228 1010 L 228 802 C 235.8 802 235.8 790 228 790 L 228 790 L 228 734 L 483 734 L 483 721.24" fill="none" stroke="#ec4899" stroke-width="2" stroke-miterlimit="10" stroke-dasharray="6 6" pointer-events="stroke"/><path d="M 483 712.24 L 489 724.24 L 483 721.24 L 477 724.24 Z" fill="#ec4899" stroke="#ec4899" stroke-width="2" stroke-miterlimit="10" pointer-events="all"/></g></g><g data-cell-id="520"><g><path d="M 348 1010 L 348 944 L 458 944 L 458 931.24" fill="none" stroke="#ec4899" stroke-width="2" stroke-miterlimit="10" stroke-dasharray="6 6" pointer-events="stroke"/><path d="M 458 922.24 L 464 934.24 L 458 931.24 L 452 934.24 Z" fill="#ec4899" stroke="#ec4899" stroke-width="2" stroke-miterlimit="10" pointer-events="all"/></g></g><g data-cell-id="521"><g><path d="M 488 1020 L 488 996 L 354 996 C 354 988.2 342 988.2 342 996 L 342 996 L 234 996 C 234 988.2 222 988.2 222 996 L 222 996 L 114 996 C 114 988.2 102 988.2 102 996 L 102 996 L 36 996 L 36 274 L 498 274 L 498 261.24" fill="none" stroke="#64748b" stroke-width="2" stroke-miterlimit="10" stroke-dasharray="6 6" pointer-events="stroke"/><path d="M 498 252.24 L 504 264.24 L 498 261.24 L 492 264.24 Z" fill="#64748b" stroke="#64748b" stroke-width="2" stroke-miterlimit="10" pointer-events="all"/></g><g><g fill="rgb(0, 0, 0)" font-family="&quot;Helvetica&quot;" text-anchor="middle" font-size="14px"><rect fill="rgb(255, 255, 255)" stroke="none" x="2" y="622" width="70" height="18" stroke-width="0"/><text x="35.5" y="635.5">documents</text></g></g></g><g data-cell-id="522"><g><path d="M 738 1020 L 738 996 L 1550 996 L 1550 484 L 988 484 L 988 471.24" fill="none" stroke="#64748b" stroke-width="2" stroke-miterlimit="10" stroke-dasharray="6 6" pointer-events="stroke"/><path d="M 988 462.24 L 994 474.24 L 988 471.24 L 982 474.24 Z" fill="#64748b" stroke="#64748b" stroke-width="2" stroke-miterlimit="10" pointer-events="all"/></g></g><g data-cell-id="523"><g><path d="M 728 230 L 728 254 L 782 254 L 782 394 C 789.8 394 789.8 406 782 406 L 782 406 L 782 478 C 789.8 478 789.8 490 782 490 L 782 490 L 782 514 C 789.8 514 789.8 526 782 526 L 782 526 L 782 566 L 688 566 C 688 558.2 676 558.2 676 566 L 676 566 L 618 566 L 618 578.76" fill="none" stroke="#1f2937" stroke-width="2" stroke-miterlimit="10" stroke-dasharray="6 6" pointer-events="stroke"/><path d="M 618 587.76 L 612 575.76 L 618 578.76 L 624 575.76 Z" fill="#1f2937" stroke="#1f2937" stroke-width="2" stroke-miterlimit="10" pointer-events="all"/></g></g><g data-cell-id="524"><g><path d="M 918 230 L 918 254 L 604 254 C 604 246.2 592 246.2 592 254 L 592 254 L 498 254 L 498 254 L 404 254 C 404 246.2 392 246.2 392 254 L 392 254 L 36 254 L 36 796 L 50 796 C 50 788.2 62 788.2 62 796 L 62 796 L 222 796 C 222 788.2 234 788.2 234 796 L 234 796 L 568 796 L 568 808.76" fill="none" stroke="#1f2937" stroke-width="2" stroke-miterlimit="10" stroke-dasharray="6 6" pointer-events="stroke"/><path d="M 568 817.76 L 562 805.76 L 568 808.76 L 574 805.76 Z" fill="#1f2937" stroke="#1f2937" stroke-width="2" stroke-miterlimit="10" pointer-events="all"/></g></g></g></g></g><switch><g requiredFeatures="http://www.w3.org/TR/SVG11/feature#Extensibility"/><a transform="translate(0,-5)" xlink:href="https://www.drawio.com/doc/faq/svg-export-text-problems" target="_blank"><text text-anchor="middle" font-size="10px" x="50%" y="100%">Text is not SVG - cannot display</text></a></switch></svg>