<?plantuml 1.2026.2?><svg xmlns="http://www.w3.org/2000/svg" xmlns:xlink="http://www.w3.org/1999/xlink" contentStyleType="text/css" data-diagram-type="DESCRIPTION" height="1285px" preserveAspectRatio="none" style="width:567px;height:1285px;background:#FFFFFF;" version="1.1" viewBox="0 0 567 1285" width="567px" zoomAndPan="magnify"><title>auto-pass Tooling Integrations</title><defs/><g><g class="title" data-source-line="1"><text fill="#000000" font-family="Monospace" font-size="14" font-weight="bold" lengthAdjust="spacing" textLength="214.2413" x="169.5416" y="24.9659">auto-pass&#160;Tooling&#160;Integrations</text></g><!--entity source_github_workflows_ci_yml--><g class="entity" data-qualified-name="source_github_workflows_ci_yml" data-source-line="7" id="ent0002"><rect fill="#E0F2FE" height="58.1358" rx="2.5" ry="2.5" style="stroke:#181818;stroke-width:0.5;" width="182.6234" x="51.6" y="546.7079"/><text fill="#000000" font-family="Monospace" font-size="14" lengthAdjust="spacing" textLength="162.6234" x="61.6" y="571.6739">.github/workflows/ci.yml</text><text fill="#000000" font-family="Monospace" font-size="14" lengthAdjust="spacing" textLength="105.3356" x="61.6" y="590.7418">7&#160;detected&#160;tools</text></g><!--entity source_github_workflows_python_publish_yml--><g class="entity" data-qualified-name="source_github_workflows_python_publish_yml" data-source-line="8" id="ent0003"><rect fill="#E0F2FE" height="58.1358" rx="2.5" ry="2.5" style="stroke:#181818;stroke-width:0.5;" width="271.831" x="7" y="882.7079"/><text fill="#000000" font-family="Monospace" font-size="14" lengthAdjust="spacing" textLength="251.831" x="17" y="907.6739">.github/workflows/python-publish.yml</text><text fill="#000000" font-family="Monospace" font-size="14" lengthAdjust="spacing" textLength="105.3356" x="17" y="926.7418">7&#160;detected&#160;tools</text></g><!--entity source_github_workflows_secret_scan_yml--><g class="entity" data-qualified-name="source_github_workflows_secret_scan_yml" data-source-line="9" id="ent0004"><rect fill="#E0F2FE" height="58.1358" rx="2.5" ry="2.5" style="stroke:#181818;stroke-width:0.5;" width="246.7851" x="19.52" y="1096.7079"/><text fill="#000000" font-family="Monospace" font-size="14" lengthAdjust="spacing" textLength="226.7851" x="29.52" y="1121.6739">.github/workflows/secret-scan.yml</text><text fill="#000000" font-family="Monospace" font-size="14" lengthAdjust="spacing" textLength="105.3356" x="29.52" y="1140.7418">2&#160;detected&#160;tools</text></g><!--entity source_scripts_run_tachometer_profile_sh--><g class="entity" data-qualified-name="source_scripts_run_tachometer_profile_sh" data-source-line="10" id="ent0005"><rect fill="#E0F2FE" height="58.1358" rx="2.5" ry="2.5" style="stroke:#181818;stroke-width:0.5;" width="242.2912" x="21.77" y="126.7079"/><text fill="#000000" font-family="Monospace" font-size="14" lengthAdjust="spacing" textLength="222.2912" x="31.77" y="151.6739">scripts/run_tachometer_profile.sh</text><text fill="#000000" font-family="Monospace" font-size="14" lengthAdjust="spacing" textLength="105.3356" x="31.77" y="170.7418">3&#160;detected&#160;tools</text></g><!--entity tool_actions_checkout--><g class="entity" data-qualified-name="tool_actions_checkout" data-source-line="11" id="ent0006"><path d="M384.8021,979.6036 C388.6539,973.4446 393.3965,973.5851 397.126,979.7262 C400.4317,972.9632 405.4334,974.2122 409.472,978.9387 C414.0923,971.7913 418.3529,971.9161 422.9939,978.919 C427.2687,972.6356 431.1013,973.6236 435.1973,979.1045 C438.5288,974.4186 443.7424,974.5722 446.5226,979.7382 C449.2208,974.0805 455.4873,973.5886 459.0645,978.7161 C463.1441,972.6788 468.4419,972.7384 472.815,978.3702 C477.9896,972.9347 482.7512,973.4348 485.6016,980.7085 C488.5726,974.5845 494.0529,974.6686 497.0915,980.6443 C501.0603,974.8108 505.4444,975.5678 509.4544,980.5974 C519.1357,983.007 520.4459,989.1667 515.4482,996.955 C520.8931,1005.4122 519.428,1010.5155 509.4847,1013.3885 C507.2371,1019.0599 501.8773,1019.5312 498.7014,1014.3073 C495.1144,1020.8175 488.9523,1021.4068 484.3611,1015.4636 C481.6276,1021.3661 477.6571,1022.9815 472.4271,1018.2708 C469.1462,1024.7747 464.6501,1024.5988 460.5701,1019.0573 C458.0417,1026.4965 451.5243,1026.9634 447.516,1020.4411 C442.6127,1026.8389 437.1536,1024.7632 434.6665,1018.0695 C430.7306,1024.8475 424.8089,1024.6921 421.2381,1017.7131 C416.7034,1023.2315 412.0151,1021.7529 409.3415,1015.7855 C405.4643,1020.903 400.1053,1020.5251 397.5614,1014.3898 C393.1005,1019.8529 386.8786,1020.5887 383.6171,1013.0986 C376.5191,1009.0471 375.1177,1001.0642 383.6987,997.0927 C375.4564,991.0645 376.4035,984.5819 384.8021,979.6036" fill="#FEF3C7" style="stroke:#181818;stroke-width:0.5;"/><text fill="#000000" font-family="Monospace" font-size="14" lengthAdjust="spacing" textLength="111.9156" x="390.37" y="1001.2039">actions/checkout</text></g><!--entity tool_actions_download_artifact--><g class="entity" data-qualified-name="tool_actions_download_artifact" data-source-line="12" id="ent0007"><path d="M357.1855,812.9205 C361.1349,807.625 365.9532,806.1656 370.1042,812.7004 C373.2909,805.9948 377.2114,805.3609 382.3053,810.7813 C386.5128,804.5945 393.2106,806.3698 396.0591,812.3212 C398.6567,806.7108 404.2493,804.8608 408.3779,810.6695 C412.362,805.0581 418.3875,804.536 421.6586,811.4269 C424.7221,803.6279 430.874,804.1227 435.5047,809.8188 C439.0101,804.1415 444.181,804.5901 446.7954,810.6742 C450.6625,803.4914 457.8262,802.8112 461.6027,810.7629 C465.7626,804.3892 471.1781,804.674 474.564,811.5216 C477.6524,805.9853 483.0045,805.6834 485.9883,811.6257 C489.0717,804.9388 495.4255,804.1251 499.5796,810.5126 C503.9471,804.5648 509.4441,805.8554 512.1484,812.2116 C516.7459,804.5539 521.3123,805.1405 526.3926,811.7288 C529.9933,805.2811 536.3625,804.6555 540.1733,811.5111 C551.147,813.698 554.0568,821.5462 546.2576,829.9332 C550.6339,838.5727 547.3997,843.6508 537.9898,844.4248 C534.4539,850.5948 530.3239,852.8621 524.7625,846.5758 C521.2888,852.8885 516.2575,852.6321 511.9435,847.5185 C509.1498,852.3682 504.2699,853.2649 500.8635,848.2035 C497.5687,854.6453 491.1904,855.9261 486.3691,849.9913 C482.9533,856.889 476.8849,855.5183 473.4122,850.0508 C470.5824,856.8069 466.3874,857.6575 461.6983,851.774 C457.3429,859.9195 450.2082,858.8582 446.436,851.2104 C442.3884,857.0311 437.4072,857.7875 433.8372,850.7426 C430.0371,856.3984 424.9492,856.0484 421.0031,850.9162 C417.3218,856.654 411.6193,856.5421 408.6973,850.1462 C404.2648,855.4691 398.9012,855.9228 395.852,848.7268 C391.5438,855.1054 387.4413,853.8246 383.3796,848.4647 C379.1276,854.4565 373.0397,854.1787 369.8371,847.3557 C365.698,853.1516 358.9686,853.1121 355.806,846.2713 C343.7184,845.3681 341.4346,838.1029 347.3508,828.5902 C344.0106,819.3781 347.396,813.892 357.1855,812.9205" fill="#FEF3C7" style="stroke:#181818;stroke-width:0.5;"/><text fill="#000000" font-family="Monospace" font-size="14" lengthAdjust="spacing" textLength="168.8114" x="361.92" y="833.2039">actions/download-artifact</text></g><!--entity tool_actions_setup_python--><g class="entity" data-qualified-name="tool_actions_setup_python" data-source-line="13" id="ent0008"><path d="M370.4391,644.7886 C372.6516,638.7338 376.8652,638.672 380.6839,643.2395 C385.5476,637.9098 389.8869,638.5586 393.2797,644.8357 C395.1757,640.2463 399.9736,638.3921 403.4296,643.1398 C406.7891,636.8472 410.3966,636.9538 414.4651,642.4776 C418.0453,636.9911 421.783,637.8893 425.2327,642.6152 C429.0714,638.2736 432.7098,638.602 435.486,643.7618 C438.6614,637.9573 443.7179,636.3045 448.4598,641.9936 C451.5056,637.0228 454.444,637.0813 457.565,641.9238 C461.8981,636.1812 466.2261,636.8219 469.9553,642.5748 C473.998,637.6374 477.8671,638.3012 480.9286,643.6243 C483.6971,638.2513 488.4605,638.9276 491.5699,643.2501 C494.6203,637.606 499.4218,638.3211 502.1525,643.5609 C506.3774,637.9187 510.1772,638.6022 514.2137,643.771 C518.0054,638.5006 522.4572,638.814 525.6576,644.3945 C534.8026,647.0958 536.6341,655.119 530.114,661.8252 C537.1489,669.9209 534.7016,676.4588 524.1114,678.0228 C520.6294,683.6135 516.851,683.5411 513.6667,677.7495 C511.6218,683.6253 506.6828,683.2488 503.2159,679.2552 C500.469,685.1179 495.8412,685.2693 491.9438,680.4719 C488.8227,686.5877 483.0731,686.3233 480.0038,680.4204 C477.5805,685.9861 474.3516,685.365 470.4533,681.9974 C467.2992,687.1305 462.7385,687.7664 459.2269,682.3789 C456.8521,687.7606 451.1919,688.2346 447.8429,683.4721 C444.2616,689.4957 439.7183,689.169 436.031,683.5798 C432.4563,688.1587 427.2635,688.8475 424.5666,682.6464 C420.9168,687.1299 416.6118,685.6187 414.8653,680.6856 C410.4132,684.7163 406.6824,684.3805 403.5281,679.1046 C399.3918,685.2135 395.4778,683.9096 391.5984,678.8306 C389.371,683.2565 384.7423,683.123 382.0888,679.3232 C378.3147,684.9986 372.7349,684.3849 370.2362,678.0631 C360.4993,676.7773 356.9289,669.6095 361.5011,660.9989 C356.5385,652.0828 359.0667,644.6979 370.4391,644.7886" fill="#FEF3C7" style="stroke:#181818;stroke-width:0.5;"/><text fill="#000000" font-family="Monospace" font-size="14" lengthAdjust="spacing" textLength="140.2795" x="376.19" y="665.2039">actions/setup-python</text></g><!--entity tool_actions_upload_artifact--><g class="entity" data-qualified-name="tool_actions_upload_artifact" data-source-line="14" id="ent0009"><path d="M366.8794,895.9258 C369.3213,890.6573 373.442,891.1947 376.5374,895.2488 C380.6259,889.0982 385.8201,889.8212 389.7054,895.4755 C392.6709,889.4966 398.4068,889.5416 401.3435,895.5036 C404.4454,890.8247 410.1674,890.4711 412.7979,896.031 C415.9476,889.956 419.7802,890.5225 424.1735,894.6434 C427.2199,889.1369 431.977,890.2266 434.7346,894.9419 C438.1389,888.9238 442.4382,888.19 446.788,893.9765 C450.9813,888.3125 457.1443,890.1543 459.665,895.8694 C462.7698,888.8357 467.2889,889.8639 471.6972,894.5287 C474.9216,890.5288 479.4416,890.1956 481.5844,895.6588 C485.4864,889.5241 489.0824,889.4817 493.4402,895.203 C497.3915,889.731 501.8361,890.5545 504.9865,896.0465 C508.7851,890.6378 513.2172,890.328 517.1845,895.8584 C520.2919,889.467 525.6777,889.6284 529.3095,895.3327 C538.6789,899.4822 540.0609,905.7924 532.1877,912.7854 C540.2207,919.2865 538.7328,925.1544 529.8406,929.2414 C525.923,935.1051 522.0862,935.7646 517.0795,930.4892 C513.4743,935.8299 507.7487,934.9167 504.9759,929.5483 C501.7846,934.5286 498.6426,935.4309 494.739,930.267 C490.7802,937.3577 485.8229,936.297 481.5023,930.6428 C478.604,936.4047 474.7649,937.0245 470.3992,932.1788 C467.9966,937.7969 463.0082,938.1427 460.0767,932.6711 C456.4646,940.0297 452.0985,938.8722 447.1099,934.1484 C442.6045,938.7999 439.4607,937.7078 436.8158,932.2534 C433.4483,938.3394 428.117,938.0218 424.213,932.8542 C420.0632,938.3504 415.9813,937.9639 413.1326,931.6349 C408.6852,936.2214 404.7666,936.2231 401.5574,930.2745 C398.5187,935.9507 392.8167,937.181 389.1062,930.9787 C385.1565,936.0832 380.3337,936.5007 376.532,930.8062 C373.382,935.4693 368.3403,935.2262 366.3139,929.6814 C355.8235,927.9474 352.1368,920.5161 359.6928,912.0176 C354.5203,903.9123 357.2396,897.4159 366.8794,895.9258" fill="#FEF3C7" style="stroke:#181818;stroke-width:0.5;"/><text fill="#000000" font-family="Monospace" font-size="14" lengthAdjust="spacing" textLength="149.3374" x="371.66" y="917.2039">actions/upload-artifact</text></g><!--entity tool_auto_pass--><g class="entity" data-qualified-name="tool_auto_pass" data-source-line="15" id="ent0010"><path d="M408.2893,309.3766 C410.8383,302.5888 415.6764,303.208 419.9858,307.522 C423.9509,299.3576 430.3007,300.3618 434.9855,306.7818 C438.543,300.5563 444.3888,300.3493 447.3949,307.3011 C451.6285,301.693 455.6271,302.0817 459.6881,307.4937 C464.0934,300.8232 468.744,300.4408 473.8747,306.6974 C478.2876,301.6041 483.647,300.4974 486.902,307.9041 C498.5647,308.9954 500.9009,315.4755 495.626,325.1398 C500.6744,334.1216 499.373,340.3784 488.0224,341.9364 C483.7024,348.8218 479.6353,348.8892 474.6223,342.6436 C472.0205,350.8686 466.4411,351.2197 461.069,345.2976 C457.764,352.216 453.7896,353.3629 448.4958,347.2107 C443.3121,353.3674 438.624,352.6813 434.7983,345.7856 C429.3184,350.942 422.3497,350.6095 419.7171,342.5391 C415.3816,347.9307 411.0956,348.2036 406.8406,342.446 C396.0982,340.3632 393.6059,332.1739 401.4803,324.5233 C397.3691,316.9615 400.0714,311.3959 408.2893,309.3766" fill="#FEF3C7" style="stroke:#181818;stroke-width:0.5;"/><text fill="#000000" font-family="Monospace" font-size="14" lengthAdjust="spacing" textLength="66.1218" x="413.27" y="329.2039">auto_pass</text></g><!--entity tool_black--><g class="entity" data-qualified-name="tool_black" data-source-line="16" id="ent0011"><path d="M422.8112,392.8532 C424.833,386.3588 430.8775,385.8391 435.0073,390.5611 C438.8781,383.9361 443.2047,383.7907 447.6324,390.0139 C452.042,384.5195 455.8921,384.7362 459.4159,390.9086 C463.661,385.1503 469.4544,385.1937 472.3093,392.3017 C480.3022,396.1633 481.0231,402.6647 474.5001,408.4906 C481.0122,414.6082 480.131,422.4189 471.4817,425.9092 C469.7548,432.1464 464.4959,434.6505 459.145,430.025 C458.1492,436.2827 452.837,437.3895 448.4839,433.5806 C441.9392,439.0675 436.5235,437.1901 434.9711,428.7403 C429.1756,434.6409 424.3728,433.2527 422.2437,425.3578 C411.6235,423.4828 410.1382,417.3657 416.1349,409.206 C410.2182,400.88 414.0106,395.1707 422.8112,392.8532" fill="#FEF3C7" style="stroke:#181818;stroke-width:0.5;"/><text fill="#000000" font-family="Monospace" font-size="14" lengthAdjust="spacing" textLength="34.2719" x="429.19" y="413.2039">black</text></g><!--entity tool_build--><g class="entity" data-qualified-name="tool_build" data-source-line="17" id="ent0012"><path d="M423.0282,1063.5985 C427.1754,1057.7643 431.967,1057.6046 435.7822,1063.9462 C438.8648,1057.8018 444.2951,1056.8821 448.354,1062.9404 C451.1634,1058.42 456.2454,1057.2323 459.2228,1062.7586 C463.2435,1057.3371 468.4277,1057.796 471.4544,1063.8208 C482.3228,1065.9442 481.8735,1075.3509 475.8264,1081.6275 C482.2788,1088.3504 479.8408,1094.4418 471.3224,1096.6874 C469.4882,1102.2538 464.1999,1103.8007 459.8835,1099.5921 C456.8677,1105.9005 452.2794,1106.7167 447.6863,1101.2221 C443.6464,1106.7617 437.3187,1106.7966 434.5675,1099.8664 C429.8136,1103.781 425.1455,1102.264 422.995,1096.6909 C412.6763,1096.2708 409.901,1087.5091 414.9757,1079.7866 C409.1928,1071.833 412.2948,1063.3363 423.0282,1063.5985" fill="#FEF3C7" style="stroke:#181818;stroke-width:0.5;"/><text fill="#000000" font-family="Monospace" font-size="14" lengthAdjust="spacing" textLength="33.0959" x="429.78" y="1085.2039">build</text></g><!--entity tool_gitleaks_gitleaks_action--><g class="entity" data-qualified-name="tool_gitleaks_gitleaks_action" data-source-line="18" id="ent0013"><path d="M363.4866,1232.893 C367.627,1225.5143 371.857,1226.0066 377.0958,1231.7541 C381.0075,1226.2092 385.8395,1226.4052 388.963,1232.5539 C392.2192,1226.6947 396.7025,1226.979 400.0729,1232.4418 C403.2246,1227.0893 408.1698,1225.4346 412.2506,1231.4461 C414.9364,1225.6664 420.8213,1223.9679 424.5572,1230.3866 C428.946,1224.241 433.6679,1226.4888 436.6086,1231.897 C439.1746,1227.0278 442.7211,1226.0315 446.4222,1230.733 C450.4549,1223.4053 456.9427,1225.4639 460.2878,1231.4491 C462.738,1227.0407 467.397,1226.7365 470.2031,1231.0442 C473.7561,1225.319 477.9752,1225.4517 481.8887,1230.6588 C486.6345,1225.5886 492.6664,1225.3013 495.8067,1232.4827 C498.805,1227.3534 503.7892,1226.0673 507.7006,1231.4495 C510.8313,1226.2607 514.4391,1226.0943 517.9236,1231.0946 C523.1506,1225.34 527.0626,1226.1017 530.2187,1233.0923 C539.8089,1233.8242 543.2736,1240.5209 539.5493,1249.0418 C545.4577,1259.3892 540.6616,1266.2098 529.273,1266.1943 C525.714,1270.7655 521.8013,1270.1223 518.9772,1265.3818 C516.4718,1273.1453 511.4692,1273.7071 506.1696,1268.0479 C503.0435,1273.1547 499.8217,1273.0319 495.9066,1268.927 C491.4434,1274.3778 486.6566,1276.0043 482.369,1268.7401 C478.9487,1274.7809 474.2914,1274.7686 470.304,1269.3365 C467.869,1275.7211 464.5042,1276.0873 459.7316,1271.6122 C456.0475,1277.4364 451.7673,1278.0617 447.0391,1272.8085 C442.2463,1277.4504 438.0559,1277.6466 434.5881,1271.3062 C430.8228,1275.9129 425.5224,1275.9518 422.9212,1270.0177 C419.4398,1275.3919 415.151,1274.4789 412.3538,1269.3305 C408.5966,1276.1314 403.3016,1275.4254 399.7592,1269.124 C395.4249,1273.5215 390.8675,1273.0186 388.1051,1267.3111 C384.2341,1272.9883 378.8076,1270.6124 376.6568,1265.4879 C373.741,1271.9809 367.9837,1272.2292 364.2563,1266.2979 C354.5482,1263.6607 352.9888,1255.8995 359.3231,1248.7519 C352.3684,1242.4309 355.2718,1235.2313 363.4866,1232.893" fill="#FEF3C7" style="stroke:#181818;stroke-width:0.5;"/><text fill="#000000" font-family="Monospace" font-size="14" lengthAdjust="spacing" textLength="151.7174" x="370.47" y="1253.2039">gitleaks/gitleaks-action</text></g><!--entity tool_pip--><g class="entity" data-qualified-name="tool_pip" data-source-line="19" id="ent0014"><path d="M430.2012,727.3066 C434.5455,719.6787 442.0107,718.2161 447.4651,726.0686 C454.8731,717.9547 460.9818,719.9022 465.2705,729.2494 C474.6419,730.5015 478.7019,735.3941 473.867,744.6012 C479.9578,754.3279 474.2844,760.752 464.3961,761.5496 C461.4861,771.5252 455.7952,773.8925 447.4133,767.0874 C439.0973,774.1997 431.2826,770.2965 429.2946,760.3617 C421.482,756.083 419.05,751.4608 426.5587,744.5339 C419.4908,737.3159 420.3757,730.9528 430.2012,727.3066" fill="#FEF3C7" style="stroke:#181818;stroke-width:0.5;"/><text fill="#000000" font-family="Monospace" font-size="14" lengthAdjust="spacing" textLength="20.8319" x="435.91" y="749.2039">pip</text></g><!--entity tool_pypa_gh_action_pypi_publish--><g class="entity" data-qualified-name="tool_pypa_gh_action_pypi_publish" data-source-line="20" id="ent0015"><path d="M347.3646,1148.7222 C351.3144,1140.9713 358.3079,1142.6651 361.9552,1149.0348 C366.2157,1141.2076 372.7232,1141.1815 377.2585,1148.7618 C380.622,1142.4812 386.9184,1140.883 390.8436,1148.2006 C393.8459,1140.9272 400.808,1140.1063 405.1908,1146.7805 C408.3675,1140.1268 414.7109,1141.0387 418.1284,1146.5238 C423.0305,1140.7508 429.0512,1141.6727 432.5657,1148.1581 C436.686,1141.7819 442.005,1140.9724 447.113,1146.9995 C451.5372,1141.3273 458.1852,1141.2922 461.5825,1148.1823 C464.9279,1140.9341 470.1805,1140.5961 474.8599,1146.8726 C480.1052,1140.2351 484.4221,1140.8164 489.2618,1147.3173 C493.2263,1139.3483 500.9288,1139.2192 505.257,1146.9468 C509.3972,1141.2117 514.7567,1142.0817 518.3765,1147.556 C522.536,1140.8381 528.4207,1140.2596 532.6011,1147.5347 C538.3895,1141.4508 543.2198,1142.3048 547.615,1149.1523 C557.0716,1151.2145 560.1711,1156.1517 556.2301,1165.3428 C560.3244,1174.5295 559.0084,1181.3368 547.248,1181.9466 C542.7535,1188.9542 538.3403,1188.568 533.4488,1182.3611 C527.8005,1188.8559 523.3096,1187.739 518.4726,1181.4133 C514.8048,1188.3464 509.2629,1190.5739 503.316,1183.964 C499.1575,1189.3466 494.4898,1190.6318 490.5832,1183.7035 C487.0137,1191.5514 479.8873,1191.0745 476.3132,1183.7078 C472.363,1191.1923 465.4557,1189.974 462.0692,1183.1467 C458.5111,1189.7097 450.9629,1190.3596 446.7028,1183.9802 C441.5664,1190.2755 436.702,1190.4294 433.041,1182.5574 C429.7402,1189.5078 424.2331,1189.7067 419.1242,1184.6537 C413.3081,1191.1409 408.3027,1189.5659 404.4889,1182.4927 C400.1187,1190.1854 394.5344,1190.6366 389.6054,1183.0366 C385.5573,1187.775 380.7095,1188.0667 377.42,1182.1676 C371.9949,1189.1736 366.572,1189.7827 362.1386,1181.1956 C357.3322,1189.2245 352.0601,1188.4291 347.0113,1181.4397 C339.123,1177.7585 336.2665,1171.5609 344.0343,1165.0381 C336.3835,1158.6154 339.6495,1152.0085 347.3646,1148.7222" fill="#FEF3C7" style="stroke:#181818;stroke-width:0.5;"/><text fill="#000000" font-family="Monospace" font-size="14" lengthAdjust="spacing" textLength="184.9953" x="353.83" y="1169.2039">pypa/gh-action-pypi-publish</text></g><!--entity tool_ruff--><g class="entity" data-qualified-name="tool_ruff" data-source-line="21" id="ent0016"><path d="M427.8832,475.9253 C432.7531,466.5258 442.1361,465.7936 447.7562,475.1296 C454.5649,467.4368 460.2465,467.4715 465.3854,476.8536 C475.941,477.5033 478.1917,484.0972 473.3755,492.5645 C478.1534,501.394 474.7504,506.3586 465.7439,508.6472 C460.6011,518.6025 454.9108,519.3056 447.2729,511.1988 C440.6235,518.788 432.3381,519.587 428.1721,508.6398 C419.1682,507.3319 416.4461,500.3738 422.689,493.5323 C415.369,486.3011 419.1346,478.416 427.8832,475.9253" fill="#FEF3C7" style="stroke:#181818;stroke-width:0.5;"/><text fill="#000000" font-family="Monospace" font-size="14" lengthAdjust="spacing" textLength="24.0659" x="434.3" y="497.2039">ruff</text></g><!--entity tool_run--><g class="entity" data-qualified-name="tool_run" data-source-line="22" id="ent0017"><path d="M428.0002,56.8706 C432.8718,47.7293 441.1748,46.1296 448.2351,54.3143 C454.0987,46.5504 462.4235,48.2883 465.8227,56.9525 C475.4123,57.6613 481.1016,62.4144 475.6144,72.5737 C480.8485,82.0202 477.3465,87.44 466.973,88.3228 C466.7346,101.0475 460.4031,106.0421 448.4097,99.8709 C437.503,104.9036 430.3406,103.4176 429.6402,89.6703 C419.9793,88.8356 416.1911,80.744 421.5439,72.7327 C416.4885,64.6057 418.9047,59.2377 428.0002,56.8706" fill="#FEF3C7" style="stroke:#181818;stroke-width:0.5;"/><text fill="#000000" font-family="Monospace" font-size="14" lengthAdjust="spacing" textLength="23.0859" x="434.79" y="77.2039">run</text></g><!--entity tool_summarize--><g class="entity" data-qualified-name="tool_summarize" data-source-line="23" id="ent0018"><path d="M403.8662,139.7082 C409.0605,132.088 414.2979,133.6617 418.7254,140.4963 C422.3419,133.3452 428.0494,133.5795 432.1302,140.0389 C436.9642,132.5754 441.7309,131.3054 447.9359,138.5673 C451.9967,131.1997 459.0965,131.4657 462.7206,139.0007 C467.3051,132.1413 474.1965,132.4184 477.4124,140.3593 C481.0489,134.5447 487.749,133.9823 490.9117,140.8631 C500.2794,140.9338 504.3894,148.7506 499.2993,156.5512 C505.2439,165.1643 501.5713,171.1668 491.9764,172.7589 C488.1944,180.6105 480.6045,180.5184 475.6862,174.0518 C472.3799,182.1689 467.0983,181.6599 461.8395,176.0165 C459.0474,183.3974 452.1639,182.8845 448.1046,177.3659 C443.2756,182.9427 438.3055,183.9218 433.9681,176.8179 C428.4102,182.4858 422.0888,181.7947 418.9919,174.0665 C414.802,181.7863 408.3119,181.8264 404.4376,173.7753 C393.8776,172.9199 391.9451,163.6176 397.3871,156.3045 C392.0733,149.1206 393.1392,140.6298 403.8662,139.7082" fill="#FEF3C7" style="stroke:#181818;stroke-width:0.5;"/><text fill="#000000" font-family="Monospace" font-size="14" lengthAdjust="spacing" textLength="73.2617" x="409.7" y="161.2039">summarize</text></g><!--entity tool_tachometer--><g class="entity" data-qualified-name="tool_tachometer" data-source-line="24" id="ent0019"><path d="M402.6672,223.6907 C405.4407,218.6174 409.996,218.9775 412.7274,223.7338 C416.8084,217.5092 422.1557,218.9347 425.6126,224.4206 C428.9305,218.9344 432.1863,218.5078 435.9278,224.0235 C438.8186,217.1195 443.3721,217.0811 448.1058,222.1488 C451.9208,216.9114 456.3124,219.0105 458.5933,223.7599 C461.7261,218.6305 465.7549,218.416 469.276,223.3474 C473.1174,217.506 478.0207,218.6284 481.0876,224.1523 C484.156,218.4488 488.7969,219.7477 491.7723,224.2497 C500.0008,228.061 500.6821,235.0747 493.5196,240.5371 C501.54,245.5006 501.021,251.1823 493.6884,256.3101 C490.5061,261.712 486.2187,262.4527 482.2912,257.0998 C479.6329,263.7654 474.5721,264.0238 470.058,259.0502 C466.0925,264.4338 462.7746,263.6977 459.0571,258.7852 C456.6491,264.4725 451.3853,264.6148 448.3816,259.3666 C444.9725,264.1032 439.875,264.5201 436.7593,259.0332 C432.7347,262.8121 428.0251,263.0921 425.8926,256.959 C422.893,263.9778 416.7563,263.2166 412.7172,258.0863 C409.1731,262.5639 403.547,262.1996 401.1947,256.7087 C392.3879,255.5597 389.4325,247.3143 394.3087,240.3911 C389.5921,230.9882 391.0116,224.8994 402.6672,223.6907" fill="#FEF3C7" style="stroke:#181818;stroke-width:0.5;"/><text fill="#000000" font-family="Monospace" font-size="14" lengthAdjust="spacing" textLength="76.4677" x="408.09" y="245.2039">tachometer</text></g><!--entity tool_unittest--><g class="entity" data-qualified-name="tool_unittest" data-source-line="25" id="ent0020"><path d="M415.3773,559.4511 C420.3645,550.3991 426.3024,551.7503 431.6584,559.0848 C435.6531,550.1474 443.5567,551.7874 447.8242,558.8084 C453.3635,550.4565 460.2829,550.9878 464.1807,560.3261 C468.8249,554.2493 475.9759,554.3172 479.9273,561.17 C489.129,561.8362 494.1353,568.5437 488.6973,577.2129 C495.231,587.622 490.6046,594.0356 479.1089,594.367 C474.7935,602.3846 467.1874,601.624 462.7802,594.4657 C459.3403,601.0953 452.5821,602.7725 447.554,596.3134 C442.3681,604.0271 435.6819,602.6673 431.9375,594.8628 C427.0319,604.2347 418.6053,602.5538 414.4329,594.141 C403.8524,590.4287 404.1713,582.3951 411.8921,576.1046 C405.9362,568.8141 407.4502,563.8362 415.3773,559.4511" fill="#FEF3C7" style="stroke:#181818;stroke-width:0.5;"/><text fill="#000000" font-family="Monospace" font-size="14" lengthAdjust="spacing" textLength="50.6798" x="420.99" y="581.2039">unittest</text></g><g class="entity" data-qualified-name="toolingGraphSummary" data-source-line="46" id="ent0040"><path d="M39.16,46.0679 L39.16,91.4799 L246.6712,91.4799 L246.6712,56.0679 L236.6712,46.0679 L39.16,46.0679" fill="#FEFFDD" style="stroke:#181818;stroke-width:0.5;"/><path d="M236.6712,46.0679 L236.6712,56.0679 L246.6712,56.0679 L236.6712,46.0679" fill="#FEFFDD" style="stroke:#181818;stroke-width:1;"/><text fill="#000000" font-family="Monospace" font-size="13" lengthAdjust="spacing" textLength="186.5112" x="45.16" y="64.9649">Scanned&#160;4&#160;tooling&#160;entrypoints.</text><text fill="#000000" font-family="Monospace" font-size="13" lengthAdjust="spacing" textLength="179.2182" x="45.16" y="82.6709">Detected&#160;15&#160;third-party&#160;tools.</text></g><!--link source_github_workflows_ci_yml to tool_actions_checkout--><g class="link" data-entity-1="ent0002" data-entity-2="ent0006" data-link-type="dependency" data-source-line="26" id="lnk21"><path d="M234.61,590.4979 C272.98,590.4979 308.83,590.4979 308.83,590.4979 C308.83,590.4979 308.83,987.5979 308.83,987.5979 C308.83,987.5979 335.61,987.5979 369.16,987.5979" fill="none" id="source_github_workflows_ci_yml-to-tool_actions_checkout" style="stroke:#181818;stroke-width:1;"/><polygon fill="#181818" points="375.16,987.5979,366.16,983.5979,370.16,987.5979,366.16,991.5979,375.16,987.5979" style="stroke:#181818;stroke-width:1;"/></g><!--link source_github_workflows_ci_yml to tool_actions_setup_python--><g class="link" data-entity-1="ent0002" data-entity-2="ent0008" data-link-type="dependency" data-source-line="27" id="lnk22"><path d="M234.69,580.6779 C300.22,580.6779 376.83,580.6779 376.83,580.6779 C376.83,580.6779 376.83,605.5779 376.83,628.7479" fill="none" id="source_github_workflows_ci_yml-to-tool_actions_setup_python" style="stroke:#181818;stroke-width:1;"/><polygon fill="#181818" points="376.83,634.7479,380.83,625.7479,376.83,629.7479,372.83,625.7479,376.83,634.7479" style="stroke:#181818;stroke-width:1;"/></g><!--link source_github_workflows_ci_yml to tool_auto_pass--><g class="link" data-entity-1="ent0002" data-entity-2="ent0010" data-link-type="dependency" data-source-line="28" id="lnk23"><path d="M234.56,561.0579 C309.04,561.0579 401.83,561.0579 401.83,561.0579 C401.83,561.0579 401.83,415.6379 401.83,354.7179" fill="none" id="source_github_workflows_ci_yml-to-tool_auto_pass" style="stroke:#181818;stroke-width:1;"/><polygon fill="#181818" points="401.83,348.7179,397.83,357.7179,401.83,353.7179,405.83,357.7179,401.83,348.7179" style="stroke:#181818;stroke-width:1;"/></g><!--link source_github_workflows_ci_yml to tool_black--><g class="link" data-entity-1="ent0002" data-entity-2="ent0011" data-link-type="dependency" data-source-line="29" id="lnk24"><path d="M112.83,546.5079 C112.83,498.3779 112.83,407.7779 112.83,407.7779 C112.83,407.7779 323.83,407.7779 407.74,407.7779" fill="none" id="source_github_workflows_ci_yml-to-tool_black" style="stroke:#181818;stroke-width:1;"/><polygon fill="#181818" points="413.74,407.7779,404.74,403.7779,408.74,407.7779,404.74,411.7779,413.74,407.7779" style="stroke:#181818;stroke-width:1;"/></g><!--link source_github_workflows_ci_yml to tool_pip--><g class="link" data-entity-1="ent0002" data-entity-2="ent0014" data-link-type="dependency" data-source-line="30" id="lnk25"><path d="M142.83,605.0879 C142.83,651.2279 142.83,735.5979 142.83,735.5979 C142.83,735.5979 341.06,735.5979 414.45,735.5979" fill="none" id="source_github_workflows_ci_yml-to-tool_pip" style="stroke:#181818;stroke-width:1;"/><polygon fill="#181818" points="420.45,735.5979,411.45,731.5979,415.45,735.5979,411.45,739.5979,420.45,735.5979" style="stroke:#181818;stroke-width:1;"/></g><!--link source_github_workflows_ci_yml to tool_ruff--><g class="link" data-entity-1="ent0002" data-entity-2="ent0016" data-link-type="dependency" data-source-line="31" id="lnk26"><path d="M173.83,546.3979 C173.83,522.1679 173.83,491.7779 173.83,491.7779 C173.83,491.7779 343.85,491.7779 412.95,491.7779" fill="none" id="source_github_workflows_ci_yml-to-tool_ruff" style="stroke:#181818;stroke-width:1;"/><polygon fill="#181818" points="418.95,491.7779,409.95,487.7779,413.95,491.7779,409.95,495.7779,418.95,491.7779" style="stroke:#181818;stroke-width:1;"/></g><!--link source_github_workflows_ci_yml to tool_unittest--><g class="link" data-entity-1="ent0002" data-entity-2="ent0020" data-link-type="dependency" data-source-line="32" id="lnk27"><path d="M234.36,570.8679 C291.42,570.8679 356.06,570.8679 399.65,570.8679" fill="none" id="source_github_workflows_ci_yml-to-tool_unittest" style="stroke:#181818;stroke-width:1;"/><polygon fill="#181818" points="405.65,570.8679,396.65,566.8679,400.65,570.8679,396.65,574.8679,405.65,570.8679" style="stroke:#181818;stroke-width:1;"/></g><!--link source_github_workflows_python_publish_yml to tool_actions_checkout--><g class="link" data-entity-1="ent0003" data-entity-2="ent0006" data-link-type="dependency" data-source-line="33" id="lnk28"><path d="M275.83,941.1979 C275.83,968.1679 275.83,1003.9479 275.83,1003.9479 C275.83,1003.9479 322.29,1003.9479 369.01,1003.9479" fill="none" id="source_github_workflows_python_publish_yml-to-tool_actions_checkout" style="stroke:#181818;stroke-width:1;"/><polygon fill="#181818" points="375.01,1003.9479,366.01,999.9479,370.01,1003.9479,366.01,1007.9479,375.01,1003.9479" style="stroke:#181818;stroke-width:1;"/></g><!--link source_github_workflows_python_publish_yml to tool_actions_download_artifact--><g class="link" data-entity-1="ent0003" data-entity-2="ent0007" data-link-type="dependency" data-source-line="34" id="lnk29"><path d="M274.83,882.3979 C274.83,858.1679 274.83,827.7779 274.83,827.7779 C274.83,827.7779 302.84,827.7779 340.57,827.7779" fill="none" id="source_github_workflows_python_publish_yml-to-tool_actions_download_artifact" style="stroke:#181818;stroke-width:1;"/><polygon fill="#181818" points="346.57,827.7779,337.57,823.7779,341.57,827.7779,337.57,831.7779,346.57,827.7779" style="stroke:#181818;stroke-width:1;"/></g><!--link source_github_workflows_python_publish_yml to tool_actions_setup_python--><g class="link" data-entity-1="ent0003" data-entity-2="ent0008" data-link-type="dependency" data-source-line="35" id="lnk30"><path d="M267.83,882.3779 C267.83,815.8979 267.83,659.7779 267.83,659.7779 C267.83,659.7779 308.93,659.7779 354.74,659.7779" fill="none" id="source_github_workflows_python_publish_yml-to-tool_actions_setup_python" style="stroke:#181818;stroke-width:1;"/><polygon fill="#181818" points="360.74,659.7779,351.74,655.7779,355.74,659.7779,351.74,663.7779,360.74,659.7779" style="stroke:#181818;stroke-width:1;"/></g><!--link source_github_workflows_python_publish_yml to tool_actions_upload_artifact--><g class="link" data-entity-1="ent0003" data-entity-2="ent0009" data-link-type="dependency" data-source-line="36" id="lnk31"><path d="M279.09,911.7779 C305.24,911.7779 326.02,911.7779 350.26,911.7779" fill="none" id="source_github_workflows_python_publish_yml-to-tool_actions_upload_artifact" style="stroke:#181818;stroke-width:1;"/><polygon fill="#181818" points="356.26,911.7779,347.26,907.7779,351.26,911.7779,347.26,915.7779,356.26,911.7779" style="stroke:#181818;stroke-width:1;"/></g><!--link source_github_workflows_python_publish_yml to tool_build--><g class="link" data-entity-1="ent0003" data-entity-2="ent0012" data-link-type="dependency" data-source-line="37" id="lnk32"><path d="M272.83,941.1279 C272.83,988.3579 272.83,1075.9779 272.83,1075.9779 C272.83,1075.9779 358.42,1075.9779 408.51,1075.9779" fill="none" id="source_github_workflows_python_publish_yml-to-tool_build" style="stroke:#181818;stroke-width:1;"/><polygon fill="#181818" points="414.51,1075.9779,405.51,1071.9779,409.51,1075.9779,405.51,1079.9779,414.51,1075.9779" style="stroke:#181818;stroke-width:1;"/></g><!--link source_github_workflows_python_publish_yml to tool_pip--><g class="link" data-entity-1="ent0003" data-entity-2="ent0014" data-link-type="dependency" data-source-line="38" id="lnk33"><path d="M271.83,882.4579 C271.83,836.3179 271.83,751.9479 271.83,751.9479 C271.83,751.9479 366.04,751.9479 414.58,751.9479" fill="none" id="source_github_workflows_python_publish_yml-to-tool_pip" style="stroke:#181818;stroke-width:1;"/><polygon fill="#181818" points="420.58,751.9479,411.58,747.9479,415.58,751.9479,411.58,755.9479,420.58,751.9479" style="stroke:#181818;stroke-width:1;"/></g><!--link source_github_workflows_python_publish_yml to tool_pypa_gh_action_pypi_publish--><g class="link" data-entity-1="ent0003" data-entity-2="ent0015" data-link-type="dependency" data-source-line="39" id="lnk34"><path d="M269.83,941.0979 C269.83,1004.1579 269.83,1147.0379 269.83,1147.0379 C269.83,1147.0379 295.82,1147.0379 332.57,1147.0379" fill="none" id="source_github_workflows_python_publish_yml-to-tool_pypa_gh_action_pypi_publish" style="stroke:#181818;stroke-width:1;"/><polygon fill="#181818" points="338.57,1147.0379,329.57,1143.0379,333.57,1147.0379,329.57,1151.0379,338.57,1147.0379" style="stroke:#181818;stroke-width:1;"/></g><!--link source_github_workflows_secret_scan_yml to tool_actions_checkout--><g class="link" data-entity-1="ent0004" data-entity-2="ent0006" data-link-type="dependency" data-source-line="40" id="lnk35"><path d="M266.66,1100.5079 C330.36,1100.5079 394.83,1100.5079 394.83,1100.5079 C394.83,1100.5079 394.83,1057.5679 394.83,1026.5979" fill="none" id="source_github_workflows_secret_scan_yml-to-tool_actions_checkout" style="stroke:#181818;stroke-width:1;"/><polygon fill="#181818" points="394.83,1020.5979,390.83,1029.5979,394.83,1025.5979,398.83,1029.5979,394.83,1020.5979" style="stroke:#181818;stroke-width:1;"/></g><!--link source_github_workflows_secret_scan_yml to tool_gitleaks_gitleaks_action--><g class="link" data-entity-1="ent0004" data-entity-2="ent0013" data-link-type="dependency" data-source-line="41" id="lnk36"><path d="M142.83,1155.3079 C142.83,1191.4179 142.83,1247.7779 142.83,1247.7779 C142.83,1247.7779 259.87,1247.7779 349.27,1247.7779" fill="none" id="source_github_workflows_secret_scan_yml-to-tool_gitleaks_gitleaks_action" style="stroke:#181818;stroke-width:1;"/><polygon fill="#181818" points="355.27,1247.7779,346.27,1243.7779,350.27,1247.7779,346.27,1251.7779,355.27,1247.7779" style="stroke:#181818;stroke-width:1;"/></g><!--link source_scripts_run_tachometer_profile_sh to tool_run--><g class="link" data-entity-1="ent0005" data-entity-2="ent0017" data-link-type="dependency" data-source-line="42" id="lnk37"><path d="M255.83,126.5179 C255.83,101.4479 255.83,69.3579 255.83,69.3579 C255.83,69.3579 360.93,69.3579 413.44,69.3579" fill="none" id="source_scripts_run_tachometer_profile_sh-to-tool_run" style="stroke:#181818;stroke-width:1;"/><polygon fill="#181818" points="419.44,69.3579,410.44,65.3579,414.44,69.3579,410.44,73.3579,419.44,69.3579" style="stroke:#181818;stroke-width:1;"/></g><!--link source_scripts_run_tachometer_profile_sh to tool_summarize--><g class="link" data-entity-1="ent0005" data-entity-2="ent0018" data-link-type="dependency" data-source-line="43" id="lnk38"><path d="M264.14,155.7779 C309.53,155.7779 352.72,155.7779 388.54,155.7779" fill="none" id="source_scripts_run_tachometer_profile_sh-to-tool_summarize" style="stroke:#181818;stroke-width:1;"/><polygon fill="#181818" points="394.54,155.7779,385.54,151.7779,389.54,155.7779,385.54,159.7779,394.54,155.7779" style="stroke:#181818;stroke-width:1;"/></g><!--link source_scripts_run_tachometer_profile_sh to tool_tachometer--><g class="link" data-entity-1="ent0005" data-entity-2="ent0019" data-link-type="dependency" data-source-line="44" id="lnk39"><path d="M248.83,185.1579 C248.83,209.3779 248.83,239.7779 248.83,239.7779 C248.83,239.7779 328.14,239.7779 386.62,239.7779" fill="none" id="source_scripts_run_tachometer_profile_sh-to-tool_tachometer" style="stroke:#181818;stroke-width:1;"/><polygon fill="#181818" points="392.62,239.7779,383.62,235.7779,387.62,239.7779,383.62,243.7779,392.62,239.7779" style="stroke:#181818;stroke-width:1;"/></g><?plantuml-src fLR1ZjiW4BtxAz3ksKcxssfllMoJgeVsaXvNGWHZWu81mQ38_Vg2RMBBNcUTz6QOzzwCcM4O420P8XvqReXpw8_MKgWA_LJ0Aaj0QEKooKf0e94L5GTK2CjeD6Jk99GXbjJ8SLBeSoIMH3esiXIi95x2NYluJMg6VccbdI5qZA6wDben1GTeGZHHdgXAZY4XA0QDOKXRu3gxGD33fXB0_N5xrlPKIdrsMoesJItVr4jm3W78YX2ybku14OUSzfOot97mXOIfm8647dUVza_xtNK7fWangDpuenIEt-6i4y2zm7h7Zb7B87UKgCxhqorUEpQEx2MNZbfXm6sjLnW8vReEyXORgqiXsSRnD_LynMLFn-_JiUCNdrHgNw07qXPII1bdzAGzj69H5lSMd2peSR_RFx--J9cXx9JKfCY91L66tRb4Wk04MT9o3Bp9k-JCPLfhdxeb1My-YAK3B4SIBYAE5t74J5jJx54IUXfmxNA6yK8M8qnSJZ5LR07avBRf8--27MZ9C7nqYAcI4MOWXSNCtXYohNYl7mxQY7I9Hhm0mXNlNSIbI1TbgcTzMGx4k9eZr1WmYzZvkYPM_6K3wh8rnGu5FO27lIdQAm70tAW4qiu5-K4holDlxr-5cudZobrFJdMtcj5Mu6fqg8_Ls9ZQrU1qpjaDtVVsiruZCciy_wMsAejhX2Ozw2wjjfFSnRoMzwkyvRwGhNtnRa_pei9IJynMFuMZwhw7TUbJTt07SwOqiDIYmlpsmnB33wrqant2Nwlmpdz9LXHcDDiOBHIuJVOzpG6VloBWmXPXXBJGT6F19cEgG57z7m00?></g></svg>
