<?plantuml 1.2026.2?><svg xmlns="http://www.w3.org/2000/svg" xmlns:xlink="http://www.w3.org/1999/xlink" contentStyleType="text/css" data-diagram-type="DESCRIPTION" height="609px" preserveAspectRatio="none" style="width:450px;height:609px;background:#FFFFFF;" version="1.1" viewBox="0 0 450 609" width="450px" zoomAndPan="magnify"><title>auto-pass Tooling Integrations</title><defs/><g><g class="title" data-source-line="1"><text fill="#000000" font-family="Monospace" font-size="14" font-weight="bold" lengthAdjust="spacing" textLength="214.2413" x="110.9988" y="24.9659">auto-pass&#160;Tooling&#160;Integrations</text></g><!--entity source_github_workflows_ci_yml--><g class="entity" data-qualified-name="source_github_workflows_ci_yml" data-source-line="7" id="ent0002"><rect fill="#E0F2FE" height="58.1358" rx="2.5" ry="2.5" style="stroke:#181818;stroke-width:0.5;" width="182.6234" x="15.33" y="292.9846"/><text fill="#000000" font-family="Monospace" font-size="14" lengthAdjust="spacing" textLength="162.6234" x="25.33" y="317.9505">.github/workflows/ci.yml</text><text fill="#000000" font-family="Monospace" font-size="14" lengthAdjust="spacing" textLength="105.3356" x="25.33" y="337.0184">7&#160;detected&#160;tools</text></g><!--entity tool_actions_checkout--><g class="entity" data-qualified-name="tool_actions_checkout" data-source-line="8" id="ent0003"><path d="M290.9021,53.8803 C294.7539,47.7213 299.4965,47.8618 303.226,54.0028 C306.5317,47.2399 311.5334,48.4888 315.572,53.2153 C320.1923,46.0679 324.4529,46.1928 329.0939,53.1956 C333.3687,46.9122 337.2013,47.9002 341.2973,53.3812 C344.6288,48.6952 349.8424,48.8489 352.6226,54.0149 C355.3208,48.3572 361.5873,47.8653 365.1645,52.9928 C369.2441,46.9554 374.5419,47.015 378.915,52.6469 C384.0896,47.2114 388.8512,47.7115 391.7016,54.9852 C394.6726,48.8612 400.1529,48.9453 403.1915,54.921 C407.1603,49.0874 411.5444,49.8445 415.5544,54.874 C425.2357,57.2837 426.5459,63.4434 421.5482,71.2317 C426.9931,79.6889 425.528,84.7921 415.5847,87.6652 C413.3371,93.3365 407.9773,93.8078 404.8014,88.584 C401.2144,95.0942 395.0523,95.6835 390.4611,89.7403 C387.7276,95.6427 383.7571,97.2581 378.5271,92.5475 C375.2462,99.0514 370.7501,98.8755 366.6701,93.334 C364.1417,100.7731 357.6243,101.2401 353.616,94.7178 C348.7127,101.1156 343.2536,99.0399 340.7665,92.3462 C336.8306,99.1242 330.9089,98.9687 327.3381,91.9898 C322.8034,97.5081 318.1151,96.0295 315.4415,90.0621 C311.5643,95.1797 306.2053,94.8018 303.6614,88.6665 C299.2005,94.1295 292.9786,94.8653 289.7171,87.3753 C282.6191,83.3238 281.2177,75.3409 289.7987,71.3694 C281.5564,65.3412 282.5035,58.8586 290.9021,53.8803" fill="#FEF3C7" style="stroke:#181818;stroke-width:0.5;"/><text fill="#000000" font-family="Monospace" font-size="14" lengthAdjust="spacing" textLength="111.9156" x="296.47" y="75.4805">actions/checkout</text></g><!--entity tool_actions_setup_python--><g class="entity" data-qualified-name="tool_actions_setup_python" data-source-line="9" id="ent0004"><path d="M276.5291,139.0653 C278.7416,133.0104 282.9552,132.9487 286.7739,137.5162 C291.6376,132.1865 295.9769,132.8353 299.3697,139.1123 C301.2657,134.523 306.0636,132.6687 309.5196,137.4164 C312.8791,131.1239 316.4866,131.2305 320.5551,136.7543 C324.1353,131.2677 327.873,132.166 331.3227,136.8919 C335.1614,132.5503 338.7998,132.8787 341.576,138.0385 C344.7514,132.2339 349.8079,130.5811 354.5498,136.2702 C357.5956,131.2994 360.534,131.358 363.655,136.2005 C367.9881,130.4578 372.3161,131.0985 376.0453,136.8515 C380.088,131.9141 383.9571,132.5779 387.0186,137.9009 C389.7871,132.528 394.5505,133.2043 397.6599,137.5267 C400.7103,131.8827 405.5118,132.5978 408.2425,137.8376 C412.4674,132.1954 416.2672,132.8788 420.3037,138.0476 C424.0954,132.7773 428.5472,133.0907 431.7476,138.6712 C440.8926,141.3725 442.7241,149.3956 436.204,156.1019 C443.2389,164.1975 440.7916,170.7354 430.2014,172.2994 C426.7194,177.8902 422.941,177.8178 419.7567,172.0262 C417.7118,177.902 412.7728,177.5255 409.3059,173.5319 C406.559,179.3945 401.9312,179.5459 398.0338,174.7485 C394.9127,180.8644 389.1631,180.5999 386.0938,174.6971 C383.6705,180.2628 380.4416,179.6416 376.5433,176.2741 C373.3892,181.4071 368.8285,182.0431 365.3169,176.6555 C362.9421,182.0373 357.2819,182.5113 353.9329,177.7488 C350.3516,183.7723 345.8083,183.4457 342.121,177.8565 C338.5463,182.4354 333.3535,183.1241 330.6566,176.923 C327.0068,181.4066 322.7018,179.8954 320.9553,174.9623 C316.5032,178.9929 312.7724,178.6572 309.6181,173.3813 C305.4818,179.4902 301.5678,178.1863 297.6884,173.1073 C295.461,177.5332 290.8323,177.3996 288.1788,173.5998 C284.4047,179.2753 278.8249,178.6616 276.3262,172.3398 C266.5893,171.054 263.0189,163.8861 267.5911,155.2756 C262.6285,146.3595 265.1567,138.9746 276.5291,139.0653" fill="#FEF3C7" style="stroke:#181818;stroke-width:0.5;"/><text fill="#000000" font-family="Monospace" font-size="14" lengthAdjust="spacing" textLength="140.2795" x="282.28" y="159.4805">actions/setup-python</text></g><!--entity tool_auto_pass--><g class="entity" data-qualified-name="tool_auto_pass" data-source-line="10" id="ent0005"><path d="M314.3793,223.6533 C316.9283,216.8655 321.7664,217.4847 326.0758,221.7986 C330.0409,213.6343 336.3907,214.6385 341.0755,221.0585 C344.633,214.8329 350.4788,214.626 353.4849,221.5778 C357.7185,215.9697 361.7171,216.3583 365.7781,221.7703 C370.1834,215.0998 374.834,214.7174 379.9647,220.9741 C384.3776,215.8808 389.737,214.7741 392.992,222.1807 C404.6547,223.2721 406.9909,229.7521 401.716,239.4165 C406.7644,248.3982 405.463,254.655 394.1124,256.213 C389.7924,263.0984 385.7253,263.1658 380.7123,256.9202 C378.1105,265.1452 372.5311,265.4964 367.159,259.5743 C363.854,266.4926 359.8796,267.6396 354.5858,261.4874 C349.4021,267.644 344.714,266.9579 340.8883,260.0623 C335.4084,265.2187 328.4397,264.8861 325.8071,256.8157 C321.4716,262.2073 317.1856,262.4803 312.9306,256.7227 C302.1882,254.6398 299.6959,246.4506 307.5703,238.7999 C303.4591,231.2382 306.1614,225.6726 314.3793,223.6533" fill="#FEF3C7" style="stroke:#181818;stroke-width:0.5;"/><text fill="#000000" font-family="Monospace" font-size="14" lengthAdjust="spacing" textLength="66.1218" x="319.36" y="243.4805">auto_pass</text></g><!--entity tool_black--><g class="entity" data-qualified-name="tool_black" data-source-line="11" id="ent0006"><path d="M328.9112,307.1298 C330.933,300.6355 336.9775,300.1158 341.1073,304.8377 C344.9781,298.2128 349.3047,298.0673 353.7324,304.2905 C358.142,298.7962 361.9921,299.0128 365.5159,305.1853 C369.761,299.427 375.5544,299.4704 378.4093,306.5784 C386.4022,310.4399 387.1231,316.9414 380.6001,322.7673 C387.1122,328.8849 386.231,336.6955 377.5817,340.1859 C375.8548,346.423 370.5959,348.9272 365.245,344.3016 C364.2492,350.5594 358.937,351.6661 354.5839,347.8573 C348.0392,353.3441 342.6235,351.4667 341.0711,343.017 C335.2756,348.9176 330.4728,347.5293 328.3437,339.6345 C317.7235,337.7595 316.2382,331.6424 322.2349,323.4827 C316.3182,315.1567 320.1106,309.4473 328.9112,307.1298" fill="#FEF3C7" style="stroke:#181818;stroke-width:0.5;"/><text fill="#000000" font-family="Monospace" font-size="14" lengthAdjust="spacing" textLength="34.2719" x="335.29" y="327.4805">black</text></g><!--entity tool_pip--><g class="entity" data-qualified-name="tool_pip" data-source-line="12" id="ent0007"><path d="M336.3012,389.5833 C340.6455,381.9554 348.1107,380.4928 353.5651,388.3452 C360.9731,380.2314 367.0818,382.1788 371.3705,391.526 C380.7419,392.7781 384.8019,397.6707 379.967,406.8778 C386.0578,416.6046 380.3844,423.0287 370.4961,423.8263 C367.5861,433.8019 361.8952,436.1692 353.5133,429.3641 C345.1973,436.4763 337.3826,432.5732 335.3946,422.6384 C327.582,418.3597 325.15,413.7375 332.6587,406.8106 C325.5908,399.5925 326.4757,393.2294 336.3012,389.5833" fill="#FEF3C7" style="stroke:#181818;stroke-width:0.5;"/><text fill="#000000" font-family="Monospace" font-size="14" lengthAdjust="spacing" textLength="20.8319" x="342.01" y="411.4805">pip</text></g><!--entity tool_ruff--><g class="entity" data-qualified-name="tool_ruff" data-source-line="13" id="ent0008"><path d="M333.9732,474.2019 C338.8431,464.8025 348.2261,464.0703 353.8462,473.4062 C360.6549,465.7135 366.3365,465.7482 371.4754,475.1302 C382.031,475.78 384.2817,482.3738 379.4655,490.8412 C384.2434,499.6707 380.8404,504.6353 371.8339,506.9239 C366.6911,516.8791 361.0008,517.5822 353.3629,509.4754 C346.7135,517.0647 338.4281,517.8637 334.2621,506.9164 C325.2582,505.6086 322.5361,498.6505 328.779,491.8089 C321.459,484.5778 325.2246,476.6927 333.9732,474.2019" fill="#FEF3C7" style="stroke:#181818;stroke-width:0.5;"/><text fill="#000000" font-family="Monospace" font-size="14" lengthAdjust="spacing" textLength="24.0659" x="340.39" y="495.4805">ruff</text></g><!--entity tool_unittest--><g class="entity" data-qualified-name="tool_unittest" data-source-line="14" id="ent0009"><path d="M321.4673,557.7278 C326.4545,548.6757 332.3924,550.027 337.7484,557.3615 C341.7431,548.4241 349.6467,550.064 353.9142,557.0851 C359.4535,548.7331 366.3729,549.2644 370.2707,558.6028 C374.9149,552.5259 382.0659,552.5938 386.0173,559.4466 C395.219,560.1129 400.2253,566.8204 394.7873,575.4896 C401.321,585.8987 396.6946,592.3122 385.1989,592.6436 C380.8835,600.6613 373.2774,599.9007 368.8702,592.7424 C365.4303,599.3719 358.6721,601.0492 353.644,594.59 C348.4581,602.3037 341.7719,600.944 338.0275,593.1394 C333.1219,602.5114 324.6953,600.8304 320.5229,592.4177 C309.9424,588.7053 310.2613,580.6718 317.9821,574.3813 C312.0262,567.0908 313.5402,562.1129 321.4673,557.7278" fill="#FEF3C7" style="stroke:#181818;stroke-width:0.5;"/><text fill="#000000" font-family="Monospace" font-size="14" lengthAdjust="spacing" textLength="50.6798" x="327.08" y="579.4805">unittest</text></g><g class="entity" data-qualified-name="toolingGraphSummary" data-source-line="23" id="ent0017"><path d="M6,212.3446 L6,257.7566 L207.2842,257.7566 L207.2842,222.3446 L197.2842,212.3446 L6,212.3446" fill="#FEFFDD" style="stroke:#181818;stroke-width:0.5;"/><path d="M197.2842,212.3446 L197.2842,222.3446 L207.2842,222.3446 L197.2842,212.3446" fill="#FEFFDD" style="stroke:#181818;stroke-width:1;"/><text fill="#000000" font-family="Monospace" font-size="13" lengthAdjust="spacing" textLength="180.2842" x="12" y="231.2416">Scanned&#160;1&#160;tooling&#160;entrypoint.</text><text fill="#000000" font-family="Monospace" font-size="13" lengthAdjust="spacing" textLength="171.7822" x="12" y="248.9476">Detected&#160;7&#160;third-party&#160;tools.</text></g><!--link source_github_workflows_ci_yml to tool_actions_checkout--><g class="link" data-entity-1="ent0002" data-entity-2="ent0003" data-link-type="dependency" data-source-line="15" id="lnk10"><path d="M198.28,305.6946 C220.29,305.6946 237.56,305.6946 237.56,305.6946 C237.56,305.6946 237.56,70.0546 237.56,70.0546 C237.56,70.0546 251.63,70.0546 274.99,70.0546" fill="none" id="source_github_workflows_ci_yml-to-tool_actions_checkout" style="stroke:#181818;stroke-width:1;"/><polygon fill="#181818" points="280.99,70.0546,271.99,66.0546,275.99,70.0546,271.99,74.0546,280.99,70.0546" style="stroke:#181818;stroke-width:1;"/></g><!--link source_github_workflows_ci_yml to tool_actions_setup_python--><g class="link" data-entity-1="ent0002" data-entity-2="ent0004" data-link-type="dependency" data-source-line="16" id="lnk11"><path d="M198.2,313.8746 C242.22,313.8746 285.56,313.8746 285.56,313.8746 C285.56,313.8746 285.56,229.9746 285.56,185.0246" fill="none" id="source_github_workflows_ci_yml-to-tool_actions_setup_python" style="stroke:#181818;stroke-width:1;"/><polygon fill="#181818" points="285.56,179.0246,281.56,188.0246,285.56,184.0246,289.56,188.0246,285.56,179.0246" style="stroke:#181818;stroke-width:1;"/></g><!--link source_github_workflows_ci_yml to tool_auto_pass--><g class="link" data-entity-1="ent0002" data-entity-2="ent0005" data-link-type="dependency" data-source-line="17" id="lnk12"><path d="M198.44,322.0546 C251.79,322.0546 308.56,322.0546 308.56,322.0546 C308.56,322.0546 308.56,293.5746 308.56,268.7946" fill="none" id="source_github_workflows_ci_yml-to-tool_auto_pass" style="stroke:#181818;stroke-width:1;"/><polygon fill="#181818" points="308.56,262.7946,304.56,271.7946,308.56,267.7946,312.56,271.7946,308.56,262.7946" style="stroke:#181818;stroke-width:1;"/></g><!--link source_github_workflows_ci_yml to tool_black--><g class="link" data-entity-1="ent0002" data-entity-2="ent0006" data-link-type="dependency" data-source-line="18" id="lnk13"><path d="M198.16,330.2246 C240.88,330.2246 283.02,330.2246 313.99,330.2246" fill="none" id="source_github_workflows_ci_yml-to-tool_black" style="stroke:#181818;stroke-width:1;"/><polygon fill="#181818" points="319.99,330.2246,310.99,326.2246,314.99,330.2246,310.99,334.2246,319.99,330.2246" style="stroke:#181818;stroke-width:1;"/></g><!--link source_github_workflows_ci_yml to tool_pip--><g class="link" data-entity-1="ent0002" data-entity-2="ent0007" data-link-type="dependency" data-source-line="19" id="lnk14"><path d="M137.56,351.4346 C137.56,375.6546 137.56,406.0546 137.56,406.0546 C137.56,406.0546 264.02,406.0546 320.93,406.0546" fill="none" id="source_github_workflows_ci_yml-to-tool_pip" style="stroke:#181818;stroke-width:1;"/><polygon fill="#181818" points="326.93,406.0546,317.93,402.0546,321.93,406.0546,317.93,410.0546,326.93,406.0546" style="stroke:#181818;stroke-width:1;"/></g><!--link source_github_workflows_ci_yml to tool_ruff--><g class="link" data-entity-1="ent0002" data-entity-2="ent0008" data-link-type="dependency" data-source-line="20" id="lnk15"><path d="M76.56,351.3146 C76.56,399.4446 76.56,490.0546 76.56,490.0546 C76.56,490.0546 249.19,490.0546 318.96,490.0546" fill="none" id="source_github_workflows_ci_yml-to-tool_ruff" style="stroke:#181818;stroke-width:1;"/><polygon fill="#181818" points="324.96,490.0546,315.96,486.0546,319.96,490.0546,315.96,494.0546,324.96,490.0546" style="stroke:#181818;stroke-width:1;"/></g><!--link source_github_workflows_ci_yml to tool_unittest--><g class="link" data-entity-1="ent0002" data-entity-2="ent0009" data-link-type="dependency" data-source-line="21" id="lnk16"><path d="M198.41,338.4046 C254.9,338.4046 316.56,338.4046 316.56,338.4046 C316.56,338.4046 316.56,482.7746 316.56,543.2746" fill="none" id="source_github_workflows_ci_yml-to-tool_unittest" style="stroke:#181818;stroke-width:1;"/><polygon fill="#181818" points="316.56,549.2746,320.56,540.2746,316.56,544.2746,312.56,540.2746,316.56,549.2746" style="stroke:#181818;stroke-width:1;"/></g><?plantuml-src bPC_Zzim3CLtVmeYDoVNFqEsBcrSTBXRqh60mPDfMuXC2XA5mD--ibCdXgz0tP5wlqTJJwPQTGIOLFOUOuIV8ivo2pzOgGseLZWMZXe55GYsxHHg6yYCGX4lbZq6x25sMCjrD3Re8YsKcXfCJajXVSMUu4LOeaUpP8pqNfXOpphaQSRsoArR8daeqi4JID1EYZi2kqDhjKjlprS9byR9DJuRUnXwzukF-UEQGQhpyEBY3Z12b1GCLJTJTJTLnbRP14-d3-MdybGO9wc67KuNpIqxCXT9EhKOcrL_b6fMuAaybP-_7jVEI9hytWzvQdxldjJgfhxha1-b6XzbOPkFrkoRGtDvS5EvPhpr3o8NQpsafda0OxKc4bjLYeiKvfCx-Ozuz_ilVu_llutBvBQRv_msEwOaDzCvrSti6F1cUCwvO56Qqy_hzZsWxywfxp4CnTaWS_xPFyugv9KAWnVBUYY-pRjm1ErigFE-1nrkct4eY6iOU_y6?></g></svg>
