<?plantuml 1.2026.2?><svg xmlns="http://www.w3.org/2000/svg" xmlns:xlink="http://www.w3.org/1999/xlink" contentStyleType="text/css" data-diagram-type="DESCRIPTION" height="441px" preserveAspectRatio="none" style="width:551px;height:441px;background:#FFFFFF;" version="1.1" viewBox="0 0 551 441" width="551px" zoomAndPan="magnify"><title>auto-pass Tooling Integrations</title><defs/><g><g class="title" data-source-line="1"><text fill="#000000" font-family="Monospace" font-size="14" font-weight="bold" lengthAdjust="spacing" textLength="214.2413" x="161.7688" y="24.9659">auto-pass&#160;Tooling&#160;Integrations</text></g><!--entity source_github_workflows_ci_yml--><g class="entity" data-qualified-name="source_github_workflows_ci_yml" data-source-line="7" id="ent0002"><rect fill="#E0F2FE" height="39.0679" rx="2.5" ry="2.5" style="stroke:#181818;stroke-width:0.5;" width="301.8189" x="7" y="218.5146"/><text fill="#000000" font-family="Monospace" font-size="14" lengthAdjust="spacing" textLength="281.8189" x="17" y="243.4805">.github/workflows/ci.yml\n5&#160;detected&#160;tools</text></g><!--entity tool_actions_checkout--><g class="entity" data-qualified-name="tool_actions_checkout" data-source-line="8" id="ent0003"><path d="M392.4321,53.8803 C396.2839,47.7213 401.0265,47.8618 404.756,54.0028 C408.0617,47.2399 413.0634,48.4888 417.102,53.2153 C421.7223,46.0679 425.9829,46.1928 430.6239,53.1956 C434.8987,46.9122 438.7313,47.9002 442.8273,53.3812 C446.1588,48.6952 451.3724,48.8489 454.1526,54.0149 C456.8508,48.3572 463.1173,47.8653 466.6945,52.9928 C470.7741,46.9554 476.0719,47.015 480.445,52.6469 C485.6196,47.2114 490.3812,47.7115 493.2316,54.9852 C496.2026,48.8612 501.6829,48.9453 504.7215,54.921 C508.6903,49.0874 513.0744,49.8445 517.0844,54.874 C526.7657,57.2837 528.0759,63.4434 523.0782,71.2317 C528.5231,79.6889 527.058,84.7921 517.1147,87.6652 C514.8671,93.3365 509.5073,93.8078 506.3314,88.584 C502.7444,95.0942 496.5823,95.6835 491.9911,89.7403 C489.2576,95.6427 485.2871,97.2581 480.0571,92.5475 C476.7762,99.0514 472.2801,98.8755 468.2001,93.334 C465.6717,100.7731 459.1543,101.2401 455.146,94.7178 C450.2427,101.1156 444.7836,99.0399 442.2965,92.3462 C438.3606,99.1242 432.4389,98.9687 428.8681,91.9898 C424.3334,97.5081 419.6451,96.0295 416.9715,90.0621 C413.0943,95.1797 407.7353,94.8018 405.1914,88.6665 C400.7305,94.1295 394.5086,94.8653 391.2471,87.3753 C384.1491,83.3238 382.7477,75.3409 391.3287,71.3694 C383.0864,65.3412 384.0335,58.8586 392.4321,53.8803" fill="#FEF3C7" style="stroke:#181818;stroke-width:0.5;"/><text fill="#000000" font-family="Monospace" font-size="14" lengthAdjust="spacing" textLength="111.9156" x="398" y="75.4805">actions/checkout</text></g><!--entity tool_actions_setup_python--><g class="entity" data-qualified-name="tool_actions_setup_python" data-source-line="9" id="ent0004"><path d="M378.0691,139.0653 C380.2816,133.0104 384.4952,132.9487 388.3139,137.5162 C393.1776,132.1865 397.5169,132.8353 400.9097,139.1123 C402.8057,134.523 407.6036,132.6687 411.0596,137.4164 C414.4191,131.1239 418.0266,131.2305 422.0951,136.7543 C425.6753,131.2677 429.413,132.166 432.8627,136.8919 C436.7014,132.5503 440.3398,132.8787 443.116,138.0385 C446.2914,132.2339 451.3479,130.5811 456.0898,136.2702 C459.1356,131.2994 462.074,131.358 465.195,136.2005 C469.5281,130.4578 473.8561,131.0985 477.5853,136.8515 C481.628,131.9141 485.4971,132.5779 488.5586,137.9009 C491.3271,132.528 496.0905,133.2043 499.1999,137.5267 C502.2503,131.8827 507.0518,132.5978 509.7825,137.8376 C514.0074,132.1954 517.8072,132.8788 521.8437,138.0476 C525.6354,132.7773 530.0872,133.0907 533.2876,138.6712 C542.4326,141.3725 544.2641,149.3956 537.744,156.1019 C544.7789,164.1975 542.3316,170.7354 531.7414,172.2994 C528.2594,177.8902 524.481,177.8178 521.2967,172.0262 C519.2518,177.902 514.3128,177.5255 510.8459,173.5319 C508.099,179.3945 503.4712,179.5459 499.5738,174.7485 C496.4527,180.8644 490.7031,180.5999 487.6338,174.6971 C485.2105,180.2628 481.9816,179.6416 478.0833,176.2741 C474.9292,181.4071 470.3685,182.0431 466.8569,176.6555 C464.4821,182.0373 458.8219,182.5113 455.4729,177.7488 C451.8916,183.7723 447.3483,183.4457 443.661,177.8565 C440.0863,182.4354 434.8935,183.1241 432.1966,176.923 C428.5468,181.4066 424.2418,179.8954 422.4953,174.9623 C418.0432,178.9929 414.3124,178.6572 411.1581,173.3813 C407.0218,179.4902 403.1078,178.1863 399.2284,173.1073 C397.001,177.5332 392.3723,177.3996 389.7188,173.5998 C385.9447,179.2753 380.3649,178.6616 377.8662,172.3398 C368.1293,171.054 364.5589,163.8861 369.1311,155.2756 C364.1685,146.3595 366.6967,138.9746 378.0691,139.0653" fill="#FEF3C7" style="stroke:#181818;stroke-width:0.5;"/><text fill="#000000" font-family="Monospace" font-size="14" lengthAdjust="spacing" textLength="140.2795" x="383.82" y="159.4805">actions/setup-python</text></g><!--entity tool_auto_pass--><g class="entity" data-qualified-name="tool_auto_pass" data-source-line="10" id="ent0005"><path d="M415.9193,223.6533 C418.4683,216.8655 423.3064,217.4847 427.6158,221.7986 C431.5809,213.6343 437.9307,214.6385 442.6155,221.0585 C446.173,214.8329 452.0188,214.626 455.0249,221.5778 C459.2585,215.9697 463.2571,216.3583 467.3181,221.7703 C471.7234,215.0998 476.374,214.7174 481.5047,220.9741 C485.9176,215.8808 491.277,214.7741 494.532,222.1807 C506.1947,223.2721 508.5309,229.7521 503.256,239.4165 C508.3044,248.3982 507.003,254.655 495.6524,256.213 C491.3324,263.0984 487.2653,263.1658 482.2523,256.9202 C479.6505,265.1452 474.0711,265.4964 468.699,259.5743 C465.394,266.4926 461.4196,267.6396 456.1258,261.4874 C450.9421,267.644 446.254,266.9579 442.4283,260.0623 C436.9484,265.2187 429.9797,264.8861 427.3471,256.8157 C423.0116,262.2073 418.7256,262.4803 414.4706,256.7227 C403.7282,254.6398 401.2359,246.4506 409.1103,238.7999 C404.9991,231.2382 407.7014,225.6726 415.9193,223.6533" fill="#FEF3C7" style="stroke:#181818;stroke-width:0.5;"/><text fill="#000000" font-family="Monospace" font-size="14" lengthAdjust="spacing" textLength="66.1218" x="420.9" y="243.4805">auto_pass</text></g><!--entity tool_pip--><g class="entity" data-qualified-name="tool_pip" data-source-line="11" id="ent0006"><path d="M437.8312,305.5833 C442.1755,297.9554 449.6407,296.4928 455.0951,304.3452 C462.5031,296.2314 468.6118,298.1788 472.9005,307.526 C482.2719,308.7781 486.3319,313.6707 481.497,322.8778 C487.5878,332.6046 481.9144,339.0287 472.0261,339.8263 C469.1161,349.8019 463.4252,352.1692 455.0433,345.3641 C446.7273,352.4763 438.9126,348.5732 436.9246,338.6384 C429.112,334.3597 426.68,329.7375 434.1887,322.8106 C427.1208,315.5925 428.0057,309.2294 437.8312,305.5833" fill="#FEF3C7" style="stroke:#181818;stroke-width:0.5;"/><text fill="#000000" font-family="Monospace" font-size="14" lengthAdjust="spacing" textLength="20.8319" x="443.54" y="327.4805">pip</text></g><!--entity tool_unittest--><g class="entity" data-qualified-name="tool_unittest" data-source-line="12" id="ent0007"><path d="M423.0073,389.7278 C427.9945,380.6757 433.9324,382.027 439.2884,389.3615 C443.2831,380.4241 451.1867,382.064 455.4542,389.0851 C460.9935,380.7331 467.9129,381.2644 471.8107,390.6028 C476.4549,384.5259 483.6059,384.5938 487.5573,391.4466 C496.759,392.1129 501.7653,398.8204 496.3273,407.4896 C502.861,417.8987 498.2346,424.3122 486.7389,424.6436 C482.4235,432.6613 474.8174,431.9007 470.4102,424.7424 C466.9703,431.3719 460.2121,433.0492 455.184,426.59 C449.9981,434.3037 443.3119,432.944 439.5675,425.1394 C434.6619,434.5114 426.2353,432.8304 422.0629,424.4177 C411.4824,420.7053 411.8013,412.6718 419.5221,406.3813 C413.5662,399.0908 415.0802,394.1129 423.0073,389.7278" fill="#FEF3C7" style="stroke:#181818;stroke-width:0.5;"/><text fill="#000000" font-family="Monospace" font-size="14" lengthAdjust="spacing" textLength="50.6798" x="428.62" y="411.4805">unittest</text></g><g class="entity" data-qualified-name="toolingGraphSummary" data-source-line="19" id="ent0013"><path d="M57.27,138.3446 L57.27,183.7566 L258.5542,183.7566 L258.5542,148.3446 L248.5542,138.3446 L57.27,138.3446" fill="#FEFFDD" style="stroke:#181818;stroke-width:0.5;"/><path d="M248.5542,138.3446 L248.5542,148.3446 L258.5542,148.3446 L248.5542,138.3446" fill="#FEFFDD" style="stroke:#181818;stroke-width:1;"/><text fill="#000000" font-family="Monospace" font-size="13" lengthAdjust="spacing" textLength="180.2842" x="63.27" y="157.2416">Scanned&#160;1&#160;tooling&#160;entrypoint.</text><text fill="#000000" font-family="Monospace" font-size="13" lengthAdjust="spacing" textLength="171.7822" x="63.27" y="174.9476">Detected&#160;5&#160;third-party&#160;tools.</text></g><!--link source_github_workflows_ci_yml to tool_actions_checkout--><g class="link" data-entity-1="ent0002" data-entity-2="ent0003" data-link-type="dependency" data-source-line="13" id="lnk8"><path d="M284.1,218.1146 C284.1,173.6146 284.1,70.0546 284.1,70.0546 C284.1,70.0546 330.36,70.0546 376.91,70.0546" fill="none" id="source_github_workflows_ci_yml-to-tool_actions_checkout" style="stroke:#181818;stroke-width:1;"/><polygon fill="#181818" points="382.91,70.0546,373.91,66.0546,377.91,70.0546,373.91,74.0546,382.91,70.0546" style="stroke:#181818;stroke-width:1;"/></g><!--link source_github_workflows_ci_yml to tool_actions_setup_python--><g class="link" data-entity-1="ent0002" data-entity-2="ent0004" data-link-type="dependency" data-source-line="14" id="lnk9"><path d="M309.19,231.5346 C351.95,231.5346 387.1,231.5346 387.1,231.5346 C387.1,231.5346 387.1,207.6446 387.1,184.9946" fill="none" id="source_github_workflows_ci_yml-to-tool_actions_setup_python" style="stroke:#181818;stroke-width:1;"/><polygon fill="#181818" points="387.1,178.9946,383.1,187.9946,387.1,183.9946,391.1,187.9946,387.1,178.9946" style="stroke:#181818;stroke-width:1;"/></g><!--link source_github_workflows_ci_yml to tool_auto_pass--><g class="link" data-entity-1="ent0002" data-entity-2="ent0005" data-link-type="dependency" data-source-line="15" id="lnk10"><path d="M308.97,244.5646 C344.04,244.5646 372.88,244.5646 399.61,244.5646" fill="none" id="source_github_workflows_ci_yml-to-tool_auto_pass" style="stroke:#181818;stroke-width:1;"/><polygon fill="#181818" points="405.61,244.5646,396.61,240.5646,400.61,244.5646,396.61,248.5646,405.61,244.5646" style="stroke:#181818;stroke-width:1;"/></g><!--link source_github_workflows_ci_yml to tool_pip--><g class="link" data-entity-1="ent0002" data-entity-2="ent0006" data-link-type="dependency" data-source-line="16" id="lnk11"><path d="M208.1,257.9546 C208.1,282.7946 208.1,322.0546 208.1,322.0546 C208.1,322.0546 358.99,322.0546 422.11,322.0546" fill="none" id="source_github_workflows_ci_yml-to-tool_pip" style="stroke:#181818;stroke-width:1;"/><polygon fill="#181818" points="428.11,322.0546,419.11,318.0546,423.11,322.0546,419.11,326.0546,428.11,322.0546" style="stroke:#181818;stroke-width:1;"/></g><!--link source_github_workflows_ci_yml to tool_unittest--><g class="link" data-entity-1="ent0002" data-entity-2="ent0007" data-link-type="dependency" data-source-line="17" id="lnk12"><path d="M108.1,257.9846 C108.1,302.4846 108.1,406.0546 108.1,406.0546 C108.1,406.0546 315.84,406.0546 407.27,406.0546" fill="none" id="source_github_workflows_ci_yml-to-tool_unittest" style="stroke:#181818;stroke-width:1;"/><polygon fill="#181818" points="413.27,406.0546,404.27,402.0546,408.27,406.0546,404.27,410.0546,413.27,406.0546" style="stroke:#181818;stroke-width:1;"/></g><?plantuml-src bLCzJyCm4DtpAqxjd9OFLMmiq206MCfOAJBE9R7gt5dsMLN-FKvBIjGYKSRuVUJT-LcCM0GLXNEdGe0FPckeWLSIRBmImnGoYxM0C7ZJj0ALyQW780ixGqvvrK5eLSNxGLWh6t22L5YhQALWadVL8RmnSN1AJpcQEyU491lfKvh1Nb5ZfvGK2gLt2EobvUn4WTcYCTB6p-MU_Qwsl0zBRHPzPxTRMgM_Is9YbTAp3JDG0G97hx4ygigJgjIcJ2gOhs-AksATQSknWfawJ9eyMzGxZdAm6CpARwGS4PWNw-B-wU5S6L2YorsVOjEb-e2MH_J28TrAETpAH3OUdNETSJ-iz76EHp8Y62RvnvCJyu_5vFdZxuF_MpYT-NhnEFdLYhI5gxdZCZ9YmN55gSulNhbs4xjE-JxRQ4MKkdGxef0gwtl7XcIHFOzLMu6qnbVfFNdfZyLRP4WL3DvV?></g></svg>